<?xml version="1.0" standalone="no"?>
<!DOCTYPE svg PUBLIC "-//W3C//DTD SVG 20010904//EN"
 "http://www.w3.org/TR/2001/REC-SVG-20010904/DTD/svg10.dtd">
<svg version="1.0" xmlns="http://www.w3.org/2000/svg"
 width="612.000000pt" height="612.000000pt" viewBox="0 0 612.000000 612.000000"
 preserveAspectRatio="xMidYMid meet">
<metadata>
Created by potrace 1.11, written by Peter Selinger 2001-2013
</metadata>
<g transform="translate(0.000000,612.000000) scale(0.100000,-0.100000)"
fill="#000000" stroke="none">
<path d="M0 3060 l0 -3060 1550 0 c937 0 1550 4 1550 9 0 13 55 24 115 24 28
-1 40 1 28 4 -13 2 -23 9 -23 14 0 5 -9 9 -20 9 -13 0 -20 7 -20 20 0 11 -4
20 -10 20 -5 0 -10 -7 -10 -15 0 -8 -3 -15 -7 -15 -13 1 -48 30 -36 30 17 0
24 44 8 53 -8 4 -12 14 -9 22 4 10 0 15 -11 15 -12 0 -15 5 -11 16 3 9 6 18 6
20 0 2 8 4 19 4 25 0 39 20 34 50 -2 14 -6 58 -7 99 -3 54 -8 76 -19 83 -25
13 -13 64 23 99 17 18 29 38 26 45 -3 7 0 16 6 20 16 10 98 12 98 2 0 -9 17 3
50 36 11 11 20 16 20 12 0 -5 20 10 45 33 48 44 55 47 72 30 8 -8 14 -5 22 10
7 12 16 21 22 21 5 0 26 15 45 32 20 18 43 37 51 42 13 7 13 10 2 18 -11 8
-11 9 2 5 20 -7 42 7 45 28 3 22 24 45 40 45 8 0 24 20 36 45 12 25 26 45 30
45 4 0 8 6 8 13 0 15 41 57 56 57 17 1 75 60 69 70 -4 6 -3 10 2 9 17 -4 43
14 43 29 0 8 3 12 6 9 8 -7 53 80 54 102 0 10 3 11 13 2 11 -8 16 -5 25 15 7
14 12 32 12 40 0 8 4 13 8 10 5 -3 30 38 57 90 45 87 85 142 85 117 0 -14 102
-24 116 -12 7 6 45 4 97 -4 81 -13 88 -13 117 4 36 22 76 25 83 5 6 -16 88
-11 122 7 28 15 216 19 299 7 50 -8 71 -8 76 0 20 32 110 48 110 20 0 -5 8 -9
18 -9 9 0 36 -2 60 -5 24 -3 42 -1 42 4 0 6 11 10 25 10 14 0 25 -5 25 -11 0
-6 15 -8 43 -4 23 3 57 8 76 10 19 2 37 9 41 16 6 8 25 9 62 5 55 -7 88 -1 88
15 0 19 -44 69 -61 69 -10 0 -21 5 -24 11 -5 7 -12 6 -23 -4 -48 -40 -118 -45
-157 -11 l-30 25 -8 -26 c-8 -22 -13 -25 -45 -21 -54 6 -92 17 -92 26 0 4 -9
10 -20 13 -14 4 -24 -1 -31 -16 -11 -20 -12 -20 -25 4 l-13 24 -1 -22 c0 -19
-5 -23 -34 -23 -19 0 -47 5 -63 11 -15 7 -49 13 -74 15 -40 3 -48 1 -52 -16
-5 -18 -11 -20 -49 -14 -62 8 -68 11 -68 33 0 11 -9 25 -19 31 -30 16 -36 12
-15 -11 18 -20 18 -21 -1 -35 -11 -8 -26 -12 -33 -9 -8 3 -20 5 -28 5 -8 0
-19 11 -24 25 -5 14 -16 25 -25 25 -18 0 -20 -31 -3 -48 17 -17 3 -25 -20 -11
-14 9 -29 10 -53 3 -36 -11 -118 -1 -156 18 -21 10 -38 9 -74 -7 -12 -5 -20 1
-27 22 -6 15 -11 22 -11 16 -2 -25 -40 -13 -55 16 -9 16 -12 31 -9 35 4 3 2 6
-3 6 -17 0 -15 58 2 74 9 9 18 34 21 56 3 23 16 51 31 67 18 19 25 40 27 72 1
26 -1 51 -5 56 -12 15 -15 79 -5 95 11 17 15 120 6 135 -4 6 -4 33 0 60 3 28
7 39 8 25 1 -18 4 -21 10 -12 4 8 11 13 15 13 16 -2 18 0 7 13 -6 7 -9 21 -5
30 4 10 1 16 -9 16 -9 0 -18 -8 -20 -17 -3 -10 -5 -3 -6 15 0 19 3 31 8 27 14
-8 31 28 31 64 0 17 4 31 8 31 5 0 8 19 8 43 -1 34 -5 43 -19 45 -12 0 -17 -4
-13 -13 3 -9 0 -12 -10 -8 -13 5 -13 8 2 24 10 11 14 22 11 26 -4 3 -7 1 -7
-5 0 -7 -4 -12 -10 -12 -15 0 -12 28 4 37 7 4 16 15 20 23 3 8 4 5 2 -7 -5
-28 12 -41 20 -16 3 10 14 36 24 58 10 22 21 50 25 62 7 26 -14 95 -27 87 -4
-3 -8 2 -8 10 0 22 -13 20 -28 -4 -7 -11 -8 -20 -3 -20 12 0 24 -66 16 -90 -4
-11 -13 -20 -21 -20 -16 0 -18 9 -4 44 7 20 6 24 -5 20 -9 -4 -19 4 -26 20
l-12 26 -23 -48 c-25 -50 -30 -82 -14 -82 6 0 10 -10 10 -21 0 -18 2 -19 15
-9 12 10 15 9 15 -4 0 -10 -7 -24 -15 -32 -8 -8 -19 -23 -25 -32 -9 -16 -11
-16 -25 3 -14 18 -15 14 -11 -50 4 -50 3 -60 -3 -37 -10 40 -27 58 -17 20 4
-16 1 -42 -7 -60 -8 -20 -11 -44 -6 -60 5 -21 4 -28 -6 -28 -8 0 -15 10 -17
23 -3 12 -8 -4 -12 -35 -5 -32 -12 -58 -17 -58 -5 0 -9 -12 -9 -26 0 -14 4
-23 10 -19 6 3 10 -1 10 -9 0 -20 -17 -30 -23 -14 -5 15 -27 -35 -26 -60 0
-14 2 -14 8 2 5 12 8 -6 9 -47 2 -69 -7 -83 -37 -55 -11 11 -12 9 -7 -9 4 -13
2 -31 -4 -40 -10 -16 -10 -16 -5 3 4 15 0 24 -11 28 -9 4 -19 4 -22 1 -3 -3 0
-5 7 -5 8 0 10 -7 6 -19 -3 -11 -1 -22 5 -26 7 -4 9 -19 5 -35 -5 -21 -2 -31
12 -40 17 -11 17 -11 0 -6 -10 3 -23 6 -29 6 -6 0 -7 7 -4 16 4 10 2 13 -7 8
-9 -6 -9 -4 1 8 9 11 10 23 2 42 -14 38 -13 66 4 66 8 0 17 7 20 16 10 26 0
28 -24 4 -19 -19 -21 -30 -16 -66 6 -50 2 -54 -25 -21 -16 19 -18 19 -19 5 0
-10 3 -18 8 -18 12 0 46 -69 38 -77 -4 -4 -10 -2 -14 4 -5 8 -13 9 -22 3 -8
-6 -18 -10 -22 -10 -12 0 -3 50 10 59 10 6 10 10 -2 21 -10 8 -14 21 -10 39 4
20 3 23 -5 11 -6 -8 -11 -39 -11 -67 0 -29 -4 -53 -10 -53 -5 0 -10 -12 -10
-27 l0 -27 -20 22 c-22 23 -39 31 -23 9 15 -18 22 -67 11 -73 -5 -3 -7 -12 -4
-20 3 -7 1 -16 -4 -19 -6 -4 -10 3 -10 14 0 11 -4 23 -10 26 -13 8 -13 35 -1
35 5 0 11 -6 14 -12 2 -8 3 -7 3 2 -1 9 -13 16 -30 18 -24 3 -28 1 -21 -15 17
-42 18 -56 4 -51 -8 3 -13 10 -12 15 1 5 -8 10 -20 10 -15 2 -18 0 -9 -6 8 -5
13 -11 13 -15 -3 -21 2 -26 25 -26 14 0 23 -4 19 -10 -3 -5 -12 -7 -19 -4 -8
3 -17 0 -21 -6 -5 -8 -11 -7 -22 2 -13 10 -15 9 -11 -7 2 -11 9 -19 14 -18 6
1 11 -3 12 -10 6 -45 9 -57 15 -63 4 -4 7 -14 7 -23 -1 -14 -2 -13 -11 2 -5 9
-20 17 -32 17 -12 0 -29 5 -37 11 -12 9 -11 10 7 6 18 -4 20 -2 11 12 -5 9
-24 26 -41 39 -23 15 -27 22 -14 22 9 0 17 6 17 13 1 7 6 5 14 -5 19 -26 23
-22 23 22 0 25 -4 37 -10 33 -6 -4 -8 0 -4 11 6 14 3 15 -14 6 -14 -8 -18 -17
-14 -31 7 -22 -3 -24 -27 -5 -24 18 -23 23 8 30 16 4 24 12 22 23 -4 22 -28
29 -28 9 0 -9 -4 -16 -10 -16 -5 0 -10 4 -10 9 0 5 -3 16 -6 24 -4 11 2 14 25
11 31 -4 44 17 21 31 -5 3 -10 1 -10 -6 0 -7 -6 -5 -13 6 -8 10 -19 15 -25 11
-7 -4 -12 -2 -12 3 0 6 7 11 16 11 12 0 10 5 -9 20 -14 11 -31 20 -37 20 -8 0
-10 9 -5 28 6 26 6 26 -9 7 l-16 -20 7 20 c6 20 6 20 -15 1 -24 -21 -24 -21
-41 11 -6 12 -26 32 -43 44 -18 13 -27 16 -21 8 7 -9 10 -19 6 -22 -3 -4 6
-16 20 -28 32 -24 35 -39 7 -34 -29 6 -41 15 -35 26 4 5 2 9 -3 9 -5 0 -12 9
-15 21 -9 33 -26 12 -23 -27 2 -19 6 -37 10 -41 14 -14 5 -22 -13 -11 -15 9
-17 16 -10 30 7 12 6 18 -1 18 -6 0 -8 10 -5 22 3 13 7 32 7 44 3 29 26 50 34
30 3 -9 11 -16 16 -16 7 0 6 5 -1 13 -7 10 -7 17 0 24 8 8 8 13 0 17 -6 4 -11
0 -11 -10 0 -14 -2 -15 -17 -3 -10 8 -14 9 -10 2 4 -6 3 -14 -3 -18 -5 -3 -11
0 -12 7 0 7 -4 -9 -7 -37 l-6 -50 -20 35 c-16 29 -20 32 -23 15 -2 -10 1 -21
7 -23 6 -2 11 -12 11 -22 0 -10 5 -22 10 -25 15 -9 12 -22 -5 -22 -8 0 -17 13
-20 29 -4 16 -11 25 -17 22 -6 -4 -8 -2 -5 3 4 6 0 28 -9 48 -8 20 -13 40 -10
43 3 3 6 0 6 -6 0 -7 5 -12 11 -12 6 0 9 7 5 15 -3 8 -1 15 4 15 5 0 11 -10
13 -22 4 -20 4 -20 6 4 0 15 -6 34 -15 42 -8 9 -11 16 -5 16 6 0 11 6 11 14 0
15 -36 32 -55 27 -5 -1 -7 1 -2 5 4 4 -3 18 -15 31 -12 13 -16 23 -10 23 7 0
12 7 12 15 0 8 -7 15 -16 15 -8 0 -32 17 -53 38 -24 26 -41 37 -51 32 -56 -28
-95 -40 -98 -32 -1 5 -14 7 -28 4 -26 -5 -26 -4 -10 19 15 23 14 26 -14 59
-17 19 -28 41 -25 48 2 6 -2 12 -9 12 -8 0 -16 7 -20 15 -3 8 -12 15 -21 15
-8 0 -15 7 -15 15 0 8 -4 15 -10 15 -5 0 -10 6 -10 13 0 6 -12 23 -25 36 -14
13 -25 31 -25 41 0 11 -4 21 -8 24 -10 6 -8 31 3 61 19 53 36 84 48 88 8 2 12
36 13 116 1 61 -2 113 -5 115 -8 5 -4 301 4 335 3 13 12 30 19 35 32 26 41
128 15 162 -5 6 -6 14 -2 17 3 4 -2 7 -13 7 -16 0 -17 2 -4 11 12 8 10 9 -10
7 -14 -2 -31 -9 -38 -16 -8 -7 -17 -10 -22 -7 -4 3 -10 -3 -12 -13 -5 -18 -38
-27 -38 -10 0 4 -3 7 -7 7 -26 -4 -43 3 -44 19 0 10 -3 12 -6 5 -2 -7 -11 -13
-19 -13 -9 0 -12 5 -9 10 3 6 -3 10 -14 10 -18 0 -20 5 -17 46 2 32 0 44 -9
40 -8 -3 -10 4 -7 20 3 18 0 24 -14 25 -11 0 -14 3 -6 6 9 4 8 12 -5 34 -10
16 -20 29 -23 30 -32 4 -45 10 -48 19 -2 6 -11 18 -20 27 -10 9 -17 21 -17 27
0 5 -11 13 -25 17 -21 5 -16 7 25 13 63 9 77 14 45 15 -14 1 -32 6 -40 11 -13
8 -12 10 5 11 14 1 10 4 -10 9 -16 4 -22 8 -12 9 21 1 23 21 2 21 -8 0 -15 5
-15 10 0 6 5 10 12 10 6 0 8 3 5 7 -4 3 -1 13 6 21 10 13 9 15 -5 9 -21 -7
-21 -6 -9 27 7 17 7 26 -2 30 -7 2 -2 8 11 11 22 7 31 25 12 25 -5 0 -10 5
-10 11 0 8 4 8 15 -1 8 -7 29 -10 52 -6 21 3 44 5 51 6 17 0 15 27 -3 34 -9 3
-15 0 -15 -8 0 -8 -12 -16 -26 -19 -30 -5 -61 32 -49 60 6 17 7 17 20 0 8 -11
11 -25 8 -33 -3 -9 2 -14 17 -14 12 0 18 4 15 10 -4 6 -10 8 -14 6 -3 -3 -7 3
-7 12 -8 185 -9 175 16 160 13 -8 16 -16 10 -22 -15 -15 -12 -26 5 -26 21 0
19 37 -4 56 -11 10 -16 24 -13 36 3 13 0 19 -9 18 -31 -5 -39 2 -50 40 -7 22
-18 40 -25 40 -7 0 -11 10 -9 27 4 35 -4 55 -18 46 -7 -4 -8 5 -4 25 4 19 2
32 -4 32 -5 0 -16 15 -24 34 -8 18 -21 36 -30 39 -20 8 -20 71 1 92 10 9 30
15 51 13 19 -1 38 3 42 10 4 6 22 15 41 18 27 6 32 4 25 -7 -7 -11 -6 -12 7
-2 8 7 18 10 22 6 4 -4 11 -1 16 7 6 10 10 11 10 3 0 -9 7 -10 28 -2 22 8 25
8 15 -2 -17 -17 -16 -29 2 -29 8 0 15 5 15 10 0 6 9 10 21 10 12 0 17 -4 13
-11 -4 -8 1 -9 17 -4 20 6 22 5 12 -6 -15 -15 -17 -49 -3 -49 5 0 17 11 26 25
9 14 24 25 33 25 14 0 14 2 1 10 -12 7 -12 10 -1 10 7 0 11 6 8 14 -3 8 1 22
8 33 13 16 16 16 25 3 9 -12 10 -10 5 8 -5 16 -2 22 10 22 9 0 14 4 10 9 -3 5
0 13 6 17 9 5 7 11 -6 20 -17 13 -16 14 9 23 14 6 26 13 26 16 0 4 -5 3 -12
-1 -8 -5 -9 -1 -5 12 7 18 6 18 -7 1 -7 -10 -20 -15 -29 -11 -14 5 -14 7 1 23
9 10 20 16 25 14 4 -2 10 3 13 11 4 10 19 16 40 16 19 0 34 5 34 11 0 5 -5 7
-12 3 -8 -5 -9 -2 -5 10 4 10 7 19 7 22 0 2 6 2 13 0 6 -1 9 -1 5 1 -15 8 -8
25 7 19 8 -3 14 -2 12 2 -3 9 38 62 48 62 4 0 0 -11 -9 -25 -9 -13 -16 -30
-16 -37 0 -7 8 2 16 20 9 17 20 32 25 32 5 0 6 6 3 14 -3 8 0 17 7 22 7 4 10
3 5 -4 -3 -6 -2 -13 3 -16 5 -3 12 6 15 19 4 14 10 24 14 21 4 -3 14 -1 22 4
12 7 12 10 -3 16 -9 3 -17 10 -17 16 0 5 5 6 10 3 5 -3 10 0 10 8 0 8 8 21 18
28 15 13 16 12 3 -3 -8 -11 -9 -18 -3 -18 6 0 16 9 22 19 13 25 13 34 0 26 -6
-3 -10 -1 -10 4 0 6 -6 11 -14 11 -8 0 -17 6 -20 13 -3 6 -4 -1 -1 -18 2 -16
2 -24 -1 -17 -3 6 -10 10 -15 6 -12 -7 -12 18 1 50 10 28 31 34 48 14 11 -14
61 -16 80 -4 7 4 12 2 12 -6 1 -8 7 -5 16 7 15 19 16 18 9 -15 l-6 -35 19 22
c21 23 62 27 62 6 0 -9 8 -11 25 -7 28 7 30 2 15 -27 -6 -10 -8 -19 -6 -19 3
0 12 12 20 28 11 19 15 22 16 10 0 -11 8 -18 20 -18 11 0 23 -6 26 -14 3 -8
13 -12 23 -9 10 2 24 -1 32 -9 8 -7 19 -13 25 -13 18 0 64 -38 64 -53 0 -9 7
-11 20 -7 13 4 20 2 20 -7 0 -7 9 -19 20 -26 12 -7 20 -8 20 -2 0 5 5 10 10
10 6 0 10 -9 10 -20 0 -11 7 -20 15 -20 8 0 15 -5 15 -11 0 -5 4 -8 8 -5 5 3
23 -10 40 -29 16 -19 33 -35 37 -35 10 0 74 -68 69 -73 -8 -8 46 -18 58 -11 7
4 8 3 4 -4 -4 -7 -14 -12 -22 -12 -24 0 5 -25 39 -34 15 -3 25 -11 22 -16 -3
-6 4 -10 17 -10 17 0 19 -3 9 -9 -16 -10 -6 -31 14 -31 9 0 12 -6 9 -15 -4 -8
-1 -15 6 -15 9 0 9 -4 -1 -17 -12 -15 -12 -16 3 -10 17 6 31 -6 34 -31 2 -8
11 -20 21 -28 17 -13 17 -13 -2 -14 -16 -1 -15 -4 8 -14 15 -7 24 -15 20 -19
-4 -5 3 -10 15 -14 21 -5 21 -6 5 -18 -16 -12 -15 -13 5 -26 12 -8 22 -20 22
-27 0 -7 4 -11 9 -8 5 4 20 2 33 -3 l23 -10 -22 0 c-22 -1 -34 -21 -12 -21 5
0 7 -4 4 -10 -3 -5 0 -10 8 -10 7 0 22 -18 33 -40 18 -38 34 -52 34 -30 0 6 4
10 8 10 4 0 6 -15 4 -34 -3 -24 1 -35 13 -40 22 -8 35 1 35 23 0 34 22 39 158
36 131 -2 134 -2 149 22 13 20 21 23 47 17 17 -3 38 -12 46 -20 9 -7 37 -18
64 -24 27 -6 56 -15 66 -20 11 -6 21 -5 29 3 7 7 53 12 115 14 57 1 116 5 130
9 15 3 32 1 40 -6 10 -7 21 -8 33 -2 19 9 115 30 148 31 70 4 88 1 104 -13 10
-9 29 -16 42 -16 14 0 34 -7 45 -14 23 -16 160 -20 169 -5 3 4 18 4 33 -1 15
-4 61 -11 102 -15 41 -3 89 -8 105 -10 17 -2 40 -1 53 2 19 4 22 12 22 52 0
44 -2 48 -36 64 -27 13 -40 15 -56 6 -11 -6 -39 -8 -62 -5 -22 3 -79 6 -126 6
-69 -1 -91 3 -115 20 -32 21 -75 27 -75 10 0 -16 -50 -12 -56 4 -16 41 84 98
173 98 18 0 33 4 33 9 0 5 -17 9 -37 9 -41 0 -72 14 -60 27 9 9 110 31 145 32
14 1 26 -7 32 -21 8 -19 9 -16 7 17 l-2 40 -44 -2 c-24 -1 -49 -7 -55 -13 -14
-14 -47 -12 -70 5 -26 20 -36 11 -29 -29 4 -27 1 -36 -22 -54 -15 -12 -35 -22
-44 -22 -10 0 -32 -11 -51 -25 -39 -29 -53 -31 -70 -10 -16 19 -44 20 -37 1 6
-15 -43 -56 -66 -56 -8 0 -21 -9 -28 -20 -13 -19 -16 -19 -41 -6 -16 8 -28 11
-28 5 0 -13 -41 -10 -70 5 -21 12 -26 12 -36 -2 -9 -12 -17 -13 -41 -5 -18 7
-47 8 -73 3 -47 -9 -70 -4 -70 14 0 6 -19 12 -46 13 -31 1 -53 8 -68 22 -27
25 -63 27 -88 4 -28 -25 -226 -37 -286 -17 -42 15 -44 15 -63 -10 -32 -40 -56
-33 -81 22 -40 88 -100 207 -112 222 -6 8 -20 31 -30 50 -22 40 -68 99 -118
151 -20 19 -50 52 -68 73 l-33 37 26 -7 c29 -7 34 4 17 37 -15 26 -46 24 -54
-3 -6 -21 -7 -21 -19 -6 -6 9 -20 30 -29 47 -10 17 -25 31 -36 31 -10 0 -48
18 -85 40 -36 22 -69 40 -72 40 -4 0 -26 14 -51 31 -24 16 -59 35 -77 41 -17
6 -43 19 -57 28 -14 9 -38 20 -53 24 -24 6 -26 8 -13 21 8 8 32 15 53 15 22 0
44 5 51 12 7 7 44 13 85 15 39 1 81 4 92 6 11 2 44 8 72 12 29 4 58 14 64 21
15 19 34 18 50 -3 11 -12 11 -17 2 -20 -18 -6 28 -73 50 -73 12 0 17 6 15 18
-2 10 -12 17 -26 16 -21 -1 -23 3 -19 45 l4 46 47 3 c56 4 95 -20 74 -45 -9
-11 -9 -17 3 -24 8 -5 17 -9 21 -9 4 0 8 -12 10 -27 2 -17 9 -28 18 -28 18 0
17 69 -1 91 -9 11 -8 18 2 30 11 14 15 12 26 -21 7 -21 10 -41 8 -46 -12 -18
34 -49 72 -48 41 1 85 -5 119 -16 12 -4 25 -2 28 4 4 6 17 11 29 11 12 0 33 9
47 20 14 11 30 20 36 20 6 0 17 7 24 15 17 20 55 19 75 -2 17 -16 55 -40 103
-65 18 -9 30 -9 55 2 18 7 59 12 92 11 121 -3 160 -1 163 9 2 6 10 10 17 10 8
0 18 6 22 13 13 22 41 27 80 13 21 -7 48 -10 63 -5 14 4 48 14 76 23 29 9 58
16 67 16 26 0 40 26 26 48 -10 15 -18 18 -34 12 -26 -10 -55 10 -55 37 0 11
-7 26 -15 33 -22 18 -18 32 8 28 14 -2 27 -15 36 -35 9 -21 22 -33 33 -33 28
0 58 -18 58 -35 0 -8 7 -15 15 -15 8 0 15 -4 15 -8 0 -5 17 -15 39 -22 29 -9
43 -10 60 -1 27 15 41 7 41 -23 0 -50 75 -80 215 -87 63 -2 69 -2 208 1 l87 3
0 52 0 52 -65 7 c-35 4 -75 4 -89 0 -13 -3 -40 -1 -59 4 -24 7 -39 6 -46 -1
-7 -7 -27 -7 -68 0 -35 7 -62 7 -68 2 -12 -11 -25 -12 -25 0 0 5 22 18 49 30
39 16 55 19 76 11 39 -15 52 -12 58 10 5 18 14 20 105 20 55 0 107 3 116 6 12
5 16 21 16 66 l0 61 -30 -7 c-26 -5 -32 -2 -40 20 -9 22 -13 24 -25 14 -8 -7
-15 -22 -15 -34 0 -40 -15 -50 -74 -49 -57 1 -106 24 -106 49 0 17 7 17 64 2
32 -8 51 -9 68 -1 l23 11 -27 10 c-36 15 -42 29 -15 36 35 9 85 7 92 -4 4 -6
12 -7 18 -3 6 4 23 7 37 7 23 1 25 4 25 51 l0 50 -82 3 c-51 2 -83 -1 -83 -7
0 -6 6 -8 14 -5 12 5 33 -13 25 -21 -2 -1 -32 -6 -66 -10 -66 -7 -82 3 -45 31
14 11 -6 13 -130 14 -131 0 -148 -2 -148 -17 0 -15 -1 -15 -18 0 -22 20 -121
23 -154 6 -14 -8 -23 -8 -31 0 -6 6 -17 11 -25 11 -20 0 25 -42 61 -58 16 -7
31 -21 34 -32 3 -11 12 -20 20 -20 10 0 14 7 10 20 -6 24 -4 24 32 6 32 -17
57 -44 48 -53 -4 -3 -44 -6 -89 -7 -81 -1 -84 0 -123 34 -22 19 -66 53 -97 74
-46 31 -63 37 -85 31 l-28 -7 31 -13 c20 -8 34 -23 38 -40 5 -19 11 -25 23
-21 20 8 63 -19 63 -39 0 -20 -9 -19 -45 5 -16 11 -39 20 -50 20 -17 -1 -16
-4 10 -25 17 -14 26 -25 20 -26 -5 0 -31 -2 -58 -5 -43 -4 -48 -2 -59 21 -13
29 -26 32 -44 8 -12 -17 -14 -17 -29 5 -9 12 -23 22 -30 22 -8 0 -20 9 -27 20
-7 11 -16 20 -20 20 -5 0 -8 -9 -8 -20 0 -15 -7 -20 -24 -20 -14 0 -28 -5 -31
-10 -4 -7 -20 -2 -42 11 -33 20 -37 21 -48 6 -10 -15 -14 -14 -44 4 -33 20
-51 18 -51 -5 0 -8 -6 -19 -14 -25 -11 -9 -16 -5 -26 19 -18 43 -39 58 -54 39
-17 -23 -107 -13 -113 12 -3 10 -13 19 -23 19 -10 0 -23 7 -30 15 -8 9 -29 15
-59 15 -39 -1 -43 -2 -26 -12 11 -6 24 -17 28 -25 4 -7 16 -13 26 -13 18 0 56
-31 63 -51 3 -9 27 -12 74 -12 56 0 63 -1 39 -9 -16 -5 -52 -10 -80 -11 -42
-3 -55 1 -77 22 -16 14 -28 31 -28 38 0 16 -12 17 -27 2 -8 -8 -20 -6 -44 7
-19 9 -36 20 -39 23 -13 16 -61 41 -80 41 -22 0 -87 -56 -71 -62 5 -1 14 -22
19 -45 9 -39 8 -43 -9 -43 -18 0 -23 10 -20 37 3 24 -20 23 -29 -2 -10 -27 -5
-49 10 -40 7 5 23 -35 16 -42 -2 -2 -15 2 -30 8 -31 14 -44 6 -26 -16 16 -19
8 -27 -28 -32 -79 -9 -99 1 -104 50 -2 18 -7 31 -13 30 -19 -3 -45 30 -45 59
0 16 -5 39 -12 51 -20 38 -51 62 -45 35 1 -6 -6 -14 -15 -16 -11 -2 -18 2 -18
12 0 15 -179 16 -1910 16 l-1910 0 0 -3060z m5696 3016 c1 -1 5 -16 9 -33 9
-42 -9 -44 -53 -4 -50 46 -36 86 18 52 14 -8 26 -15 26 -15z m116 4 c7 -11 23
-20 36 -20 17 0 22 -5 20 -17 -3 -15 -13 -18 -53 -15 -52 2 -85 23 -85 54 0
27 65 25 82 -2z m-1527 -10 c-3 -5 -10 -10 -16 -10 -5 0 -9 5 -9 10 0 6 7 10
16 10 8 0 12 -4 9 -10z m-415 -10 c0 -5 -7 -10 -15 -10 -8 0 -15 5 -15 10 0 6
7 10 15 10 8 0 15 -4 15 -10z m3 -54 c9 -7 17 -20 17 -29 0 -9 6 -22 13 -29
24 -23 39 -60 30 -69 -11 -11 -56 18 -48 31 3 5 1 11 -5 15 -6 4 -10 -4 -10
-18 0 -29 -23 -42 -39 -23 -8 10 -8 22 -1 40 7 19 7 33 -1 47 -7 15 -7 24 2
35 14 17 19 17 42 0z m555 -6 c18 -11 30 -25 27 -30 -11 -17 -31 -11 -63 20
-25 23 -28 30 -14 30 9 0 32 -9 50 -20z m-75 1 c4 -1 7 -8 7 -16 0 -11 -12
-15 -45 -15 -42 0 -45 -2 -46 -27 l-1 -28 -8 25 c-16 48 -12 59 23 62 17 2 39
3 47 2 8 -2 18 -3 23 -3z m-649 -46 c3 -8 1 -15 -4 -15 -6 0 -10 7 -10 15 0 8
2 15 4 15 2 0 6 -7 10 -15z m-3440 -11 c7 -17 0 -34 -14 -34 -4 0 -7 11 -6 25
1 28 11 33 20 9z m3531 -14 c0 -7 -8 -18 -17 -23 -13 -9 -22 -7 -39 8 l-21 20
28 6 c37 8 49 6 49 -11z m-255 -14 c0 -3 -4 -8 -10 -11 -5 -3 -10 -1 -10 4 0
6 5 11 10 11 6 0 10 -2 10 -4z m2288 -23 c4 -29 -33 -41 -57 -19 -10 9 -23 16
-29 16 -7 0 -12 7 -12 15 0 12 10 15 48 12 39 -2 48 -6 50 -24z m-2863 -3 c3
-5 1 -10 -4 -10 -6 0 -11 5 -11 10 0 6 2 10 4 10 3 0 8 -4 11 -10z m2083 -11
c56 -8 70 -14 58 -26 -4 -4 -15 -2 -26 4 -14 10 -21 9 -30 -2 -7 -9 -29 -14
-54 -14 -36 1 -81 -6 -81 -11 0 -8 -123 -5 -132 3 -23 17 -14 30 17 24 22 -5
30 -3 30 8 0 9 15 16 43 19 23 3 53 7 67 9 14 3 32 2 40 -1 8 -3 39 -8 68 -13z
m-700 -33 c-5 -34 -46 -33 -58 0 -13 34 2 47 37 31 16 -7 23 -17 21 -31z m115
23 c16 -19 26 -20 118 -16 94 4 100 3 96 -14 -3 -11 -1 -22 4 -25 5 -3 4 -14
-2 -26 -9 -17 -8 -23 5 -30 24 -13 19 -28 -8 -28 -35 0 -55 10 -50 23 10 28
-14 40 -78 40 -54 0 -69 4 -102 28 -22 16 -46 29 -52 29 -7 0 -16 5 -19 10
-21 34 60 42 88 9z m797 3 c0 -10 5 -23 12 -30 23 -23 -4 -26 -40 -6 -26 15
-43 19 -59 13 -15 -5 -25 -3 -33 7 -7 8 -11 14 -9 15 2 0 24 3 49 5 25 3 47 7
49 10 11 11 31 2 31 -14z m350 8 c0 -5 -12 -10 -27 -9 -25 0 -26 1 -8 9 27 12
35 12 35 0z m-131 -26 c14 -12 -19 -1 -35 12 -18 14 -18 14 6 3 14 -6 27 -13
29 -15z m-1839 -4 c0 -5 -9 -10 -20 -10 -11 0 -20 5 -20 10 0 6 9 10 20 10 11
0 20 -4 20 -10z m415 0 c3 -5 1 -10 -4 -10 -6 0 -11 5 -11 10 0 6 2 10 4 10 3
0 8 -4 11 -10z m88 -15 c43 -18 63 -42 26 -31 -13 3 -36 9 -51 12 -28 6 -34
15 -21 27 8 9 5 9 46 -8z m-193 -9 c0 -11 -19 -15 -25 -6 -3 5 1 10 9 10 9 0
16 -2 16 -4z m1168 -42 c42 -29 19 -46 -32 -22 -20 9 -23 14 -15 25 14 17 20
16 47 -3z m-4623 -204 c-3 -5 -20 -10 -36 -10 -18 0 -28 4 -24 10 3 6 20 10
36 10 18 0 28 -4 24 -10z m1591 -11 c11 -19 -7 -28 -31 -17 -25 11 -30 20 -19
30 7 8 43 -2 50 -13z m194 2 c0 -5 -9 -11 -20 -14 -22 -6 -29 18 -7 26 14 5
27 -1 27 -12z m-1062 -10 c12 -11 22 -27 22 -37 0 -15 -2 -16 -17 -2 -10 9
-24 13 -31 11 -7 -3 -20 -2 -29 1 -14 6 -14 8 2 26 22 24 24 24 53 1z m742 9
c0 -5 -4 -10 -9 -10 -6 0 -13 5 -16 10 -3 6 1 10 9 10 9 0 16 -4 16 -10z m243
-7 c10 -6 9 -33 -1 -33 -5 0 -17 7 -28 15 -10 8 -27 15 -37 15 -10 0 -15 5
-12 11 6 9 57 4 78 -8z m-603 -3 c0 -5 -4 -10 -10 -10 -5 0 -10 5 -10 10 0 6
5 10 10 10 6 0 10 -4 10 -10z m415 1 c10 -17 -12 -21 -25 -6 -10 12 -10 15 3
15 9 0 18 -4 22 -9z m-75 -77 c0 -26 -9 -31 -28 -12 -8 8 -8 17 -1 30 13 24
29 14 29 -18z m-1000 -4 c0 -5 -5 -10 -11 -10 -5 0 -7 5 -4 10 3 6 8 10 11 10
2 0 4 -4 4 -10z m-835 -10 c-3 -5 -13 -10 -21 -10 -8 0 -14 5 -14 10 0 6 9 10
21 10 11 0 17 -4 14 -10z m1940 -6 c8 3 16 0 18 -7 3 -9 8 -8 21 2 9 8 20 11
23 7 4 -4 -6 -18 -22 -31 -17 -13 -31 -19 -33 -14 -2 5 -10 9 -18 9 -9 0 -13
-4 -10 -9 4 -5 1 -11 -4 -13 -10 -3 -16 -21 -19 -50 -1 -5 -5 -8 -11 -8 -6 0
-7 18 -4 44 4 28 2 46 -5 51 -22 13 8 36 31 24 11 -6 26 -8 33 -5z m-140 -44
c-5 -8 -11 -8 -17 -2 -6 6 -7 16 -3 22 5 8 11 8 17 2 6 -6 7 -16 3 -22z m1235
20 c0 -5 -5 -10 -11 -10 -5 0 -7 5 -4 10 3 6 8 10 11 10 2 0 4 -4 4 -10z
m-3036 -32 c7 -11 7 -21 1 -27 -13 -12 -59 24 -50 39 9 15 36 9 49 -12z m3053
0 c-3 -8 -6 -5 -6 6 -1 11 2 17 5 13 3 -3 4 -12 1 -19z m-27 -8 c0 -5 -2 -10
-4 -10 -3 0 -8 5 -11 10 -3 6 -1 10 4 10 6 0 11 -4 11 -10z m-1880 -15 c0 -8
-7 -15 -15 -15 -8 0 -15 7 -15 15 0 8 7 15 15 15 8 0 15 -7 15 -15z m420 -5
c0 -5 -2 -10 -4 -10 -3 0 -8 5 -11 10 -3 6 -1 10 4 10 6 0 11 -4 11 -10z
m1367 -70 c-13 -18 -15 -19 -21 -4 -3 9 -13 14 -21 11 -9 -4 -12 -1 -8 9 7 19
19 18 28 -3 6 -16 8 -15 17 7 6 14 12 20 15 13 2 -7 -2 -22 -10 -33z m-1810
-12 c-3 -8 -6 -5 -6 6 -1 11 2 17 5 13 3 -3 4 -12 1 -19z m-587 -39 c0 -22
-13 -25 -29 -6 -8 10 -7 17 1 25 15 15 28 6 28 -19z m600 -29 c0 -5 -4 -10
-10 -10 -5 0 -10 5 -10 10 0 6 5 10 10 10 6 0 10 -4 10 -10z m-830 -73 c0 -5
-4 -5 -10 -2 -5 3 -10 14 -10 23 0 15 2 15 10 2 5 -8 10 -19 10 -23z m830 -18
c0 -6 -4 -7 -10 -4 -5 3 -10 11 -10 16 0 6 5 7 10 4 6 -3 10 -11 10 -16z
m-940 -4 c0 -8 -7 -15 -15 -15 -16 0 -20 12 -8 23 11 12 23 8 23 -8z m-264
-32 c-10 -10 -19 5 -10 18 6 11 8 11 12 0 2 -7 1 -15 -2 -18z m2855 4 c-10 -9
-11 -8 -5 6 3 10 9 15 12 12 3 -3 0 -11 -7 -18z m-2151 -57 c0 -5 -5 -10 -11
-10 -5 0 -7 5 -4 10 3 6 8 10 11 10 2 0 4 -4 4 -10z m755 -1 c12 -19 -5 -23
-22 -6 -16 16 -16 17 -1 17 9 0 20 -5 23 -11z m45 7 c0 -3 -4 -8 -10 -11 -5
-3 -10 -1 -10 4 0 6 5 11 10 11 6 0 10 -2 10 -4z m-1105 -38 c-11 -6 -23 -16
-27 -22 -4 -6 -11 -7 -15 -2 -10 9 25 36 46 36 12 -1 11 -3 -4 -12z m275 -19
c0 -18 -2 -19 -15 -9 -15 12 -12 30 6 30 5 0 9 -10 9 -21z m804 -14 c-6 -16
-24 -21 -24 -7 0 11 11 22 21 22 5 0 6 -7 3 -15z m953 -7 c-3 -8 -6 -5 -6 6
-1 11 2 17 5 13 3 -3 4 -12 1 -19z m-2437 2 c0 -5 -5 -10 -11 -10 -5 0 -7 5
-4 10 3 6 8 10 11 10 2 0 4 -4 4 -10z m170 -20 c0 -5 -6 -10 -14 -10 -8 0 -18
5 -21 10 -3 6 3 10 14 10 12 0 21 -4 21 -10z m200 -20 c0 -5 -5 -10 -11 -10
-5 0 -7 5 -4 10 3 6 8 10 11 10 2 0 4 -4 4 -10z m3845 0 c-3 -5 -10 -10 -16
-10 -5 0 -9 5 -9 10 0 6 7 10 16 10 8 0 12 -4 9 -10z m-2625 -10 c0 -5 -4 -10
-10 -10 -5 0 -10 5 -10 10 0 6 5 10 10 10 6 0 10 -4 10 -10z m-578 -60 l22
-20 -27 0 c-20 0 -27 5 -27 20 0 11 2 20 5 20 3 0 15 -9 27 -20z m4496 -91
c-2 -6 -8 -10 -13 -10 -5 0 -11 4 -13 10 -2 6 4 11 13 11 9 0 15 -5 13 -11z
m-78 -24 c7 -9 10 -18 7 -21 -10 -11 -37 5 -37 21 0 19 14 19 30 0z m-5220
-165 c0 -10 3 -26 7 -36 5 -12 3 -15 -6 -9 -10 6 -11 3 -2 -13 18 -34 14 -43
-13 -31 -19 9 -25 21 -29 61 -4 28 -4 55 -1 59 9 15 44 -10 44 -31z m825 -30
c3 -5 -1 -10 -10 -10 -9 0 -13 5 -10 10 3 6 8 10 10 10 2 0 7 -4 10 -10z
m-884 -13 c-1 -12 -15 -9 -19 4 -3 6 1 10 8 8 6 -3 11 -8 11 -12z m58 -136
c10 -18 6 -31 -10 -31 -3 0 -9 11 -11 25 -6 29 7 33 21 6z m-7 -102 c-11 -30
-22 -12 -15 25 5 22 8 25 14 13 5 -8 5 -25 1 -38z m303 -69 c-3 -5 -10 -10
-16 -10 -5 0 -9 5 -9 10 0 6 7 10 16 10 8 0 12 -4 9 -10z m-294 -92 c4 -44 -4
-155 -12 -162 -10 -11 -11 -6 -11 84 0 33 1 67 1 75 1 18 21 20 22 3z m-15
-243 c10 -40 -1 -52 -20 -23 -17 26 -15 48 4 48 5 0 12 -11 16 -25z m924 -135
c0 -5 -4 -10 -10 -10 -5 0 -10 5 -10 10 0 6 5 10 10 10 6 0 10 -4 10 -10z
m-970 -225 c10 -12 10 -15 -4 -15 -9 0 -16 7 -16 15 0 8 2 15 4 15 2 0 9 -7
16 -15z m770 0 c-16 -19 -31 -19 -56 0 -18 13 -16 14 25 15 37 0 42 -2 31 -15z
m277 3 c12 -16 14 -139 2 -154 -5 -5 -10 -36 -13 -68 -3 -33 -8 -62 -13 -67
-7 -7 -10 114 -3 136 2 6 0 22 -4 38 -5 16 -4 32 3 40 8 10 6 19 -4 34 -25 36
6 74 32 41z m-877 -48 c0 -5 -4 -10 -10 -10 -5 0 -10 5 -10 10 0 6 5 10 10 10
6 0 10 -4 10 -10z m856 -315 c3 -14 3 -37 -1 -52 -5 -16 -7 -40 -6 -55 1 -16
-2 -28 -8 -28 -7 0 -11 28 -10 80 1 79 13 104 25 55z m1149 -195 c10 -11 13
-20 7 -20 -6 0 -16 9 -22 20 -6 11 -9 20 -7 20 2 0 12 -9 22 -20z m-1165 -96
c0 -8 -4 -12 -10 -9 -5 3 -10 10 -10 16 0 5 5 9 10 9 6 0 10 -7 10 -16z m3140
-28 c0 -3 -4 -8 -10 -11 -5 -3 -10 -1 -10 4 0 6 5 11 10 11 6 0 10 -2 10 -4z
m6 -183 c-11 -11 -17 4 -9 23 7 18 8 18 11 1 2 -10 1 -21 -2 -24z m44 -24 c0
-11 -4 -18 -10 -14 -5 3 -7 12 -3 20 7 21 13 19 13 -6z m-3156 -134 c11 -8 28
-15 38 -15 10 0 18 -5 18 -11 0 -6 -7 -8 -17 -5 -9 4 -20 1 -24 -6 -6 -10 -11
-8 -22 6 -8 11 -19 16 -25 12 -13 -8 -26 10 -17 24 9 14 27 12 49 -5z m3003
-47 c-3 -7 -5 -2 -5 12 0 14 2 19 5 13 2 -7 2 -19 0 -25z m36 0 c6 -21 2 -36
-7 -27 -10 11 -16 49 -8 49 5 0 12 -10 15 -22z m-4033 -3 c0 -12 -42 -45 -50
-40 -17 11 -11 25 11 25 11 0 17 5 14 10 -3 6 1 10 9 10 9 0 16 -2 16 -5z
m3058 -31 c7 -14 8 -23 2 -19 -15 9 -32 45 -22 45 5 0 14 -12 20 -26z m-3023
6 c3 -5 1 -10 -4 -10 -6 0 -11 5 -11 10 0 6 2 10 4 10 3 0 8 -4 11 -10z m2975
-53 c0 -5 -7 -4 -15 3 -8 7 -15 20 -15 29 1 13 3 13 15 -3 8 -11 15 -24 15
-29z m960 33 c0 -5 -4 -10 -10 -10 -5 0 -10 5 -10 10 0 6 5 10 10 10 6 0 10
-4 10 -10z m-3905 -34 c8 -29 2 -146 -7 -146 -4 0 -10 17 -14 38 -3 20 -12 47
-20 59 -17 27 -18 55 -3 70 16 16 38 5 44 -21z m2884 9 c4 2 18 -13 30 -35 13
-24 18 -41 11 -45 -5 -3 -10 0 -10 7 0 8 -7 23 -16 34 -16 20 -16 13 3 -33 4
-10 3 -14 -5 -9 -6 3 -12 -3 -15 -16 -2 -13 -5 0 -6 29 0 28 -3 57 -4 65 -2 7
-2 10 0 5 3 -4 8 -5 12 -2z m146 -16 c10 -30 2 -32 -12 -3 -6 13 -7 24 -3 24
5 0 12 -9 15 -21z m912 -21 c-3 -8 -6 -5 -6 6 -1 11 2 17 5 13 3 -3 4 -12 1
-19z m-861 -22 c10 -21 9 -25 -7 -29 -14 -4 -19 -14 -19 -39 l-1 -33 -17 28
c-9 15 -20 27 -24 27 -5 0 -8 10 -8 23 0 16 6 23 20 24 15 1 19 -3 17 -20 -2
-12 1 -7 6 11 12 38 18 40 33 8z m-122 -42 c-3 -14 -1 -23 4 -20 4 2 9 -5 9
-17 2 -17 0 -19 -7 -7 -9 13 -10 13 -11 0 0 -8 -4 -4 -8 10 -8 30 -2 72 9 65
5 -3 7 -17 4 -31z m53 -46 c-3 -7 -5 -2 -5 12 0 14 2 19 5 13 2 -7 2 -19 0
-25z m-26 -61 c-16 -16 -25 -1 -10 16 8 8 16 11 18 5 2 -5 -2 -15 -8 -21z
m863 -14 c-8 -20 -8 -54 1 -98 6 -29 5 -29 -10 5 -17 37 -12 110 7 110 6 0 7
-7 2 -17z m-752 -28 c3 -13 1 -22 -3 -19 -9 5 -13 44 -5 44 2 0 6 -11 8 -25z
m248 -37 c0 -5 -4 -6 -10 -3 -5 3 -10 -3 -10 -14 0 -12 4 -21 9 -21 12 0 22
-83 10 -94 -6 -6 -9 -6 -9 2 0 7 -7 12 -15 12 -8 0 -15 6 -15 14 0 8 -3 23 -6
33 -4 13 0 11 15 -7 17 -21 21 -22 21 -7 0 10 -5 27 -11 39 -6 11 -13 30 -15
43 -3 19 -1 22 16 18 11 -3 20 -10 20 -15z m-70 -9 c0 -6 -4 -7 -10 -4 -5 3
-10 11 -10 16 0 6 5 7 10 4 6 -3 10 -11 10 -16z m-3283 -46 c-3 -10 -5 -4 -5
12 0 17 2 24 5 18 2 -7 2 -21 0 -30z m4045 15 c-7 -7 -12 -8 -12 -2 0 14 12
26 19 19 2 -3 -1 -11 -7 -17z m-775 -30 c-3 -8 -6 -5 -6 6 -1 11 2 17 5 13 3
-3 4 -12 1 -19z m121 2 c7 -11 8 -20 2 -20 -5 0 -14 9 -20 20 -6 11 -7 20 -3
20 5 0 14 -9 21 -20z m500 -26 c-3 -14 -5 -12 -10 9 -3 19 -2 25 4 19 6 -6 8
-18 6 -28z m-151 -6 c-3 -7 -5 -2 -5 12 0 14 2 19 5 13 2 -7 2 -19 0 -25z
m281 2 c-13 -21 -28 -27 -28 -10 0 5 8 14 18 19 23 14 24 14 10 -9z m-224 -5
c-4 -8 -8 -15 -10 -15 -2 0 -4 7 -4 15 0 8 4 15 10 15 5 0 7 -7 4 -15z m-116
-31 c7 -14 8 -23 3 -20 -11 7 -24 -41 -16 -54 4 -6 2 -10 -3 -10 -15 0 -20 60
-6 75 9 9 10 15 1 24 -7 7 -7 11 -1 11 6 0 16 -12 22 -26z m28 7 c0 -11 -4
-17 -8 -15 -4 3 -8 12 -8 20 0 8 4 14 8 14 4 0 8 -9 8 -19z m287 -31 c-5 -19
-23 -29 -23 -12 0 7 20 32 26 32 1 0 0 -9 -3 -20z m-1053 -32 c0 -5 -6 -11
-14 -14 -8 -3 -14 -11 -12 -17 1 -7 1 -9 -1 -6 -2 4 -25 4 -50 1 -33 -3 -44
-2 -39 7 4 6 19 12 34 12 24 2 24 2 5 6 -40 8 -25 18 27 18 28 1 50 -3 50 -7z
m-1602 -87 c3 -16 -1 -22 -10 -19 -7 3 -15 15 -16 27 -3 16 1 22 10 19 7 -3
15 -15 16 -27z m2325 9 c-3 -11 -7 -20 -8 -20 -1 0 -5 9 -8 20 -3 12 0 20 8
20 8 0 11 -8 8 -20z m-528 0 c3 -5 2 -10 -4 -10 -5 0 -13 5 -16 10 -3 6 -2 10
4 10 5 0 13 -4 16 -10z m-1880 -10 c3 -5 2 -10 -4 -10 -5 0 -13 5 -16 10 -3 6
-2 10 4 10 5 0 13 -4 16 -10z m2455 -10 c-6 -11 -13 -20 -16 -20 -2 0 0 9 6
20 6 11 13 20 16 20 2 0 0 -9 -6 -20z m-749 -7 c13 -16 12 -17 -3 -4 -17 13
-22 21 -14 21 2 0 10 -8 17 -17z m14 -84 c-7 -20 9 -27 18 -9 3 6 4 5 3 -2 -2
-7 8 -30 21 -50 13 -21 19 -38 13 -38 -5 0 -10 4 -10 10 0 5 -8 6 -17 3 -12
-5 -15 -2 -10 10 3 9 2 19 -3 22 -10 6 -14 -7 -11 -32 1 -6 -2 -14 -6 -16 -5
-3 -8 11 -9 31 -2 58 -11 103 -23 115 -6 6 -11 16 -11 22 0 5 12 -3 26 -18 16
-19 23 -36 19 -48z m125 49 c0 -6 -6 -5 -15 2 -8 7 -15 14 -15 16 0 2 7 1 15
-2 8 -4 15 -11 15 -16z m-213 -25 c-3 -10 -5 -4 -5 12 0 17 2 24 5 18 2 -7 2
-21 0 -30z m653 17 c0 -5 -2 -10 -4 -10 -3 0 -8 5 -11 10 -3 6 -1 10 4 10 6 0
11 -4 11 -10z m-450 -36 c0 -13 -41 -1 -50 15 -9 19 -8 19 20 4 17 -8 30 -16
30 -19z m-10 -36 c0 -13 -23 -5 -28 10 -2 7 2 10 12 6 9 -3 16 -11 16 -16z
m-52 -80 c14 5 15 4 2 -10 -16 -17 -40 -7 -40 15 0 8 3 8 11 0 6 -6 19 -9 27
-5z m-58 -18 c0 -5 -5 -10 -11 -10 -5 0 -7 5 -4 10 3 6 8 10 11 10 2 0 4 -4 4
-10z m39 -60 c0 -11 -3 -10 -14 4 -8 11 -15 27 -15 35 0 11 4 10 15 -5 8 -10
14 -26 14 -34z m124 30 c3 -11 1 -20 -4 -20 -5 0 -9 9 -9 20 0 11 2 20 4 20 2
0 6 -9 9 -20z m-348 0 c3 -5 1 -10 -4 -10 -6 0 -11 5 -11 10 0 6 2 10 4 10 3
0 8 -4 11 -10z m284 -13 c0 -9 -2 -8 -6 1 -2 6 -10 9 -15 6 -7 -4 -8 -2 -4 5
9 13 26 5 25 -12z m-199 -28 c17 -30 6 -34 -14 -4 -9 14 -12 25 -7 25 6 0 15
-9 21 -21z m340 1 c-6 -11 -15 -20 -20 -20 -16 0 -11 18 8 29 24 14 24 14 12
-9z m-1948 -53 c25 -20 49 -33 52 -30 13 14 5 42 -14 48 -11 3 -20 10 -20 14
0 8 134 -14 151 -25 5 -3 10 -17 10 -32 1 -22 3 -23 6 -6 3 16 9 20 24 17 10
-3 19 -10 19 -15 0 -5 4 -7 8 -4 4 2 8 -15 8 -40 0 -24 -4 -44 -9 -44 -4 0 -5
-4 -2 -10 3 -5 1 -10 -4 -10 -6 0 -11 7 -11 15 0 8 -6 12 -14 9 -8 -3 -25 0
-38 7 -13 7 -43 13 -68 14 -41 0 -45 2 -42 24 3 16 0 21 -8 16 -6 -4 -27 1
-45 11 -19 10 -37 16 -40 12 -3 -3 5 -26 18 -51 28 -52 21 -85 -9 -42 -11 15
-27 34 -36 43 -10 9 -18 22 -18 29 0 15 -10 16 -44 4 -18 -8 -28 -6 -37 5 -17
21 7 65 35 63 38 -3 48 1 43 15 -8 19 15 27 28 11 6 -7 31 -29 57 -48z m-547
3 c3 -5 1 -10 -4 -10 -6 0 -11 5 -11 10 0 6 2 10 4 10 3 0 8 -4 11 -10z m2182
-62 c-3 -8 -6 -5 -6 6 -1 11 2 17 5 13 3 -3 4 -12 1 -19z m-1737 -32 c0 -3 -4
-8 -10 -11 -5 -3 -10 -1 -10 4 0 6 5 11 10 11 6 0 10 -2 10 -4z m165 -45 c10
-17 -12 -21 -25 -6 -10 12 -10 15 3 15 9 0 18 -4 22 -9z m140 -22 c16 -30 13
-52 -4 -33 -10 11 -24 64 -16 64 2 0 12 -14 20 -31z m-115 -39 c0 -5 -2 -10
-4 -10 -3 0 -8 5 -11 10 -3 6 -1 10 4 10 6 0 11 -4 11 -10z m216 -11 c3 -6 2
-15 -4 -21 -6 -6 -11 -2 -15 11 -5 22 7 29 19 10z m-66 -57 c-1 -22 -28 -58
-37 -48 -4 4 -2 16 5 26 7 11 12 27 12 35 0 9 5 13 10 10 6 -3 10 -14 10 -23z
m-53 -8 c-3 -3 -12 -4 -19 -1 -8 3 -5 6 6 6 11 1 17 -2 13 -5z m-538 -46 c-2
-38 -14 -74 -22 -62 -8 14 3 84 14 84 5 0 9 -10 8 -22z m331 -9 c0 -10 -4 -19
-9 -19 -12 0 -23 29 -15 41 8 14 24 0 24 -22z m-350 -159 c-9 -6 -9 -13 -1
-28 8 -16 7 -21 -4 -26 -19 -7 -20 30 -3 71 9 23 12 25 16 9 2 -10 -1 -22 -8
-26z m245 -21 c12 -19 -5 -23 -22 -6 -16 16 -16 17 -1 17 9 0 20 -5 23 -11z
m-243 -127 c6 -28 -6 -95 -18 -99 -16 -5 -26 38 -12 54 7 9 6 19 -5 37 -9 13
-14 26 -11 29 10 10 42 -5 46 -21z m433 -12 c3 -5 2 -10 -4 -10 -5 0 -13 5
-16 10 -3 6 -2 10 4 10 5 0 13 -4 16 -10z m-547 -376 c58 -2 77 -7 87 -21 13
-17 14 -17 20 0 9 23 65 24 65 1 0 -19 -39 -53 -62 -54 -9 0 -20 -5 -24 -11
-4 -7 -23 -8 -51 -4 -63 9 -73 14 -73 36 0 22 -11 24 -28 7 -9 -9 -12 -9 -12
0 0 19 -43 32 -55 17 -18 -22 -43 -24 -61 -4 -22 24 -17 28 36 34 23 2 45 7
48 10 3 3 13 2 21 -1 9 -4 49 -9 89 -10z m-288 -70 c0 -31 -23 -28 -28 4 -2
15 2 22 12 22 11 0 16 -9 16 -26z m1453 -304 c22 -26 6 -26 -18 0 -10 11 -14
20 -9 20 5 0 17 -9 27 -20z"/>
<path d="M1630 1441 c0 -13 29 -35 37 -28 7 8 -15 37 -28 37 -5 0 -9 -4 -9 -9z"/>
<path d="M3928 6113 c12 -2 22 -9 22 -14 0 -5 7 -9 15 -9 8 0 15 7 15 15 0 11
-10 15 -37 14 -24 -1 -29 -3 -15 -6z"/>
<path d="M4525 6110 c3 -5 8 -10 11 -10 2 0 4 5 4 10 0 6 -5 10 -11 10 -5 0
-7 -4 -4 -10z"/>
<path d="M4909 6113 c26 -3 50 -11 58 -21 11 -15 12 -15 13 6 0 20 -4 22 -57
20 -53 -1 -54 -2 -14 -5z"/>
<path d="M5020 6109 c0 -19 20 -49 34 -49 7 0 21 -9 30 -19 18 -20 67 -23 99
-5 18 10 11 15 -94 63 -51 23 -69 26 -69 10z"/>
<path d="M4558 6103 c7 -3 16 -2 19 1 4 3 -2 6 -13 5 -11 0 -14 -3 -6 -6z"/>
<path d="M4110 6070 c0 -5 10 -10 23 -10 18 0 19 2 7 10 -19 13 -30 13 -30 0z"/>
<path d="M3942 6051 c4 -13 18 -16 19 -4 0 4 -5 9 -11 12 -7 2 -11 -2 -8 -8z"/>
<path d="M4045 5960 c-3 -5 1 -10 10 -10 9 0 13 5 10 10 -3 6 -8 10 -10 10 -2
0 -7 -4 -10 -10z"/>
<path d="M4112 5669 c2 -7 10 -15 17 -17 8 -3 12 1 9 9 -2 7 -10 15 -17 17 -8
3 -12 -1 -9 -9z"/>
<path d="M3299 5513 c-13 -16 -12 -17 4 -4 9 7 17 15 17 17 0 8 -8 3 -21 -13z"/>
<path d="M4530 5480 c0 -5 7 -10 16 -10 8 0 12 5 9 10 -3 6 -10 10 -16 10 -5
0 -9 -4 -9 -10z"/>
<path d="M4655 5480 c-9 -15 14 -40 35 -40 10 0 32 -12 49 -26 27 -22 34 -24
47 -13 14 12 14 15 -6 31 -12 10 -32 18 -45 18 -12 0 -30 9 -40 20 -20 22 -31
25 -40 10z"/>
<path d="M4960 5460 c0 -5 7 -10 16 -10 8 0 12 5 9 10 -3 6 -10 10 -16 10 -5
0 -9 -4 -9 -10z"/>
<path d="M5350 5461 c0 -11 31 -24 39 -16 3 3 -1 10 -9 15 -19 12 -30 12 -30
1z"/>
<path d="M4340 5450 c0 -5 5 -10 10 -10 6 0 10 5 10 10 0 6 -4 10 -10 10 -5 0
-10 -4 -10 -10z"/>
<path d="M5460 5436 c0 -20 33 -65 51 -71 33 -11 31 -2 -11 39 -22 21 -40 36
-40 32z"/>
<path d="M4472 5408 c5 -15 28 -18 29 -3 0 6 -7 12 -17 13 -10 3 -15 -1 -12
-10z"/>
<path d="M4694 5395 c-6 -14 3 -52 10 -44 2 2 6 16 10 32 7 29 -10 39 -20 12z"/>
<path d="M4296 5375 c18 -28 44 -33 44 -10 0 8 -9 15 -20 15 -11 0 -20 5 -20
10 0 6 -5 10 -10 10 -6 0 -3 -11 6 -25z"/>
<path d="M4980 5382 c0 -12 34 -42 48 -42 18 0 14 21 -5 36 -20 15 -43 18 -43
6z"/>
<path d="M3170 5369 c0 -5 5 -7 10 -4 6 3 10 8 10 11 0 2 -4 4 -10 4 -5 0 -10
-5 -10 -11z"/>
<path d="M5120 5370 c0 -5 7 -10 16 -10 8 0 12 5 9 10 -3 6 -10 10 -16 10 -5
0 -9 -4 -9 -10z"/>
<path d="M4560 5347 c0 -20 14 -34 38 -42 21 -6 23 -4 20 16 -3 24 -58 49 -58
26z"/>
<path d="M4850 5340 c-12 -8 -12 -10 3 -16 21 -8 35 2 21 16 -5 5 -15 6 -24 0z"/>
<path d="M4363 5304 c-7 -19 11 -39 26 -30 16 10 13 33 -4 40 -9 3 -18 -1 -22
-10z"/>
<path d="M4702 5304 c1 -9 9 -19 16 -22 9 -3 13 2 10 14 -1 9 -9 19 -16 22 -9
3 -13 -2 -10 -14z"/>
<path d="M5980 5310 c0 -5 5 -10 11 -10 5 0 7 5 4 10 -3 6 -8 10 -11 10 -2 0
-4 -4 -4 -10z"/>
<path d="M4105 5300 c3 -5 8 -10 11 -10 2 0 4 5 4 10 0 6 -5 10 -11 10 -5 0
-7 -4 -4 -10z"/>
<path d="M4500 5302 c0 -5 11 -26 25 -47 29 -42 27 -48 -12 -46 -106 5 -157
-2 -161 -22 -3 -13 4 -17 33 -17 27 0 42 -7 60 -27 13 -16 25 -35 25 -42 0
-12 3 -12 12 -3 9 9 9 18 0 37 -14 31 -1 39 53 33 23 -3 35 0 35 8 0 7 12 22
28 33 l27 20 -52 23 c-33 14 -52 27 -50 36 1 8 -4 17 -10 19 -7 3 -13 0 -13
-5z"/>
<path d="M5920 5290 c0 -5 5 -10 11 -10 5 0 7 5 4 10 -3 6 -8 10 -11 10 -2 0
-4 -4 -4 -10z"/>
<path d="M5614 5255 c10 -8 24 -11 29 -8 6 4 2 10 -9 14 -31 12 -40 9 -20 -6z"/>
<path d="M5330 5254 c2 -29 65 -94 93 -94 14 0 -24 61 -41 67 -9 3 -25 13 -34
21 -10 8 -18 11 -18 6z"/>
<path d="M6037 5244 c-8 -8 1 -24 14 -24 5 0 9 7 9 15 0 15 -12 20 -23 9z"/>
<path d="M5635 5210 c3 -5 8 -10 11 -10 2 0 4 5 4 10 0 6 -5 10 -11 10 -5 0
-7 -4 -4 -10z"/>
<path d="M5450 5201 c0 -6 5 -13 10 -16 6 -3 10 1 10 9 0 9 -4 16 -10 16 -5 0
-10 -4 -10 -9z"/>
<path d="M4310 5190 c0 -5 5 -10 10 -10 6 0 10 5 10 10 0 6 -4 10 -10 10 -5 0
-10 -4 -10 -10z"/>
<path d="M5061 5174 c0 -11 3 -14 6 -6 3 7 2 16 -1 19 -3 4 -6 -2 -5 -13z"/>
<path d="M6070 5181 c0 -6 4 -13 10 -16 6 -3 7 1 4 9 -7 18 -14 21 -14 7z"/>
<path d="M4855 5170 c-4 -6 0 -21 8 -33 21 -32 32 -87 17 -87 -10 0 -9 -4 0
-15 7 -8 20 -15 30 -15 9 0 25 -9 35 -20 19 -21 45 -27 45 -11 0 13 -55 67
-75 75 -13 5 -15 14 -11 44 5 31 2 40 -18 55 -16 11 -27 13 -31 7z"/>
<path d="M5562 5168 c3 -7 13 -15 24 -17 16 -3 17 -1 5 13 -16 19 -34 21 -29
4z"/>
<path d="M4940 5150 c-12 -7 -12 -10 3 -16 21 -8 29 -3 19 13 -5 8 -13 9 -22
3z"/>
<path d="M4277 5121 c20 -20 29 -24 31 -14 5 20 -17 43 -40 43 -17 0 -16 -3 9
-29z"/>
<path d="M5545 5130 c-3 -5 1 -10 10 -10 9 0 13 5 10 10 -3 6 -8 10 -10 10 -2
0 -7 -4 -10 -10z"/>
<path d="M6040 5120 c0 -5 10 -10 23 -10 18 0 19 2 7 10 -19 13 -30 13 -30 0z"/>
<path d="M4545 5100 c-4 -6 0 -19 8 -28 8 -9 13 -22 10 -28 -7 -20 32 -42 82
-46 52 -3 77 14 28 20 -30 4 -58 36 -58 67 0 15 -8 21 -32 23 -17 2 -34 -2
-38 -8z"/>
<path d="M6090 5083 c-14 -3 -32 -13 -40 -23 -18 -22 -76 -29 -107 -12 -15 8
-23 9 -23 2 0 -18 34 -50 53 -50 21 0 74 25 99 47 10 9 24 13 33 10 10 -5 15
0 15 13 0 11 -1 19 -2 19 -2 -1 -14 -4 -28 -6z"/>
<path d="M4802 5053 c-7 -13 -4 -27 9 -48 11 -16 19 -25 20 -20 0 6 2 27 4 48
4 40 -16 53 -33 20z"/>
<path d="M4376 4988 c-14 -20 -14 -23 -1 -31 11 -6 23 -1 40 15 31 29 31 38 1
38 -14 0 -32 -10 -40 -22z"/>
<path d="M4330 4980 c0 -5 5 -10 11 -10 5 0 7 5 4 10 -3 6 -8 10 -11 10 -2 0
-4 -4 -4 -10z"/>
<path d="M4820 4956 c0 -8 11 -17 25 -20 14 -4 25 -11 25 -16 0 -6 5 -10 10
-10 21 0 9 19 -25 39 -26 15 -35 17 -35 7z"/>
<path d="M2545 4950 c3 -5 8 -10 11 -10 2 0 4 5 4 10 0 6 -5 10 -11 10 -5 0
-7 -4 -4 -10z"/>
<path d="M2508 4923 c7 -3 16 -2 19 1 4 3 -2 6 -13 5 -11 0 -14 -3 -6 -6z"/>
<path d="M4966 4904 c-4 -10 -1 -14 6 -12 15 5 23 28 10 28 -5 0 -13 -7 -16
-16z"/>
<path d="M4705 4890 c-3 -5 1 -13 10 -16 22 -9 29 1 11 15 -10 8 -16 9 -21 1z"/>
<path d="M4890 4886 c0 -8 10 -22 22 -31 21 -14 23 -14 29 2 4 12 -1 22 -15
30 -28 16 -36 16 -36 -1z"/>
<path d="M6079 4880 c-11 -7 -10 -13 5 -29 25 -27 36 -26 36 3 0 26 -19 39
-41 26z"/>
<path d="M2600 4825 c0 -8 5 -15 10 -15 6 0 10 7 10 15 0 8 -4 15 -10 15 -5 0
-10 -7 -10 -15z"/>
<path d="M4420 4830 c0 -5 5 -10 10 -10 6 0 10 5 10 10 0 6 -4 10 -10 10 -5 0
-10 -4 -10 -10z"/>
<path d="M2700 4480 c0 -19 3 -21 12 -12 9 9 9 15 0 24 -9 9 -12 7 -12 -12z"/>
<path d="M4610 4471 c0 -11 4 -21 9 -21 18 0 21 18 6 30 -13 10 -15 9 -15 -9z"/>
<path d="M5400 4464 c0 -6 7 -14 15 -18 8 -3 15 -10 15 -16 0 -7 -19 -9 -60
-4 -42 5 -60 3 -60 -5 0 -6 8 -11 18 -11 10 0 35 -9 57 -20 22 -11 52 -20 67
-20 15 0 30 -4 33 -10 10 -17 21 -11 33 15 17 36 15 43 -10 47 -13 2 -27 13
-33 25 -10 24 -75 39 -75 17z"/>
<path d="M5232 4459 c2 -7 10 -15 17 -17 8 -3 12 1 9 9 -2 7 -10 15 -17 17 -8
3 -12 -1 -9 -9z"/>
<path d="M4496 4446 c7 -17 68 -66 82 -66 6 0 13 -7 16 -16 5 -13 1 -15 -19
-12 -16 4 -24 1 -22 -6 2 -6 14 -13 28 -14 13 -2 29 -8 36 -14 7 -5 21 -7 33
-3 24 8 50 -10 50 -33 0 -9 10 -30 22 -48 21 -31 26 -33 85 -33 35 0 74 -6 91
-15 26 -14 30 -13 45 5 17 19 68 25 115 13 18 -5 22 -13 22 -45 0 -28 4 -39
15 -39 18 0 20 31 4 47 -18 18 7 70 37 77 32 8 31 34 -2 47 -22 8 -29 6 -41
-11 -8 -11 -22 -20 -32 -20 -10 0 -21 -3 -25 -7 -4 -4 -34 -13 -67 -20 -57
-11 -61 -11 -95 12 -28 19 -40 22 -61 14 -21 -8 -26 -6 -30 11 -3 11 -14 20
-23 20 -19 0 -36 33 -25 50 3 6 25 2 56 -10 27 -11 55 -20 62 -20 21 1 -52 59
-80 65 -16 3 -40 9 -54 14 -35 11 -58 -1 -40 -22 9 -12 9 -17 0 -23 -7 -4 -17
-1 -23 7 -6 8 -25 21 -43 28 -18 7 -35 22 -38 32 -4 10 -12 19 -19 19 -8 0
-19 7 -26 15 -16 19 -41 20 -34 1z"/>
<path d="M5096 4451 c-3 -5 1 -11 9 -15 9 -3 15 0 15 9 0 16 -16 20 -24 6z"/>
<path d="M5970 4428 c0 -8 16 -28 35 -45 41 -36 43 -48 13 -57 -23 -6 -23 -7
-3 -21 11 -9 26 -13 33 -10 8 3 27 5 43 5 27 0 29 3 29 35 0 23 -5 35 -14 35
-8 0 -12 7 -10 18 2 9 0 23 -5 31 -8 12 -14 12 -39 2 -26 -11 -34 -10 -56 4
-21 14 -26 15 -26 3z"/>
<path d="M4956 4414 c-8 -22 1 -34 26 -34 17 0 19 -4 14 -25 -6 -23 -4 -25 31
-25 l38 1 -27 15 c-16 8 -28 23 -28 34 0 31 -11 50 -30 50 -10 0 -21 -7 -24
-16z"/>
<path d="M5170 4414 c0 -21 18 -54 30 -54 14 0 12 44 -2 58 -17 17 -28 15 -28
-4z"/>
<path d="M5831 4403 c-8 -15 -12 -16 -35 -3 -22 11 -30 11 -51 0 -25 -13 -25
-30 -1 -30 8 0 26 -6 40 -14 23 -12 91 -14 102 -3 6 6 -26 67 -36 67 -5 0 -13
-8 -19 -17z"/>
<path d="M5950 4390 c0 -5 5 -10 11 -10 5 0 7 5 4 10 -3 6 -8 10 -11 10 -2 0
-4 -4 -4 -10z"/>
<path d="M5120 4370 c0 -5 5 -10 10 -10 6 0 10 5 10 10 0 6 -4 10 -10 10 -5 0
-10 -4 -10 -10z"/>
<path d="M5285 4370 c28 -12 67 -12 60 0 -3 6 -23 10 -43 9 -30 0 -33 -2 -17
-9z"/>
<path d="M5590 4360 c0 -5 -7 -10 -15 -10 -8 0 -15 -4 -15 -10 0 -5 7 -10 16
-10 8 0 22 -7 31 -15 21 -22 25 -14 12 23 -10 30 -29 44 -29 22z"/>
<path d="M5200 4324 c-12 -30 -13 -54 -2 -55 44 -8 92 -5 92 5 0 15 -56 76
-70 76 -6 0 -15 -12 -20 -26z"/>
<path d="M5895 4319 c-4 -6 -24 -9 -45 -8 -21 2 -45 -2 -53 -9 -8 -7 -22 -10
-31 -6 -11 4 -16 1 -16 -10 0 -9 21 -26 51 -41 l51 -24 -6 30 -6 29 60 -3 c63
-4 88 8 76 38 -6 17 -71 21 -81 4z"/>
<path d="M5310 4313 c1 -15 35 -78 59 -111 16 -20 31 -30 41 -27 9 3 25 -2 36
-10 10 -8 28 -15 39 -15 11 0 31 -7 43 -16 13 -9 47 -16 82 -18 55 -2 62 -4
84 -35 14 -18 22 -39 19 -47 -12 -32 18 -11 36 25 11 21 30 41 41 44 21 5 20
7 -12 41 -37 39 -59 34 -40 -9 17 -37 15 -47 -10 -43 -17 2 -23 10 -24 28 -2
46 -4 50 -20 50 -9 0 -22 -7 -29 -16 -16 -23 -58 -10 -50 16 4 12 -2 27 -14
39 -12 12 -21 29 -21 40 0 10 -6 24 -14 30 -12 10 -17 8 -26 -9 -9 -17 -8 -26
4 -45 22 -34 20 -45 -9 -45 -24 0 -28 5 -41 48 -3 10 -8 10 -23 0 -15 -9 -24
-8 -45 5 -14 9 -33 17 -41 17 -12 0 -15 6 -10 20 4 12 1 27 -5 35 -13 15 -50
21 -50 8z"/>
<path d="M4907 4280 c9 -16 21 -30 25 -30 15 0 8 48 -8 54 -31 12 -35 6 -17
-24z"/>
<path d="M5650 4291 c0 -12 29 -23 42 -15 6 4 5 10 -3 15 -18 11 -39 11 -39 0z"/>
<path d="M4995 4280 c-3 -6 1 -13 10 -16 19 -8 30 0 20 15 -8 14 -22 14 -30 1z"/>
<path d="M2600 4265 c-19 -22 -8 -25 13 -3 9 10 13 18 8 18 -5 0 -14 -7 -21
-15z"/>
<path d="M4504 4256 c-10 -43 4 -63 56 -80 27 -9 61 -16 77 -16 32 0 44 -7 59
-35 12 -21 54 -34 54 -15 0 6 -11 16 -25 22 -20 9 -25 19 -25 46 0 29 -2 32
-14 23 -12 -10 -20 -9 -40 4 -13 9 -33 16 -43 15 -32 -4 -43 0 -43 13 0 14
-31 47 -43 47 -4 0 -9 -11 -13 -24z"/>
<path d="M5460 4271 c0 -5 5 -13 10 -16 6 -3 10 -2 10 4 0 5 -4 13 -10 16 -5
3 -10 2 -10 -4z"/>
<path d="M5677 4236 c-15 -12 -10 -15 43 -25 32 -7 62 -17 66 -22 3 -6 22 -17
41 -25 40 -17 52 -40 29 -57 -16 -12 -12 -57 5 -57 4 0 19 -11 33 -25 14 -14
34 -25 46 -25 26 0 25 7 -1 29 -30 24 -33 99 -5 122 23 19 46 14 46 -9 0 -12
3 -13 11 -5 7 7 8 24 4 42 -7 31 -19 39 -30 21 -9 -14 -31 -12 -48 5 -13 13
-16 13 -21 -1 -5 -13 -9 -14 -20 -5 -8 6 -38 13 -68 15 -30 1 -65 10 -79 19
-28 20 -29 20 -52 3z"/>
<path d="M5277 4233 c-16 -15 -5 -33 28 -49 46 -21 54 -13 24 25 -24 30 -40
37 -52 24z"/>
<path d="M5190 4186 c0 -8 14 -26 30 -39 18 -16 30 -35 30 -50 0 -29 29 -57
58 -57 11 0 24 -5 27 -10 4 -6 11 -7 17 -4 7 4 5 10 -6 16 -9 5 -16 22 -16 38
0 18 -7 33 -19 39 -10 6 -22 22 -25 36 -5 21 -11 24 -30 19 -16 -4 -25 -1 -29
10 -8 20 -37 21 -37 2z"/>
<path d="M6085 4170 c-3 -6 1 -17 10 -26 19 -19 12 -32 -9 -15 -8 7 -25 9 -40
5 l-26 -6 19 -27 c10 -14 33 -31 50 -38 l31 -11 0 64 c0 49 -3 64 -14 64 -8 0
-18 -5 -21 -10z"/>
<path d="M4790 4134 c0 -20 4 -24 19 -19 11 3 22 1 26 -5 3 -5 15 -10 26 -10
30 0 17 24 -14 28 -15 2 -27 7 -27 12 0 4 -7 10 -15 14 -11 4 -15 -2 -15 -20z"/>
<path d="M4485 4130 c-3 -5 1 -10 10 -10 9 0 13 5 10 10 -3 6 -8 10 -10 10 -2
0 -7 -4 -10 -10z"/>
<path d="M5940 4120 c0 -5 7 -10 16 -10 8 0 12 5 9 10 -3 6 -10 10 -16 10 -5
0 -9 -4 -9 -10z"/>
<path d="M4900 4104 c0 -29 21 -54 45 -54 15 0 31 -11 45 -30 26 -36 45 -39
36 -6 -3 14 -2 28 4 31 17 10 -8 45 -33 45 -12 0 -31 7 -41 15 -26 20 -56 19
-56 -1z"/>
<path d="M4601 4096 c-9 -11 -3 -22 34 -52 32 -26 49 -34 56 -27 14 14 2 53
-15 53 -7 0 -25 9 -39 20 -21 17 -27 18 -36 6z"/>
<path d="M5116 4081 c-3 -4 5 -21 18 -36 20 -23 28 -26 56 -20 40 9 33 -10 -7
-20 -15 -3 -37 -17 -50 -29 l-23 -23 24 -31 23 -32 11 25 c9 20 8 26 -6 35
-15 8 -15 11 -2 20 20 13 63 13 78 -2 8 -8 15 -8 25 0 11 10 20 8 40 -8 14
-11 31 -20 38 -20 10 0 10 -3 1 -12 -20 -20 -14 -26 20 -19 37 8 57 33 41 53
-11 12 -56 28 -125 43 -19 4 -28 12 -28 25 0 38 -115 82 -134 51z"/>
<path d="M5490 4070 c10 -19 40 -28 40 -12 0 13 -23 32 -37 32 -11 0 -11 -5
-3 -20z"/>
<path d="M5964 4072 c-19 -29 10 -57 53 -53 16 1 5 31 -20 54 -24 21 -20 21
-33 -1z"/>
<path d="M5390 4063 c0 -5 7 -18 15 -29 15 -18 15 -18 13 5 -3 23 -28 44 -28
24z"/>
<path d="M5570 4056 c0 -16 19 -25 38 -19 10 4 8 9 -5 19 -23 17 -33 17 -33 0z"/>
<path d="M5776 4062 c-9 -15 6 -52 21 -52 10 0 13 9 11 27 -3 27 -22 42 -32
25z"/>
<path d="M4840 4041 c0 -9 60 -61 71 -61 13 0 19 17 13 34 -3 9 -14 16 -24 16
-11 0 -22 5 -25 10 -8 12 -35 13 -35 1z"/>
<path d="M5057 4030 c7 -26 34 -41 54 -30 12 8 12 11 -1 24 -8 7 -25 17 -37
20 -18 6 -20 4 -16 -14z"/>
<path d="M5644 4019 c3 -17 6 -35 6 -40 0 -5 5 -9 11 -9 5 0 9 8 7 18 -1 9 1
23 6 31 5 8 3 16 -5 22 -25 16 -32 10 -25 -22z"/>
<path d="M4520 4022 c0 -10 11 -24 25 -30 15 -7 22 -17 19 -26 -7 -19 5 -25
68 -30 72 -6 168 -70 168 -113 0 -9 13 -13 39 -13 22 0 46 -3 55 -6 28 -11 18
21 -14 44 -16 12 -33 22 -37 22 -12 0 -34 38 -25 44 6 3 111 2 135 -3 4 0 5
-12 1 -25 -3 -13 -1 -27 5 -30 6 -4 11 -16 11 -26 0 -11 12 -25 27 -32 32 -15
47 -59 28 -84 -11 -15 -16 -16 -44 -5 -32 14 -39 25 -20 36 7 5 4 14 -7 26
-21 23 -37 24 -55 3 -10 -12 -10 -20 -1 -35 19 -31 14 -40 -19 -37 -33 3 -38
9 -61 66 -15 36 -28 42 -28 12 0 -18 -4 -20 -42 -14 -53 8 -68 19 -65 47 2 19
-2 22 -31 19 -21 -2 -41 3 -52 13 -22 20 -90 32 -90 16 0 -6 11 -11 25 -11 19
0 25 -5 25 -20 0 -12 12 -33 26 -47 15 -15 30 -38 33 -52 8 -27 26 -34 121
-50 25 -4 55 -12 67 -19 16 -9 30 -9 60 2 33 11 43 11 70 -2 25 -12 38 -13 55
-4 39 18 66 23 73 12 8 -12 68 -13 81 -1 15 15 117 17 122 3 2 -7 13 -17 25
-24 20 -10 21 -10 9 5 -30 36 23 52 59 16 11 -11 28 -18 37 -15 30 9 86 8 130
-3 56 -15 152 -23 152 -13 0 4 17 8 38 8 64 3 104 11 111 23 5 8 18 10 35 5
16 -4 37 -1 51 6 20 11 28 10 50 -4 14 -9 25 -21 25 -26 0 -6 7 -10 16 -10 10
0 14 5 10 15 -3 8 -9 21 -12 29 -3 8 3 16 16 19 23 6 44 -19 55 -65 4 -16 12
-28 17 -28 6 0 8 9 5 20 -3 13 0 20 9 20 18 0 17 167 -2 194 -7 10 -10 24 -8
31 8 19 -12 27 -28 13 -20 -20 -52 -16 -57 7 -4 25 -21 36 -43 29 -13 -4 -16
-1 -12 10 6 15 -32 43 -44 32 -8 -8 19 -56 32 -56 18 -1 58 -39 51 -49 -3 -6
5 -13 17 -16 31 -8 53 -57 38 -85 -14 -27 -33 -15 -26 16 7 27 -12 41 -40 30
-13 -5 -14 -9 -5 -20 9 -10 9 -16 1 -21 -12 -7 -89 72 -90 92 0 23 -21 24 -45
1 -14 -13 -25 -30 -25 -39 0 -9 -10 -19 -22 -23 -18 -4 -20 -8 -10 -18 9 -9
19 -10 40 -2 15 6 37 7 47 3 11 -4 32 -10 48 -13 16 -4 27 -13 27 -22 0 -13
-7 -15 -36 -10 -21 5 -41 3 -49 -4 -9 -8 -15 -8 -20 0 -10 16 -22 12 -28 -10
-5 -18 -11 -20 -54 -14 -26 4 -60 6 -76 7 -21 0 -26 4 -22 17 3 9 -3 24 -15
35 -11 10 -20 22 -20 27 0 12 80 0 98 -14 8 -7 17 -7 26 1 12 10 12 16 -2 41
-9 16 -30 35 -47 42 -16 6 -33 17 -37 22 -5 7 -11 7 -20 -2 -17 -17 -45 -15
-52 3 -3 9 -18 15 -36 15 -23 0 -30 4 -30 20 0 14 7 20 23 20 21 1 57 21 57
33 0 3 -26 8 -57 12 -32 3 -66 10 -75 15 -47 26 -46 -18 1 -57 19 -15 26 -31
26 -55 0 -33 0 -33 47 -33 54 0 84 -20 55 -36 -21 -12 -16 -52 9 -80 23 -26
10 -39 -34 -32 -49 8 -92 30 -92 48 0 8 -11 17 -24 21 -13 3 -28 16 -35 30 -6
13 -19 24 -30 24 -11 0 -24 6 -28 13 -25 38 -116 60 -128 30 -8 -22 -1 -28 47
-42 67 -20 136 -54 142 -71 3 -8 9 -21 12 -27 10 -23 -21 -14 -62 17 -42 32
-60 37 -66 19 -3 -9 -13 -9 -41 0 -29 10 -38 19 -46 47 -5 18 -16 41 -24 49
-17 16 -32 20 -23 6 9 -14 -16 -29 -53 -33 -19 -2 -36 -8 -38 -15 -6 -17 32
-25 61 -12 31 14 60 -3 51 -32 -4 -11 1 -21 11 -27 12 -7 3 -11 -37 -14 -48
-5 -58 -3 -90 23 -29 23 -35 33 -31 57 4 31 -27 72 -55 72 -23 0 -14 18 12 24
27 7 33 27 13 43 -20 16 -66 24 -73 13 -3 -5 -14 -10 -25 -10 -10 0 -21 -7
-24 -16 -5 -14 -10 -13 -38 4 -23 14 -44 18 -71 15 -22 -3 -43 0 -53 8 -13 10
-17 10 -24 -1 -14 -22 -109 -6 -134 24 -12 13 -31 29 -43 35 -20 10 -23 9 -23
-7z m280 -133 c0 -5 -4 -9 -10 -9 -5 0 -10 7 -10 16 0 8 5 12 10 9 6 -3 10
-10 10 -16z m30 -39 c0 -5 -2 -10 -4 -10 -3 0 -8 5 -11 10 -3 6 -1 10 4 10 6
0 11 -4 11 -10z m-65 -129 c10 -17 -11 -21 -31 -6 -18 14 -18 14 3 15 12 0 24
-4 28 -9z"/>
<path d="M4724 4029 c-9 -15 11 -33 30 -26 9 4 13 13 10 22 -7 17 -30 20 -40
4z"/>
<path d="M4468 3956 c-1 -31 -4 -57 -8 -66 -7 -22 -9 -101 -2 -96 11 6 35 -60
27 -74 -3 -6 -17 -7 -29 -4 -20 5 -24 1 -28 -25 -3 -17 -1 -31 4 -31 4 0 8 4
8 10 0 9 48 21 100 25 66 5 63 2 38 35 -22 30 -23 30 -30 10 -14 -37 -33 -16
-36 39 -2 38 -8 55 -23 64 -10 6 -19 17 -19 23 0 16 30 39 51 39 10 0 19 3 19
8 1 35 -5 44 -35 58 l-35 16 -2 -31z"/>
<path d="M5766 3982 c-3 -5 8 -22 24 -37 22 -21 33 -26 41 -18 8 8 3 18 -18
37 -30 28 -39 31 -47 18z"/>
<path d="M5986 3972 c-13 -12 -5 -23 17 -21 36 3 81 -12 99 -35 17 -21 18 -21
18 10 0 21 -6 34 -17 39 -23 9 -110 15 -117 7z"/>
<path d="M5070 3960 c-12 -7 -12 -12 -2 -22 9 -9 15 -9 24 0 16 16 -2 34 -22
22z"/>
<path d="M5646 3921 c-4 -7 -5 -15 -2 -18 9 -9 19 4 14 18 -4 11 -6 11 -12 0z"/>
<path d="M5430 3896 c0 -17 14 -29 23 -20 8 8 -3 34 -14 34 -5 0 -9 -6 -9 -14z"/>
<path d="M5480 3810 c0 -5 7 -10 16 -10 8 0 12 5 9 10 -3 6 -10 10 -16 10 -5
0 -9 -4 -9 -10z"/>
<path d="M3190 3717 c0 -20 -16 -23 -24 -4 -3 6 -3 -1 0 -18 4 -16 6 -40 5
-53 0 -15 15 -38 44 -68 l45 -45 -20 -38 c-18 -36 -18 -41 -4 -71 17 -34 32
-42 73 -45 28 -1 44 -35 17 -35 -9 0 -16 -3 -16 -7 0 -11 20 -40 20 -30 0 4 9
-2 20 -13 11 -11 31 -20 45 -20 14 0 42 -7 63 -16 20 -9 57 -22 82 -30 25 -7
45 -14 45 -14 0 0 1 11 1 24 1 15 -5 27 -15 30 -9 3 -4 4 12 2 21 -2 27 1 27
15 0 15 8 19 40 19 27 0 43 5 46 15 4 10 13 13 25 10 22 -7 28 20 7 28 -8 4
-7 6 3 6 9 1 20 -6 23 -15 6 -17 31 -14 31 3 0 19 14 26 27 16 7 -6 35 -9 61
-8 38 2 51 -2 60 -16 14 -23 42 -26 33 -4 -4 12 -2 13 13 6 16 -9 19 -7 19 17
0 15 -11 46 -24 68 -13 23 -21 44 -17 47 3 4 -1 9 -9 12 -10 4 -13 15 -10 32
4 22 2 24 -17 18 -15 -4 -21 -2 -21 9 0 10 7 13 25 10 23 -4 22 -1 -14 32 -22
19 -44 33 -49 30 -6 -3 -36 8 -68 24 -38 19 -62 26 -68 20 -14 -14 -26 -12
-20 4 3 8 -4 16 -18 20 -32 8 -38 8 -38 -4 0 -5 8 -10 17 -10 9 0 14 -3 10 -6
-11 -12 -49 8 -43 23 5 11 1 13 -15 8 -14 -5 -19 -3 -15 3 3 6 -2 8 -13 5 -10
-3 -22 0 -25 6 -4 6 -16 11 -27 11 -11 0 -18 -4 -15 -9 3 -5 -33 -8 -82 -8
-48 1 -117 -6 -154 -15 -61 -14 -67 -14 -74 1 -4 9 -8 19 -8 23 -2 15 -16 20
-16 5z"/>
<path d="M4643 3498 c-6 -9 4 -26 30 -53 l39 -40 -5 38 c-9 59 -41 86 -64 55z"/>
<path d="M5124 3425 c-7 -18 3 -35 21 -35 21 0 28 19 15 35 -16 19 -29 19 -36
0z"/>
<path d="M5220 3421 c0 -6 5 -13 10 -16 6 -3 10 1 10 9 0 9 -4 16 -10 16 -5 0
-10 -4 -10 -9z"/>
<path d="M4796 3368 c-12 -45 -7 -75 14 -81 17 -4 19 0 19 32 -1 68 -20 96
-33 49z"/>
<path d="M5114 3336 c-8 -22 3 -33 18 -18 9 9 9 15 0 24 -9 9 -13 7 -18 -6z"/>
<path d="M5210 3335 c0 -8 5 -15 10 -15 6 0 10 7 10 15 0 8 -4 15 -10 15 -5 0
-10 -7 -10 -15z"/>
<path d="M5276 3322 c-3 -6 -1 -14 5 -17 15 -10 25 3 12 16 -7 7 -13 7 -17 1z"/>
<path d="M5410 3301 c0 -12 29 -35 36 -28 11 10 -5 37 -21 37 -8 0 -15 -4 -15
-9z"/>
<path d="M5113 3255 c7 -45 13 -53 29 -37 9 9 9 12 0 12 -7 0 -12 11 -12 24 0
14 -5 28 -12 32 -8 5 -9 -3 -5 -31z"/>
<path d="M3620 3269 c0 -5 5 -7 10 -4 6 3 10 8 10 11 0 2 -4 4 -10 4 -5 0 -10
-5 -10 -11z"/>
<path d="M5252 3269 c2 -7 10 -15 17 -17 8 -3 12 1 9 9 -2 7 -10 15 -17 17 -8
3 -12 -1 -9 -9z"/>
<path d="M5350 3257 c0 -16 8 -30 20 -37 17 -9 20 -8 20 8 0 10 -9 27 -20 37
-20 18 -20 17 -20 -8z"/>
<path d="M4772 3230 c0 -14 2 -19 5 -12 2 6 2 18 0 25 -3 6 -5 1 -5 -13z"/>
<path d="M5680 3195 c7 -8 16 -15 21 -15 5 0 6 7 3 15 -4 8 -13 15 -21 15 -13
0 -13 -3 -3 -15z"/>
<path d="M5130 3172 c0 -13 -5 -32 -10 -43 -8 -13 -7 -19 0 -19 19 0 33 46 21
66 -10 18 -10 17 -11 -4z"/>
<path d="M5790 3160 c0 -5 5 -10 10 -10 6 0 10 5 10 10 0 6 -4 10 -10 10 -5 0
-10 -4 -10 -10z"/>
<path d="M5714 3135 c9 -14 23 -36 32 -50 9 -14 23 -25 30 -25 29 0 -40 99
-70 100 -4 0 -1 -11 8 -25z"/>
<path d="M5972 3128 c6 -18 28 -21 28 -4 0 9 -7 16 -16 16 -9 0 -14 -5 -12
-12z"/>
<path d="M5375 3121 c-3 -5 -1 -12 5 -16 5 -3 10 1 10 9 0 18 -6 21 -15 7z"/>
<path d="M5475 3100 c-10 -17 12 -37 25 -24 8 8 6 15 -4 23 -10 9 -16 9 -21 1z"/>
<path d="M4820 3085 c0 -8 7 -15 16 -15 14 0 14 3 4 15 -7 8 -14 15 -16 15 -2
0 -4 -7 -4 -15z"/>
<path d="M5113 3000 c4 -110 21 -151 30 -78 9 66 -7 178 -25 178 -6 0 -8 -40
-5 -100z"/>
<path d="M5810 3070 c0 -6 7 -10 15 -10 8 0 15 2 15 4 0 2 -7 6 -15 10 -8 3
-15 1 -15 -4z"/>
<path d="M4495 3001 c0 -31 -2 -64 -5 -73 -3 -9 -1 -18 5 -20 5 -2 13 11 16
27 4 17 7 24 8 17 2 -19 38 3 46 29 8 25 -2 72 -15 64 -5 -3 -11 -1 -15 4 -3
5 -13 9 -23 8 -14 -1 -17 -11 -17 -56z"/>
<path d="M4714 3026 c-7 -30 -2 -56 11 -59 12 -2 16 71 4 79 -5 3 -11 -6 -15
-20z"/>
<path d="M5690 3031 c0 -18 71 -62 108 -68 l37 -5 -30 21 c-16 11 -37 21 -45
21 -9 0 -23 9 -33 20 -17 21 -37 27 -37 11z"/>
<path d="M4352 3008 c2 -5 8 -9 13 -9 5 0 11 4 13 9 1 5 -4 9 -13 9 -9 0 -14
-4 -13 -9z"/>
<path d="M4452 2995 c0 -16 2 -22 5 -12 2 9 2 23 0 30 -3 6 -5 -1 -5 -18z"/>
<path d="M4810 3011 c0 -12 48 -27 57 -17 9 8 2 13 -30 21 -17 5 -27 3 -27 -4z"/>
<path d="M4350 2965 c0 -8 2 -15 4 -15 2 0 6 7 10 15 3 8 1 15 -4 15 -6 0 -10
-7 -10 -15z"/>
<path d="M5226 2914 c-3 -8 1 -14 9 -14 20 0 28 17 11 23 -8 3 -17 -1 -20 -9z"/>
<path d="M4835 2911 c-3 -5 4 -13 16 -16 23 -8 34 -1 24 14 -8 13 -32 14 -40
2z"/>
<path d="M5836 2906 c3 -9 1 -23 -5 -30 -16 -19 5 -32 25 -15 19 16 14 53 -8
57 -13 2 -16 -1 -12 -12z"/>
<path d="M4685 2859 c-10 -30 0 -33 13 -4 6 14 7 25 2 25 -5 0 -12 -9 -15 -21z"/>
<path d="M5700 2870 c0 -5 5 -10 10 -10 6 0 10 5 10 10 0 6 -4 10 -10 10 -5 0
-10 -4 -10 -10z"/>
<path d="M4760 2855 c0 -8 6 -15 13 -15 14 0 38 -128 26 -136 -14 -8 -78 31
-88 54 -17 36 -50 25 -81 -28 -15 -25 -30 -57 -34 -72 -6 -25 -3 -27 37 -34
61 -10 106 -7 133 11 13 8 29 15 37 15 22 0 61 60 48 73 -6 6 -11 21 -11 34 0
13 -8 31 -17 41 -10 9 -24 30 -30 45 -14 29 -33 36 -33 12z"/>
<path d="M5122 2858 c-7 -7 -12 -18 -12 -25 0 -8 -11 -18 -25 -23 -31 -12 -32
-28 -3 -32 16 -2 25 -15 37 -56 l16 -53 35 6 c50 9 57 21 20 34 -27 9 -31 15
-27 33 4 15 -1 30 -15 46 -19 19 -20 26 -10 42 21 35 10 54 -16 28z"/>
<path d="M4280 2780 c0 -38 13 -54 23 -27 7 20 6 32 -5 29 -5 -1 -7 6 -3 18 4
11 2 20 -4 20 -6 0 -11 -18 -11 -40z"/>
<path d="M5756 2805 c4 -8 10 -12 15 -9 11 6 2 24 -11 24 -5 0 -7 -7 -4 -15z"/>
<path d="M5497 2784 c-3 -3 -2 -14 3 -23 5 -9 11 -24 14 -35 5 -14 14 -17 43
-14 22 3 57 -3 86 -14 30 -12 54 -15 64 -10 9 6 30 4 52 -4 47 -16 219 -25
227 -12 4 5 18 7 33 3 14 -3 43 -10 64 -14 l37 -8 0 43 c0 57 -8 74 -35 74
-17 0 -25 -7 -27 -22 -2 -19 -10 -24 -40 -26 -29 -2 -38 0 -38 12 0 9 -4 16
-10 16 -5 0 -10 -7 -10 -15 0 -22 -14 -18 -25 8 -15 34 -40 28 -38 -8 2 -30 1
-31 -35 -27 -20 2 -45 11 -55 20 -14 12 -22 13 -43 4 -43 -20 -83 -15 -95 12
-14 31 -54 42 -75 22 -15 -15 -52 -9 -80 14 -6 6 -14 7 -17 4z"/>
<path d="M5246 2737 c9 -24 84 -52 173 -63 48 -6 53 -5 49 12 -4 22 -62 45
-121 49 -21 2 -53 6 -72 9 -27 5 -34 4 -29 -7z"/>
<path d="M3191 2609 c-40 -24 -32 -33 37 -42 31 -4 48 -1 64 13 l22 17 -32 17
c-40 21 -50 20 -91 -5z"/>
<path d="M3462 2614 c-14 -26 5 -69 47 -108 l31 -30 0 27 c0 14 -4 29 -10 32
-5 3 -10 17 -10 31 0 15 -6 24 -15 24 -9 0 -19 10 -24 22 -8 22 -8 22 -19 2z"/>
<path d="M5475 2470 c-3 -5 1 -10 10 -10 9 0 13 5 10 10 -3 6 -8 10 -10 10 -2
0 -7 -4 -10 -10z"/>
<path d="M4517 2438 c21 -37 41 -46 49 -23 8 20 -23 55 -48 55 -19 0 -19 -1
-1 -32z"/>
<path d="M4700 2465 c0 -9 40 -45 50 -45 18 0 10 17 -15 34 -25 17 -35 20 -35
11z"/>
<path d="M4888 2448 c-2 -16 -12 -24 -33 -28 -29 -6 -30 -6 -8 -18 12 -7 28
-12 35 -12 16 0 39 47 31 66 -8 21 -21 17 -25 -8z"/>
<path d="M5362 2458 c5 -15 28 -18 29 -3 0 6 -7 12 -17 13 -10 3 -15 -1 -12
-10z"/>
<path d="M5110 2456 c0 -2 7 -6 15 -10 8 -3 15 -1 15 4 0 6 -7 10 -15 10 -8 0
-15 -2 -15 -4z"/>
<path d="M5750 2446 c0 -9 5 -16 10 -16 6 0 10 4 10 9 0 6 -4 13 -10 16 -5 3
-10 -1 -10 -9z"/>
<path d="M5218 2416 c-17 -22 -18 -30 -7 -36 16 -11 36 0 72 37 l27 30 -36 -1
c-28 -1 -41 -8 -56 -30z"/>
<path d="M3386 2427 c3 -10 9 -15 12 -12 3 3 0 11 -7 18 -10 9 -11 8 -5 -6z"/>
<path d="M6062 2419 c2 -7 10 -15 17 -17 8 -3 12 1 9 9 -2 7 -10 15 -17 17 -8
3 -12 -1 -9 -9z"/>
<path d="M4940 2387 c0 -8 7 -18 16 -21 11 -4 14 -1 12 11 -4 21 -28 30 -28
10z"/>
<path d="M5795 2390 c3 -5 13 -10 21 -10 8 0 12 5 9 10 -3 6 -13 10 -21 10 -8
0 -12 -4 -9 -10z"/>
<path d="M5840 2395 c0 -8 64 -64 73 -65 4 0 7 7 7 15 0 8 -9 15 -20 15 -10 0
-24 9 -30 20 -10 18 -30 28 -30 15z"/>
<path d="M6090 2371 c0 -5 7 -14 15 -21 13 -10 15 -9 15 9 0 12 -6 21 -15 21
-8 0 -15 -4 -15 -9z"/>
<path d="M4835 2359 c-4 -6 -1 -15 6 -20 21 -13 31 -11 27 8 -4 20 -24 28 -33
12z"/>
<path d="M4722 2339 c2 -6 8 -10 13 -10 5 0 11 4 13 10 2 6 -4 11 -13 11 -9 0
-15 -5 -13 -11z"/>
<path d="M5159 2343 c-1 -5 0 -16 1 -26 1 -10 -3 -24 -9 -31 -8 -9 -7 -13 2
-13 6 0 26 -3 44 -7 19 -4 34 -3 38 3 3 6 17 11 31 11 21 0 24 -4 22 -32 l-3
-31 98 -4 c53 -2 97 0 97 5 0 23 -38 40 -92 39 -43 0 -63 5 -83 22 -15 11 -34
21 -42 21 -8 0 -26 11 -41 25 -26 24 -61 34 -63 18z"/>
<path d="M5335 2340 c3 -5 8 -10 11 -10 2 0 4 5 4 10 0 6 -5 10 -11 10 -5 0
-7 -4 -4 -10z"/>
<path d="M5775 2340 c-3 -5 -1 -10 4 -10 6 0 11 5 11 10 0 6 -2 10 -4 10 -3 0
-8 -4 -11 -10z"/>
<path d="M3470 2331 c0 -6 5 -13 10 -16 6 -3 10 1 10 9 0 9 -4 16 -10 16 -5 0
-10 -4 -10 -9z"/>
<path d="M4600 2295 c0 -17 63 -47 69 -33 5 14 -30 48 -51 48 -10 0 -18 -7
-18 -15z"/>
<path d="M5683 2298 c-23 -37 -8 -67 18 -37 14 17 16 25 8 36 -14 16 -16 16
-26 1z"/>
<path d="M4465 2280 c-19 -21 -14 -50 8 -50 21 0 28 12 16 26 -6 8 -9 21 -5
29 7 20 3 19 -19 -5z"/>
<path d="M4127 2284 c-13 -13 -7 -41 8 -41 16 0 17 3 6 30 -3 10 -10 15 -14
11z"/>
<path d="M5042 2273 c3 -5 10 -23 17 -40 15 -39 28 -42 37 -8 9 36 -2 55 -32
55 -14 0 -24 -3 -22 -7z"/>
<path d="M3540 2261 c0 -5 5 -13 10 -16 6 -3 10 -2 10 4 0 5 -4 13 -10 16 -5
3 -10 2 -10 -4z"/>
<path d="M4806 2261 c-8 -12 18 -21 57 -21 30 1 31 1 13 15 -22 17 -62 20 -70
6z"/>
<path d="M3580 2240 c0 -5 5 -10 10 -10 6 0 10 5 10 10 0 6 -4 10 -10 10 -5 0
-10 -4 -10 -10z"/>
<path d="M4710 2230 c0 -13 5 -20 13 -17 6 2 12 10 12 17 0 7 -6 15 -12 18 -8
2 -13 -5 -13 -18z"/>
<path d="M5613 2239 c-7 -7 -32 -12 -55 -11 l-43 2 28 -16 c15 -8 33 -12 39
-8 6 4 21 -5 34 -21 26 -33 43 -27 26 8 -6 12 -12 30 -14 40 -2 15 -5 16 -15
6z"/>
<path d="M6056 2232 c-4 -7 28 -52 38 -52 3 0 6 8 6 18 0 18 -36 47 -44 34z"/>
<path d="M4015 2220 c-3 -5 -1 -10 4 -10 6 0 11 5 11 10 0 6 -2 10 -4 10 -3 0
-8 -4 -11 -10z"/>
<path d="M5190 2215 c-11 -13 -8 -15 14 -15 16 0 26 5 26 15 0 8 -6 15 -14 15
-7 0 -19 -7 -26 -15z"/>
<path d="M4350 2210 c0 -5 7 -7 15 -4 8 4 15 8 15 10 0 2 -7 4 -15 4 -8 0 -15
-4 -15 -10z"/>
<path d="M5956 2195 c-3 -9 0 -15 9 -15 8 0 15 7 15 15 0 8 -4 15 -9 15 -5 0
-11 -7 -15 -15z"/>
<path d="M3600 2179 c0 -5 5 -7 10 -4 6 3 10 8 10 11 0 2 -4 4 -10 4 -5 0 -10
-5 -10 -11z"/>
<path d="M4902 2174 c1 -9 9 -19 16 -22 9 -3 13 2 10 14 -1 9 -9 19 -16 22 -9
3 -13 -2 -10 -14z"/>
<path d="M5145 2180 c-3 -5 -2 -10 4 -10 5 0 13 5 16 10 3 6 2 10 -4 10 -5 0
-13 -4 -16 -10z"/>
<path d="M5496 2182 c-3 -6 -1 -14 5 -17 15 -10 25 3 12 16 -7 7 -13 7 -17 1z"/>
<path d="M5750 2182 c0 -14 11 -21 26 -15 21 8 17 23 -6 23 -11 0 -20 -4 -20
-8z"/>
<path d="M4570 2146 c0 -8 -3 -16 -7 -19 -5 -2 -2 -2 5 0 8 1 20 3 28 3 8 0
14 7 14 15 0 8 -9 15 -20 15 -11 0 -20 -6 -20 -14z"/>
<path d="M5072 2144 c9 -9 21 -13 27 -9 16 10 3 25 -22 25 -20 0 -20 -1 -5
-16z"/>
<path d="M6032 2128 c5 -15 28 -23 28 -10 0 5 -7 13 -16 16 -10 4 -14 1 -12
-6z"/>
<path d="M4420 2110 c6 -11 15 -20 20 -20 6 0 10 9 10 20 0 13 -7 20 -20 20
-18 0 -19 -3 -10 -20z"/>
<path d="M4896 2121 c-7 -10 43 -25 52 -16 7 7 -18 25 -35 25 -6 0 -14 -4 -17
-9z"/>
<path d="M5633 2106 c-31 -15 -29 -26 6 -26 16 0 42 -7 57 -15 30 -16 84 -20
84 -7 -1 7 -111 63 -120 61 -3 -1 -15 -6 -27 -13z"/>
<path d="M4011 2094 c0 -11 3 -14 6 -6 3 7 2 16 -1 19 -3 4 -6 -2 -5 -13z"/>
<path d="M4992 2096 c1 -10 8 -17 13 -17 15 1 12 24 -3 29 -9 3 -13 -2 -10
-12z"/>
<path d="M5946 2091 c-4 -5 -2 -12 3 -15 5 -4 12 -2 15 3 4 5 2 12 -3 15 -5 4
-12 2 -15 -3z"/>
<path d="M5082 2049 c25 -48 38 -55 70 -38 18 9 19 14 8 17 -8 3 -27 18 -42
34 -14 15 -33 28 -42 28 -13 0 -13 -6 6 -41z"/>
<path d="M5285 2080 c-3 -6 1 -13 10 -16 19 -8 30 0 20 15 -8 14 -22 14 -30 1z"/>
<path d="M5835 2080 c-4 -6 4 -24 17 -40 16 -21 30 -29 46 -26 28 4 55 -31 50
-66 -2 -16 -9 -22 -22 -20 -10 2 -22 -2 -26 -8 -5 -8 -19 0 -44 25 -36 35 -65
43 -74 18 -2 -8 6 -13 24 -13 27 0 27 0 9 -20 -18 -20 -18 -21 14 -54 28 -29
32 -39 26 -65 -6 -27 -4 -31 14 -31 25 0 28 27 6 56 -8 10 -15 25 -15 33 0 14
4 14 107 -8 l43 -8 -6 30 c-2 17 -7 34 -10 38 -2 4 4 13 14 18 15 8 23 6 37
-9 19 -21 45 -27 45 -11 0 10 -61 41 -82 41 -8 0 -22 6 -32 13 -16 12 -16 14
-2 26 15 12 49 9 124 -14 19 -6 22 -4 22 17 0 28 -38 68 -65 68 -10 0 -27 -7
-37 -16 -15 -14 -20 -15 -34 -3 -14 11 -18 11 -21 2 -7 -21 -50 -15 -81 12
-33 28 -38 29 -47 15z"/>
<path d="M4620 2065 c0 -9 -9 -15 -21 -15 -12 0 -19 -5 -16 -12 2 -7 19 -13
38 -13 25 0 35 5 37 19 2 10 -2 22 -10 27 -19 13 -28 11 -28 -6z"/>
<path d="M4828 2069 c-10 -5 -18 -14 -18 -18 0 -5 8 -11 18 -14 9 -2 25 -8 35
-12 16 -7 18 -3 15 21 -3 31 -22 40 -50 23z"/>
<path d="M4451 2063 c-2 -22 11 -43 27 -43 14 0 14 1 0 13 -9 6 -18 19 -21 27
-3 8 -6 10 -6 3z"/>
<path d="M5375 2060 c-3 -5 3 -10 14 -10 12 0 21 5 21 10 0 6 -6 10 -14 10 -8
0 -18 -4 -21 -10z"/>
<path d="M5528 2063 c-10 -2 -18 -11 -18 -20 0 -13 8 -14 42 -9 46 8 58 13 58
27 0 9 -50 11 -82 2z"/>
<path d="M3880 2047 c0 -10 8 -17 18 -17 9 0 13 4 7 8 -5 4 -13 11 -17 16 -5
5 -8 2 -8 -7z"/>
<path d="M4367 2038 c-8 -28 8 -47 34 -41 15 4 18 11 13 27 -6 20 -22 36 -35
36 -4 0 -9 -10 -12 -22z"/>
<path d="M4910 2035 c-7 -9 -10 -18 -7 -21 10 -11 37 5 37 21 0 19 -14 19 -30
0z"/>
<path d="M4989 2028 c9 -25 41 -37 41 -16 0 17 -20 38 -37 38 -9 0 -10 -7 -4
-22z"/>
<path d="M4505 2021 c-7 -12 31 -25 45 -16 6 4 8 11 5 16 -8 12 -42 12 -50 0z"/>
<path d="M5207 2013 c-9 -9 33 -53 50 -53 19 0 16 17 -7 40 -21 21 -32 24 -43
13z"/>
<path d="M4886 1978 c8 -29 5 -27 43 -34 30 -6 33 -5 29 17 -2 14 -10 24 -20
24 -9 0 -20 4 -24 8 -17 17 -35 7 -28 -15z"/>
<path d="M5310 1985 c0 -25 47 -78 71 -80 13 -1 32 -6 43 -10 14 -6 17 -4 14
11 -2 13 -13 20 -33 22 -30 4 -55 18 -55 32 0 14 42 19 60 8 22 -14 58 -2 43
13 -15 15 -143 19 -143 4z"/>
<path d="M4356 1962 c-3 -6 -1 -14 5 -17 15 -10 25 3 12 16 -7 7 -13 7 -17 1z"/>
<path d="M4740 1958 c0 -22 17 -41 29 -34 16 10 13 33 -5 40 -22 8 -24 8 -24
-6z"/>
<path d="M4830 1962 c0 -5 3 -12 8 -16 4 -4 7 -18 7 -29 0 -26 20 -35 20 -9 1
9 4 22 8 29 5 7 0 16 -12 22 -24 13 -31 14 -31 3z"/>
<path d="M5095 1960 c-3 -5 1 -26 11 -45 14 -31 21 -35 55 -35 22 0 39 5 39
10 0 6 -9 10 -20 10 -12 0 -25 13 -36 35 -16 34 -37 45 -49 25z"/>
<path d="M4447 1953 c-10 -9 -9 -23 1 -23 5 0 17 7 28 15 19 14 19 14 -2 15
-11 0 -24 -3 -27 -7z"/>
<path d="M4550 1950 c0 -5 7 -10 15 -10 8 0 15 5 15 10 0 6 -7 10 -15 10 -8 0
-15 -4 -15 -10z"/>
<path d="M5695 1950 c3 -5 8 -10 11 -10 2 0 4 5 4 10 0 6 -5 10 -11 10 -5 0
-7 -4 -4 -10z"/>
<path d="M5480 1921 c0 -5 5 -13 10 -16 6 -3 10 -2 10 4 0 5 -4 13 -10 16 -5
3 -10 2 -10 -4z"/>
<path d="M4621 1905 c5 -24 58 -39 66 -19 7 19 3 22 -36 30 -28 6 -33 4 -30
-11z"/>
<path d="M5687 1876 c-3 -8 -16 -16 -28 -18 -19 -2 -20 -5 -8 -15 11 -9 22 -8
48 3 28 12 31 16 21 29 -16 19 -26 19 -33 1z"/>
<path d="M4765 1871 c-8 -14 7 -20 37 -14 15 3 25 9 22 14 -7 12 -51 12 -59 0z"/>
<path d="M5263 1873 c-7 -2 -13 -9 -13 -15 0 -12 41 -6 41 7 1 12 -11 15 -28
8z"/>
<path d="M3800 1853 c0 -7 10 -13 23 -12 12 0 16 3 9 6 -6 2 -10 8 -8 12 3 4
-1 8 -9 8 -8 0 -15 -6 -15 -14z"/>
<path d="M4360 1850 c0 -23 25 -27 33 -6 7 16 -1 26 -20 26 -7 0 -13 -9 -13
-20z"/>
<path d="M5590 1855 c0 -15 -10 -19 -42 -16 -10 1 -18 -3 -18 -8 0 -6 9 -11
19 -11 11 0 23 -5 26 -11 4 -5 12 -8 18 -6 13 4 19 67 6 67 -5 0 -9 -7 -9 -15z"/>
<path d="M5442 1848 c6 -18 28 -21 28 -4 0 9 -7 16 -16 16 -9 0 -14 -5 -12
-12z"/>
<path d="M6080 1856 c0 -2 7 -6 15 -10 8 -3 15 -1 15 4 0 6 -7 10 -15 10 -8 0
-15 -2 -15 -4z"/>
<path d="M5070 1826 c0 -9 5 -16 10 -16 6 0 10 4 10 9 0 6 -4 13 -10 16 -5 3
-10 -1 -10 -9z"/>
<path d="M5237 1813 c-7 -11 10 -40 18 -31 4 4 3 14 -3 24 -5 9 -12 12 -15 7z"/>
<path d="M5728 1736 c-34 -25 -16 -79 29 -91 16 -5 32 -7 36 -6 5 1 21 -8 37
-19 30 -21 75 -27 85 -10 9 14 45 -7 45 -25 0 -8 5 -15 10 -15 6 0 10 6 10 14
0 8 5 18 11 22 15 9 103 9 118 0 7 -5 11 9 11 43 0 41 -4 52 -21 62 -22 12
-39 0 -39 -28 0 -16 -35 -17 -63 -1 -31 16 -55 17 -68 1 -17 -19 -26 -16 -45
16 -14 23 -26 30 -63 34 -25 3 -53 8 -61 11 -8 3 -23 -1 -32 -8z"/>
<path d="M5896 1495 c4 -9 11 -14 16 -13 15 5 11 23 -6 26 -11 2 -14 -2 -10
-13z"/>
<path d="M4540 1395 c0 -10 10 -15 31 -15 27 0 30 2 19 15 -7 8 -21 15 -31 15
-11 0 -19 -7 -19 -15z"/>
<path d="M5323 1393 c-24 -2 -43 -9 -43 -15 0 -6 12 -8 27 -5 30 6 86 -13 98
-33 4 -7 1 -19 -8 -27 -13 -13 -18 -13 -41 2 -30 20 -40 17 -23 -5 12 -15 98
-43 107 -34 2 3 -1 14 -8 24 -10 17 -10 20 7 20 11 0 21 -5 23 -11 5 -14 120
-31 131 -20 13 13 -14 25 -50 22 -22 -2 -37 4 -50 18 -9 12 -24 21 -32 21 -7
0 -24 11 -37 25 -13 14 -31 24 -41 23 -10 -1 -37 -3 -60 -5z"/>
<path d="M5475 1390 c3 -5 8 -10 11 -10 2 0 4 5 4 10 0 6 -5 10 -11 10 -5 0
-7 -4 -4 -10z"/>
<path d="M4110 1382 c0 -20 40 -54 57 -48 8 3 19 6 24 6 5 0 9 4 9 9 0 5 -14
9 -31 9 -20 -1 -37 6 -45 17 -8 11 -14 13 -14 7z"/>
<path d="M4230 1376 c-10 -13 -9 -17 11 -25 29 -10 38 4 17 25 -13 13 -16 13
-28 0z"/>
<path d="M4628 1358 c17 -18 24 -20 34 -10 10 10 10 15 -2 22 -8 5 -24 10 -35
10 -19 0 -19 -1 3 -22z"/>
<path d="M6081 1361 c-16 -12 -20 -20 -12 -25 6 -4 14 0 17 9 4 9 13 14 20 11
8 -3 14 1 14 9 0 20 -10 19 -39 -4z"/>
<path d="M4974 1355 c-4 -9 -18 -21 -31 -26 -31 -11 -25 -31 11 -40 41 -11 67
8 64 46 -3 33 -34 47 -44 20z m26 -35 c0 -5 -2 -10 -4 -10 -3 0 -8 5 -11 10
-3 6 -1 10 4 10 6 0 11 -4 11 -10z"/>
<path d="M4415 1351 c-3 -6 4 -15 15 -21 11 -6 20 -19 20 -30 0 -24 48 -50 75
-40 18 6 17 7 -6 13 -19 5 -29 17 -38 47 -9 32 -16 40 -36 40 -13 0 -26 -4
-30 -9z"/>
<path d="M5994 1349 c-7 -12 25 -60 45 -67 13 -4 11 27 -4 61 -8 19 -30 23
-41 6z"/>
<path d="M5658 1336 c-31 -11 -37 -33 -13 -42 9 -4 13 -13 10 -24 -4 -13 3
-21 27 -30 18 -7 52 -21 75 -31 24 -11 47 -19 52 -19 6 0 16 -9 24 -20 7 -10
25 -29 40 -40 21 -17 31 -19 46 -11 11 6 27 8 35 5 23 -9 37 -70 24 -99 -12
-28 -28 -24 -28 6 0 30 -27 54 -44 40 -9 -8 -22 -8 -40 -1 -22 8 -30 6 -46
-10 -24 -24 -43 -25 -60 -5 -23 28 -60 13 -60 -24 0 -11 50 -32 59 -26 5 2 22
0 40 -5 27 -7 31 -6 31 11 0 16 7 19 45 19 41 0 45 -2 45 -25 0 -23 3 -25 53
-25 65 0 76 -7 75 -49 -1 -34 13 -51 44 -51 25 0 31 18 9 25 -11 3 -22 12 -25
20 -6 17 10 30 19 15 14 -23 25 -7 25 35 0 25 -5 45 -10 45 -6 0 -10 -7 -8
-16 4 -25 -19 -28 -25 -5 -3 12 -16 25 -30 30 -30 11 -41 27 -27 36 14 9 13
21 -4 38 -8 8 -14 22 -13 32 2 15 -7 18 -52 21 -57 3 -87 18 -57 30 9 4 35 4
58 1 22 -3 52 0 65 6 18 8 29 8 44 -1 33 -21 59 -15 59 13 0 20 -5 25 -27 27
-97 5 -115 4 -120 -9 -3 -8 -14 -11 -32 -7 -33 9 -35 10 -25 25 4 7 9 26 11
41 2 23 -1 28 -18 28 -11 0 -34 7 -50 16 -17 8 -38 13 -46 10 -9 -4 -22 -1
-30 5 -7 7 -16 9 -19 6 -9 -9 26 -56 47 -62 10 -4 19 -11 19 -16 0 -6 17 -17
37 -26 35 -14 36 -16 18 -29 -25 -19 -31 -18 -79 10 -23 13 -58 29 -78 35 -21
7 -38 16 -38 21 0 13 26 19 52 13 l23 -6 -23 26 c-29 31 -49 36 -84 23z"/>
<path d="M4205 1310 c-3 -5 1 -10 9 -10 9 0 16 5 16 10 0 6 -4 10 -9 10 -6 0
-13 -4 -16 -10z"/>
<path d="M4834 1304 c-18 -15 -18 -15 6 -10 14 3 29 6 33 6 5 0 5 5 2 10 -9
14 -18 13 -41 -6z"/>
<path d="M4170 1300 c0 -5 5 -10 10 -10 6 0 10 5 10 10 0 6 -4 10 -10 10 -5 0
-10 -4 -10 -10z"/>
<path d="M5950 1300 c19 -13 30 -13 30 0 0 6 -10 10 -22 10 -19 0 -20 -2 -8
-10z"/>
<path d="M4748 1293 c-29 -7 -21 -25 10 -21 15 2 26 7 25 13 -2 12 -12 14 -35
8z"/>
<path d="M5049 1278 c11 -31 94 -57 122 -40 28 18 38 15 49 -13 12 -31 31 -33
27 -2 -2 19 3 22 40 25 39 3 42 1 45 -24 4 -36 28 -44 28 -10 0 24 -47 86 -64
86 -4 0 -14 -7 -22 -15 -9 -8 -30 -15 -47 -16 -18 0 -55 -3 -83 -5 -42 -3 -55
0 -69 16 -24 27 -36 25 -26 -2z"/>
<path d="M4235 1270 c-3 -5 -1 -10 4 -10 6 0 11 5 11 10 0 6 -2 10 -4 10 -3 0
-8 -4 -11 -10z"/>
<path d="M4410 1270 c0 -5 7 -10 16 -10 8 0 12 5 9 10 -3 6 -10 10 -16 10 -5
0 -9 -4 -9 -10z"/>
<path d="M4306 1263 c12 -2 34 -17 49 -34 26 -26 55 -39 55 -23 0 3 -9 19 -21
35 -17 25 -27 29 -62 28 -23 -1 -32 -4 -21 -6z"/>
<path d="M4038 1248 c-3 -7 -3 -38 -1 -68 2 -30 4 -109 5 -175 1 -119 -1 -129
-49 -274 -3 -9 11 6 30 33 20 27 42 65 48 85 6 20 15 41 19 46 3 6 12 28 18
50 7 26 23 50 43 64 29 21 31 36 7 36 -25 0 -17 26 12 43 27 17 29 20 13 27
-10 5 -27 9 -38 10 -21 1 -22 24 -2 37 9 6 8 8 -1 8 -7 0 -10 5 -6 12 7 11
-10 9 -47 -6 -17 -8 -29 17 -29 62 0 24 -15 30 -22 10z"/>
<path d="M4996 1231 c6 -28 4 -30 -37 -38 -30 -6 -45 -14 -47 -27 -6 -29 14
-42 36 -23 10 9 25 17 34 17 20 0 48 -32 48 -55 0 -15 6 -17 36 -12 20 3 39 8
41 11 3 3 -6 19 -21 36 -14 17 -26 38 -26 46 0 8 -7 17 -16 21 -8 3 -20 16
-25 29 -12 34 -30 30 -23 -5z"/>
<path d="M5520 1252 c0 -4 9 -13 20 -20 24 -14 26 -32 5 -32 -27 0 -16 -19 24
-40 44 -22 62 -13 31 15 -11 10 -20 23 -20 30 0 6 -9 21 -20 33 -21 22 -40 29
-40 14z"/>
<path d="M4580 1231 c0 -7 17 -19 38 -27 20 -8 47 -20 59 -26 13 -6 26 -8 29
-5 10 9 -16 38 -28 31 -5 -3 -16 0 -24 7 -9 7 -21 14 -28 15 -6 1 -19 5 -28 9
-11 4 -18 3 -18 -4z"/>
<path d="M4903 1228 c2 -7 10 -13 17 -13 7 0 15 6 18 13 2 7 -5 12 -18 12 -13
0 -20 -5 -17 -12z"/>
<path d="M4287 1224 c-9 -10 2 -24 18 -24 9 0 12 6 9 15 -6 16 -17 19 -27 9z"/>
<path d="M4443 1181 c-29 -24 -29 -28 5 -34 15 -3 37 -8 50 -12 18 -6 22 -3
22 12 0 20 -29 53 -46 53 -5 -1 -19 -9 -31 -19z"/>
<path d="M4805 1193 c-30 -7 -42 -22 -26 -32 14 -9 71 14 71 30 0 9 -11 10
-45 2z"/>
<path d="M5077 1184 c-11 -11 3 -24 25 -24 17 0 18 2 8 15 -13 16 -23 19 -33
9z"/>
<path d="M5207 1139 c18 -32 63 -58 63 -38 0 6 -9 13 -20 16 -10 3 -22 13 -25
23 -3 10 -13 21 -21 24 -13 5 -13 1 3 -25z"/>
<path d="M5300 1164 c0 -12 46 -43 64 -44 18 0 18 2 -4 25 -21 22 -60 35 -60
19z"/>
<path d="M5402 1153 c2 -10 12 -19 23 -21 11 -2 29 -7 40 -12 11 -4 37 -11 59
-14 21 -3 43 -12 50 -20 6 -8 28 -18 50 -22 36 -6 38 -6 27 14 -6 11 -21 23
-33 27 -33 9 -58 19 -108 43 -56 28 -113 30 -108 5z"/>
<path d="M6022 1153 c4 -24 24 -27 24 -3 0 11 -6 20 -14 20 -7 0 -12 -8 -10
-17z"/>
<path d="M4325 1141 c-3 -6 -22 -11 -41 -11 -27 0 -34 -4 -34 -20 0 -13 10
-24 25 -30 42 -16 85 -53 85 -72 0 -21 4 -22 29 -6 27 16 48 4 66 -38 12 -29
18 -35 27 -26 7 7 23 12 37 12 l26 0 -21 18 c-11 9 -33 34 -49 54 -22 30 -32
37 -50 32 -19 -5 -26 0 -40 29 -20 44 -50 72 -60 58z"/>
<path d="M4688 1134 c-12 -11 4 -34 24 -34 13 0 18 6 16 17 -3 18 -29 29 -40
17z"/>
<path d="M5760 1130 c0 -5 7 -10 16 -10 8 0 12 5 9 10 -3 6 -10 10 -16 10 -5
0 -9 -4 -9 -10z"/>
<path d="M4640 1120 c0 -5 7 -10 15 -10 8 0 15 5 15 10 0 6 -7 10 -15 10 -8 0
-15 -4 -15 -10z"/>
<path d="M4567 1105 c-9 -7 -29 -10 -43 -7 -39 7 -26 -20 14 -30 37 -10 39
-18 12 -43 -19 -18 -19 -18 20 -56 22 -22 40 -43 40 -48 0 -16 38 -20 44 -4 4
11 14 13 36 8 19 -4 30 -3 30 4 0 6 9 11 20 11 11 0 20 -4 20 -9 0 -5 7 -11
15 -15 8 -3 15 -1 15 3 0 14 -71 53 -85 47 -7 -2 -22 2 -32 9 -11 8 -33 13
-48 12 -33 -2 -41 11 -21 38 13 18 15 18 66 -4 53 -23 80 -20 46 4 -10 8 -16
21 -13 29 7 17 -26 32 -44 20 -7 -4 -17 -1 -23 7 -22 28 -51 38 -69 24z"/>
<path d="M4800 1099 c0 -10 -11 -20 -25 -23 -37 -9 -30 -20 21 -34 43 -12 86
-44 95 -70 2 -7 20 -14 39 -15 44 -3 61 -13 53 -33 -7 -19 34 -64 59 -64 10 0
27 -5 38 -12 22 -14 25 -12 35 20 6 21 4 23 -32 21 -21 -2 -48 3 -60 10 -24
12 -30 35 -13 46 14 9 -21 45 -45 45 -11 0 -28 8 -37 18 -9 9 -28 26 -43 36
l-28 19 28 11 28 12 -29 13 c-42 20 -84 20 -84 0z"/>
<path d="M5134 1089 c-4 -7 1 -18 11 -26 36 -26 49 -9 16 21 -14 13 -21 14
-27 5z"/>
<path d="M5283 1070 c6 -28 5 -29 -18 -18 -21 9 -28 8 -38 -6 -17 -24 -159
-32 -177 -11 -20 24 -47 19 -47 -9 0 -18 8 -28 29 -37 16 -6 47 -25 68 -40 35
-26 40 -34 40 -69 0 -30 -4 -40 -16 -40 -12 0 -14 -7 -9 -30 6 -29 -6 -42 -20
-20 -9 14 -75 41 -85 35 -5 -3 -11 -2 -14 3 -7 12 -136 13 -136 1 0 -5 8 -12
18 -15 9 -3 25 -10 34 -15 10 -5 25 -9 33 -9 10 0 15 -7 13 -17 -5 -31 17 -26
26 6 11 37 15 38 46 9 26 -24 88 -68 95 -68 3 0 5 9 5 19 0 11 5 23 11 27 6 3
9 18 6 33 -5 21 -1 29 21 39 37 17 55 15 75 -8 10 -12 21 -18 26 -15 5 2 21
-2 37 -9 18 -10 33 -12 45 -6 12 7 29 3 58 -13 40 -21 42 -21 56 -4 11 16 17
17 36 7 18 -10 24 -9 31 5 7 12 17 15 34 11 13 -4 24 -2 24 3 0 27 85 15 123
-17 16 -14 19 -14 31 3 12 17 18 18 40 7 29 -13 35 -39 10 -49 -10 -4 -14 -13
-10 -26 3 -12 0 -27 -6 -34 -14 -17 -2 -45 19 -42 33 3 43 -1 43 -16 0 -21
-34 -27 -110 -20 -36 3 -69 5 -75 5 -97 -9 -139 -8 -185 3 -50 12 -55 15 -52
38 3 34 -63 89 -107 89 -42 0 -46 -15 -11 -40 16 -12 30 -28 30 -35 0 -8 14
-21 30 -30 17 -9 30 -19 30 -24 0 -8 -261 -4 -287 4 -7 3 -10 11 -7 19 6 16
-33 66 -53 66 -21 0 -15 -22 14 -52 33 -35 21 -56 -23 -41 -19 6 -31 19 -36
41 -8 29 -10 30 -45 25 -28 -5 -39 -2 -49 12 -10 13 -21 16 -43 12 -36 -7 -85
26 -78 53 2 9 0 25 -6 35 -14 25 11 9 41 -27 16 -19 33 -28 54 -28 39 0 35 31
-7 45 -17 5 -33 14 -37 20 -22 31 -54 65 -61 65 -4 0 -5 -5 -2 -10 3 -6 -1
-13 -10 -16 -19 -8 -85 20 -85 36 0 5 -4 10 -10 10 -5 0 -10 -7 -10 -15 0 -22
-18 -18 -31 8 -13 23 -47 57 -59 57 -17 0 -16 -14 1 -48 26 -54 68 -95 88 -87
40 17 51 16 75 -9 29 -28 33 -57 12 -75 -15 -13 -47 -4 -59 16 -4 7 -20 13
-35 13 -33 1 -62 21 -62 44 0 9 -7 16 -15 16 -29 0 -14 -26 35 -59 36 -25 49
-39 45 -51 -5 -15 6 -18 87 -25 203 -18 248 -26 248 -45 0 -8 -45 -11 -150 -9
-82 2 -152 0 -155 -3 -11 -11 36 -34 125 -63 186 -60 182 -59 190 -45 5 8 19
11 36 7 18 -3 37 0 48 9 26 19 33 18 39 -6 7 -27 35 -26 39 2 4 30 28 35 35 8
6 -21 7 -22 19 -6 10 15 16 16 34 6 29 -16 101 -20 124 -8 13 7 31 7 58 -1 26
-8 44 -9 51 -3 7 6 32 9 57 8 25 -2 53 1 63 6 10 5 55 11 100 13 45 2 89 4 97
5 8 0 53 0 98 -2 46 -2 86 0 89 4 9 16 43 8 43 -10 0 -11 9 -27 20 -37 19 -18
20 -17 20 4 0 29 29 39 46 16 12 -16 14 -8 14 67 0 77 -2 86 -20 91 -11 3 -20
1 -20 -4 0 -12 -27 -12 -35 1 -3 5 12 18 35 30 62 32 46 74 -26 68 -31 -2 -39
-8 -44 -28 -4 -16 -13 -25 -25 -25 -16 0 -20 8 -22 38 -2 26 -10 44 -25 57
-25 21 -43 26 -33 10 3 -6 -1 -13 -9 -16 -23 -9 -20 -35 4 -41 34 -9 19 -36
-24 -45 -48 -10 -72 5 -42 28 16 11 17 17 8 26 -18 18 -14 38 7 38 24 0 35 28
18 49 -23 28 -40 69 -33 80 4 7 0 10 -11 9 -51 -4 -94 4 -124 25 -19 12 -61
31 -94 42 -33 11 -65 25 -72 31 -12 11 -31 11 -90 -2 -26 -5 -33 -3 -33 9 0 8
-7 20 -15 27 -12 10 -18 10 -30 0 -12 -10 -19 -10 -27 -2 -7 7 -23 12 -36 12
-22 0 -24 -3 -19 -30z m112 -45 c15 -13 43 -29 62 -36 28 -9 34 -15 30 -31 -3
-11 -1 -31 6 -45 10 -23 15 -25 54 -19 23 3 45 1 48 -4 9 -15 45 -12 39 3 -7
19 46 45 76 36 14 -4 41 -7 61 -8 43 -1 78 -33 61 -54 -10 -12 -22 -11 -74 2
-35 9 -64 19 -66 24 -5 11 -22 8 -22 -4 0 -20 -44 -48 -68 -42 -14 3 -30 -1
-42 -12 -18 -16 -20 -16 -49 5 -33 23 -61 19 -40 -6 6 -8 9 -17 6 -20 -9 -9
-70 31 -85 55 -15 25 -25 26 -46 5 -9 -8 -16 -11 -16 -5 0 7 -22 11 -52 11
-61 0 -112 26 -124 62 -4 13 -14 28 -23 35 -10 7 -11 12 -4 13 6 0 15 -4 18
-10 9 -15 56 -12 74 4 19 15 65 28 74 20 9 -10 -4 -34 -19 -34 -8 0 -14 -4
-14 -10 0 -18 40 -31 87 -28 27 1 55 -1 63 -5 8 -4 22 -2 30 3 12 9 9 15 -20
40 -28 24 -41 28 -67 24 -28 -5 -33 -3 -33 13 0 10 10 23 23 29 12 7 23 12 24
13 1 0 14 -10 28 -24z m160 -46 c4 -5 18 -14 31 -19 32 -13 30 -36 -3 -43 -37
-7 -63 8 -63 37 0 34 21 49 35 25z m374 -310 c21 -20 24 -47 5 -42 -73 19 -94
41 -54 56 23 9 25 8 49 -14z m88 -7 c-16 -15 -47 -11 -47 7 0 10 39 20 53 13
5 -2 2 -11 -6 -20z m88 -22 c3 -6 -1 -7 -9 -4 -18 7 -21 14 -7 14 6 0 13 -4
16 -10z"/>
<path d="M4186 1021 c-4 -7 -5 -15 -2 -18 9 -9 19 4 14 18 -4 11 -6 11 -12 0z"/>
<path d="M4227 980 c10 -11 19 -20 21 -20 1 0 -2 9 -8 20 -6 11 -15 20 -20 20
-6 0 -2 -9 7 -20z"/>
<path d="M5883 979 c-26 -10 -30 -27 -8 -35 8 -4 15 -14 15 -23 1 -36 25 -51
84 -51 31 0 56 4 56 10 0 11 -40 23 -61 19 -8 -2 -24 3 -37 10 -18 10 -21 15
-12 26 19 23 -9 55 -37 44z"/>
<path d="M4386 956 c5 -22 3 -25 -26 -24 -41 1 -59 -16 -42 -40 7 -9 20 -30
30 -46 37 -63 92 -100 92 -61 0 8 4 15 9 15 13 0 20 25 14 49 -7 27 -19 27
-26 1 -10 -37 -27 -21 -27 25 0 39 3 45 21 45 19 0 18 3 -9 30 -37 36 -44 38
-36 6z"/>
<path d="M4806 961 c-8 -13 17 -40 40 -44 11 -1 33 -13 49 -25 36 -29 57 -29
53 1 -2 16 -11 23 -33 25 -16 2 -35 11 -42 20 -7 10 -13 13 -13 8 0 -4 -11 -1
-24 8 -14 9 -27 12 -30 7z"/>
<path d="M3679 913 c-13 -16 -12 -17 4 -4 9 7 17 15 17 17 0 8 -8 3 -21 -13z"/>
<path d="M4270 897 c0 -8 9 -25 20 -38 l20 -24 -11 33 c-12 35 -29 52 -29 29z"/>
<path d="M4720 875 c0 -8 7 -15 15 -15 8 0 15 7 15 15 0 8 -7 15 -15 15 -8 0
-15 -7 -15 -15z"/>
<path d="M4492 868 c6 -16 36 -34 44 -25 9 9 -15 37 -33 37 -8 0 -13 -5 -11
-12z"/>
<path d="M5180 800 c0 -5 5 -10 10 -10 6 0 10 5 10 10 0 6 -4 10 -10 10 -5 0
-10 -4 -10 -10z"/>
<path d="M5355 770 c3 -5 12 -10 20 -10 8 0 17 5 20 10 4 6 -5 10 -20 10 -15
0 -24 -4 -20 -10z"/>
<path d="M5725 749 c-4 -12 -2 -26 4 -32 8 -8 11 -2 11 21 0 37 -6 41 -15 11z"/>
<path d="M5475 723 c0 -31 5 -40 32 -56 40 -23 138 -38 153 -23 7 7 19 7 40
-1 25 -9 33 -8 46 4 13 14 13 17 -1 33 -11 12 -29 16 -63 15 -27 -1 -53 -5
-59 -8 -16 -10 -51 6 -97 42 -21 17 -42 31 -45 31 -4 0 -6 -17 -6 -37z"/>
<path d="M5590 745 c0 -8 9 -19 20 -25 15 -8 20 -8 20 3 0 14 -19 37 -32 37
-4 0 -8 -7 -8 -15z"/>
<path d="M4522 728 c3 -7 13 -15 24 -17 16 -3 17 -1 5 13 -16 19 -34 21 -29 4z"/>
<path d="M5680 730 c0 -5 5 -10 10 -10 6 0 10 5 10 10 0 6 -4 10 -10 10 -5 0
-10 -4 -10 -10z"/>
<path d="M5160 702 c0 -13 32 -39 57 -46 44 -14 43 6 -1 30 -49 26 -56 28 -56
16z"/>
<path d="M4570 670 c0 -14 26 -23 41 -15 8 6 7 10 -2 16 -19 12 -39 11 -39 -1z"/>
<path d="M4470 620 c0 -5 23 -26 50 -47 28 -20 50 -43 50 -50 0 -7 7 -10 15
-7 9 4 15 0 15 -10 0 -9 5 -16 10 -16 11 0 -12 64 -32 88 -7 7 -22 12 -34 9
-14 -2 -28 4 -39 20 -18 24 -35 30 -35 13z"/>
<path d="M4490 515 c0 -22 18 -27 29 -7 8 14 6 18 -10 19 -10 1 -19 -4 -19
-12z"/>
<path d="M4710 485 c7 -9 15 -13 17 -11 7 7 -7 26 -19 26 -6 0 -6 -6 2 -15z"/>
<path d="M4571 364 c9 -12 12 -56 10 -175 -1 -104 2 -159 9 -159 5 0 10 -7 10
-15 0 -8 9 -15 19 -15 17 0 19 8 20 63 2 338 5 317 -53 317 -25 0 -27 -2 -15
-16z"/>
<path d="M3733 326 c-24 -23 -43 -47 -43 -53 0 -6 -16 -21 -35 -34 -19 -13
-35 -29 -35 -34 0 -6 -13 -16 -30 -23 -16 -8 -30 -19 -30 -25 0 -7 -17 -23
-37 -37 l-36 -25 37 -7 c20 -4 48 -15 61 -24 16 -10 25 -12 25 -5 0 6 -7 14
-15 17 -8 4 -15 10 -15 16 0 11 31 3 75 -19 17 -8 51 -21 78 -29 48 -15 61
-30 30 -36 -10 -2 32 -4 92 -6 76 -1 105 1 95 8 -8 5 -23 10 -32 10 -9 0 -19
8 -22 18 -3 9 -16 22 -28 27 -12 6 -24 16 -26 24 -6 17 35 6 61 -17 9 -8 19
-13 22 -10 3 2 -20 22 -50 43 -30 20 -55 43 -54 49 0 7 2 6 6 -2 2 -6 9 -10
13 -7 5 3 19 -4 30 -15 18 -18 24 -19 38 -8 9 7 13 8 9 2 -9 -16 29 -48 48
-40 9 3 14 2 10 -3 -3 -5 8 -19 24 -30 30 -22 46 -27 37 -13 -3 5 1 9 8 9 9 0
12 -7 8 -15 -4 -11 -1 -14 11 -9 11 4 14 2 11 -7 -3 -9 5 -13 27 -14 l32 -1
-24 23 c-13 13 -26 23 -29 22 -3 0 -31 18 -62 42 -31 23 -63 42 -69 42 -7 0
-9 3 -6 6 3 4 -13 20 -36 37 -23 17 -43 34 -45 39 -2 4 -11 8 -19 8 -10 0 -13
6 -9 16 3 9 2 12 -5 8 -7 -4 -9 2 -7 14 2 12 -5 27 -15 34 -17 13 -17 14 2 14
12 0 21 -4 21 -8 0 -4 7 -8 15 -8 8 0 15 -4 15 -8 0 -5 7 -17 16 -28 13 -16
15 -16 10 -1 -7 21 10 23 18 2 3 -8 12 -15 20 -15 10 0 13 -6 9 -17 -4 -11 -3
-14 5 -9 7 4 12 2 12 -3 0 -6 10 -11 21 -11 19 0 16 4 -16 30 -21 17 -35 30
-31 30 12 0 -17 25 -37 33 -11 4 -15 12 -11 19 5 7 2 9 -9 5 -9 -3 -21 1 -29
10 -12 15 -10 16 17 9 17 -4 32 -12 33 -17 2 -5 7 -9 11 -9 5 0 59 -50 122
-112 91 -90 108 -110 84 -104 -24 6 -27 5 -17 -7 7 -8 9 -17 5 -21 -4 -4 1 -4
10 0 10 3 17 3 15 -2 -2 -5 1 -11 7 -14 5 -3 10 2 11 10 1 8 2 19 2 23 2 7 76
-47 102 -73 3 -3 19 -6 35 -8 24 -3 17 4 -34 30 -47 24 -100 69 -204 172 -185
183 -226 200 -304 122z m-22 -136 c5 0 9 -7 9 -16 0 -9 9 -18 20 -21 11 -3 20
-13 19 -22 0 -9 -3 -11 -5 -4 -3 7 -12 9 -20 6 -7 -3 -16 2 -20 10 -3 8 -13
13 -23 10 -14 -4 -18 1 -18 22 0 19 4 25 14 21 8 -3 19 -6 24 -6z m59 -20 c0
-5 -7 -7 -15 -4 -8 4 -15 8 -15 10 0 2 7 4 15 4 8 0 15 -4 15 -10z m140 -23
c13 -5 13 -6 -1 -6 -9 -1 -24 9 -35 22 -19 22 -19 22 1 6 11 -9 27 -19 35 -22z
m-90 -54 c0 -1 -11 3 -25 9 -14 6 -25 17 -25 25 0 8 8 6 25 -9 14 -12 25 -23
25 -25z"/>
<path d="M4505 326 c-6 -28 -4 -40 6 -47 8 -5 10 -9 4 -9 -5 0 -11 -30 -12
-68 -2 -40 1 -61 6 -52 14 24 20 111 12 165 l-7 50 -9 -39z"/>
<path d="M4708 187 c3 -172 9 -213 23 -163 5 17 5 35 0 40 -4 6 -6 34 -5 61 9
116 5 178 -11 207 -7 11 -9 -38 -7 -145z"/>
<path d="M3840 270 c0 -5 5 -10 11 -10 5 0 7 5 4 10 -3 6 -8 10 -11 10 -2 0
-4 -4 -4 -10z"/>
<path d="M4762 250 c0 -14 2 -19 5 -12 2 6 2 18 0 25 -3 6 -5 1 -5 -13z"/>
<path d="M5685 230 c3 -5 25 -9 48 -9 40 1 40 2 12 9 -44 11 -67 11 -60 0z"/>
<path d="M5298 213 c6 -2 18 -2 25 0 6 3 1 5 -13 5 -14 0 -19 -2 -12 -5z"/>
<path d="M4762 185 c0 -16 2 -22 5 -12 2 9 2 23 0 30 -3 6 -5 -1 -5 -18z"/>
<path d="M5988 193 c7 -3 16 -2 19 1 4 3 -2 6 -13 5 -11 0 -14 -3 -6 -6z"/>
<path d="M3985 174 c13 -14 19 -14 28 -4 9 10 9 11 0 6 -6 -3 -14 -2 -18 4 -3
5 -11 10 -16 10 -6 0 -3 -7 6 -16z"/>
<path d="M5875 171 c-3 -6 -11 -9 -16 -6 -5 4 -9 0 -9 -8 0 -8 -7 -27 -15 -43
-8 -16 -12 -38 -9 -50 4 -15 -2 -29 -17 -43 l-23 -21 64 0 c48 0 61 3 52 12
-8 8 -8 17 0 31 15 28 11 108 -5 125 -10 10 -17 11 -22 3z"/>
<path d="M4010 148 c-13 -8 -12 -9 2 -5 9 3 19 1 21 -6 2 -7 7 -9 11 -6 13 12
-19 28 -34 17z"/>
<path d="M5715 147 c-2 -7 -8 -32 -14 -57 -5 -25 -13 -55 -16 -67 -7 -22 -5
-23 44 -23 50 0 50 0 41 26 -7 18 -7 30 -1 38 16 19 -5 83 -30 89 -11 3 -22 0
-24 -6z"/>
<path d="M4761 124 c0 -11 3 -14 6 -6 3 7 2 16 -1 19 -3 4 -6 -2 -5 -13z"/>
<path d="M6026 108 c-11 -49 -11 -108 -1 -108 5 0 11 29 13 65 2 65 -3 85 -12
43z"/>
<path d="M5968 88 c0 -18 -2 -45 -2 -61 -1 -21 3 -27 18 -27 14 0 17 3 9 11
-6 6 -8 24 -4 42 4 18 5 40 3 50 -6 29 -22 19 -24 -15z"/>
<path d="M3391 74 c-12 -14 -11 -15 8 -12 12 1 22 7 22 13 1 16 -15 15 -30 -1z"/>
<path d="M3453 68 c-6 -7 -13 -22 -18 -33 -5 -13 -9 -15 -12 -7 -3 6 -9 12
-14 12 -6 0 -7 -4 -4 -10 3 -6 0 -10 -7 -11 -32 -1 -82 -10 -86 -14 -3 -3 67
-5 156 -5 89 0 162 2 162 5 0 9 -128 75 -147 75 -11 0 -25 -6 -30 -12z"/>
<path d="M4761 43 c-1 -24 4 -43 9 -43 12 0 12 37 0 65 -7 15 -9 10 -9 -22z"/>
<path d="M3625 40 c3 -5 13 -10 21 -10 8 0 17 -7 20 -15 8 -19 21 -19 21 0 0
8 -14 19 -30 25 -37 12 -40 12 -32 0z"/>
<path d="M4170 30 c0 -5 5 -10 11 -10 5 0 7 5 4 10 -3 6 -8 10 -11 10 -2 0 -4
-4 -4 -10z"/>
</g>
</svg>
