<?xml version="1.0" encoding="utf-8"?>
<!-- Generator: Adobe Illustrator 19.1.0, SVG Export Plug-In . SVG Version: 6.00 Build 0)  -->
<svg version="1.1" id="Layer_1" xmlns:sketch="http://www.bohemiancoding.com/sketch/ns"
	 xmlns="http://www.w3.org/2000/svg" xmlns:xlink="http://www.w3.org/1999/xlink" x="0px" y="0px" viewBox="488 176.6 970.1 463.3"
	 style="enable-background:new 488 176.6 970.1 463.3;" xml:space="preserve">
<style type="text/css">
	.st0{fill:#D5D7DD;}
</style>
<title>map</title>
<desc>Created with Sketch.</desc>
<g id="Page-1" sketch:type="MSPage">
	<g id="homepage" transform="translate(0.000000, -1682.000000)" sketch:type="MSArtboardGroup">
		<g id="map" transform="translate(0.000000, 1682.000000)" sketch:type="MSLayerGroup">
			<g id="Group-Copy" sketch:type="MSShapeGroup">
				<g id="world" transform="translate(171.004362, 35.000000)">
					<g id="Group" transform="translate(0.000000, 37.621622)">
						<path id="Fill-20" class="st0" d="M586.7,363.8c-0.2-0.2-0.3-0.5-0.4-0.9h0.6c-0.8-1.8-1.4-5.4-3.4-4.5
							c-0.1,0-0.2,0.1-0.3,0.2c-0.1,0-0.1,0-0.2,0c-1.6,0.7-3.3,13.1-0.3,14.1c0.9,0.3,1.8-0.3,2.5-1.4h0.3c0.9-1.3,1.6-3.4,1.9-5.1
							h-0.4C587,365.2,587,364.2,586.7,363.8"/>
						<path id="Fill-22" class="st0" d="M390.3,263.7c0.6-0.2,1.2-0.7,1.7-1.5c0.6-0.8,0.5-1.7,0.1-2.5h-0.7
							c-0.6-1.1-1.7-1.9-2.4-1.9c-2.6,0-3.8,4.1-2.2,5.4C388.1,264.3,389.2,264.5,390.3,263.7"/>
						<path id="Fill-24" class="st0" d="M373,263.9c0.2-0.1,0.4-0.2,0.5-0.4c0.3-0.7-0.2-1.9-1-1.1c-0.3,0.1-0.6,0.4-0.9,1.1
							C371.2,264.2,372.5,264.5,373,263.9"/>
						<path id="Fill-26" class="st0" d="M403.9,274.6c0.5,0.2,1.6,0.1,2.3-0.5c0.7-0.4,1.2-1.2,0.8-2.7c-0.1-0.2-0.1-0.4-0.2-0.6
							h-0.5c-0.9-2-2.4-2-3-2c-0.6,0-3.3-0.9-4.4,0c-0.8,0.6,1.2,2.6,2.3,3.2C402.2,272.5,403,274.3,403.9,274.6"/>
						<path id="Fill-28" class="st0" d="M338.5,224.1c-1.4,0.9,0.2,4.3,2.1,4.5c1.9,0.3,4-1.4,5.6-2.3c1.3-0.7,2.9-1.8,3.6-3.5h0.3
							c0.3-0.6,0.5-1.2,0.5-1.9c0-1.4-0.1-2.6-0.4-3.7h-0.5c-0.2-0.8-0.5-1.5-0.9-2c-0.9-1.1-2.6-1.4-4-1.1
							c-2.1,0.4-2.3,3.1-3.7,3.1h-1.1c-0.2,0.1-0.4,0.2-0.6,0.4c-0.7,0.4-1.2,1-0.9,2.2C338.9,221.8,339.9,223.2,338.5,224.1"/>
						<path id="Fill-30" class="st0" d="M352.1,214.4c2.3,1.1,7.1,2.1,5.3,3.2c-1.8,1.1-7.1,6.2-7.6,7.8c-0.5,1.6,6,0.9,6,0.9
							s-1.4,1.8-0.2,2.4c0.4,0.2,0.7,0,1.1-0.3c0.5-0.2,1-0.8,1.6-1.3c0.3-0.2,0.6-0.3,1-0.3c1.8,0,5.5,1.3,7.3,1.3
							c0.6,0,1.2-0.3,1.9-0.7c1.3-0.7,2.7-2.2,3-3.5h-0.4c0-0.2,0.1-0.4,0-0.5c-0.1-0.9-0.7-1.9-1.4-3h0.6c-0.9-1.3-2.2-2.5-3.3-3.1
							c-0.7-0.4-1.4-1.2-2.2-2.1h-0.6c-0.9-1.2-1.7-2.5-2.5-3.5h0.6c-0.4-0.6-0.8-1-1.1-1.3c-0.9-0.7,1.5-2.3,2.8-3.9h-0.2
							c0.6-0.8,1-1.6,0.4-2.2c-1-1.2-3.3-1.1-5.4-1.3h3.3c-2.1-0.3-4.6-0.1-5.8-1c-1.1-0.8-2-0.5-2.9,0.1c-0.8,0.4-1.5,1.2-2.1,2
							c-1.1,1.6-2.5-0.3-3.9,0.3c-1.9,0.7-1.2,3.4-0.2,4.7C348.2,210.4,349.8,213.3,352.1,214.4"/>
						<path id="Fill-32" class="st0" d="M642.8,142h0.7c0.4-1.2-0.8-1.5-0.8-0.6c-0.5-0.5-1.6-0.1-0.3,1.6
							C642.7,142.6,642.8,142.3,642.8,142"/>
						<path id="Fill-34" class="st0" d="M450.8,199.3c-1.8-0.5-3.7-1.8-3.2-3.2c0-0.1,0.1-0.2,0.1-0.3h0.3c0.2-0.5,0.4-0.8,0.7-1
							c2.2-0.8,6.2,2.5,5.3,4c-0.1,0.2-0.4,0.4-0.7,0.5H450.8z M451.3,392.2c0.1-0.7,0.3-1.2,0.4-1.5c0.1-0.1,0.2-0.3,0.3-0.4
							c1.4-0.7,4-0.8,4.5,0.1c0.9,1.7-1.3,6.7-3.3,8.2c-0.3,0.2-0.6,0.2-0.9,0.2c-0.9-0.2-1.2-1.5-1.3-3h-0.4c0-1.3,0.1-2.6,0.3-3.6
							H451.3z M440.4,258.2h0.4c0.1-1.1,0-2.1-0.6-2.4c-0.9-0.3-0.5-1.7,0.3-3h-0.2c0.4-0.7,0.9-1.3,1.4-1.6c0.5-0.4,1.1-1.1,1.7-2
							h0.2c1-1.3,1.9-3.1,2.8-4.8c0.1-0.2,0.2-0.4,0.3-0.5h-0.3c1.3-1.9,2.9-2.1,3.9-1.9c1.2,0.3,3.7,5.1,4.4,6.8
							c0.5,1.1,1.7,0.5,2.7-0.2c0.6-0.4,1.3-0.9,1.6-1.1c0.9-0.5,2.3-2.2,2.5-3.5c0,0,0,0,0,0h-0.3c0.5-1.2,2.4-1.9,4.5-1.9
							c1.7,0,1,1.1,0,2c-0.3,0.2-0.6,0.4-0.9,0.5c-0.3,0.1-0.5,0.2-0.6,0.4c-1.3,0.6-0.4,1.6,2.3,2.6c2.7,1.1,5.3,4.1,8.3,6
							c3,1.9,3.4,5.7,1.6,6.2c-1.8,0.5-7.3,1.1-9.4,0.8c-1.4-0.2-3-1.3-4.8-2.2h1c-1-0.6-2.2-1.1-3.3-1.3c-2.4-0.4-5.3-0.3-6.9,0.8
							c-0.6,0.3-1,0.7-1.3,1.2c-1.2,1.9-5.3,1.1-7.1,1.1c-1.8,0-4.1,2.7-4.6,1.6C439.8,261.6,440.3,259.8,440.4,258.2L440.4,258.2z
							 M512.1,246.4c-1.4,0.7-4.8,1.2-6-0.3c-0.7-0.9-2-0.7-3,0.1c-1.1,0.6-2.1,1.9-2.2,3.5c-0.2,3,0.9,0.8,2.3,1.9
							c1.4,1.1,1.8,2.7,2.7,4.3c0.9,1.6,2.5,1.1,3.7,2.4c1.1,1.4-3.2,3-1.4,4.6c1.8,1.6,2.7,8.1,3,9.7c0,0.3-0.2,0.6-0.5,0.9
							c-1.5,0.8-4.5,1.2-5.7,1c-1.6-0.3-6.4-2.2-8-2.7c-0.3-0.1-0.7-0.5-0.9-1.1h-0.6c-0.4-1-0.6-2.4-0.6-3.6h0.4
							c0-0.9,0.2-1.7,0.5-2.1c0.1,0,0.2,0,0.2,0c1.1,0.1,1.7,0,2.4-0.6c0.8-0.4,1.5-1.3,2.8-2.7c0,0,0,0,0,0H501
							c1.4-2-2.6-3-4.6-3.6h1.4c-0.7-0.2-1.3-0.3-1.6-0.5c-1-0.3-2.6-2.7-3.9-4.9h-0.6c-0.8-1.3-1.5-2.5-1.9-3.2
							c-0.1-0.1-0.1-0.2-0.1-0.3h0.5c-0.8-1.5-0.5-3.5,0.9-5.4h-0.2c0.4-0.5,0.8-0.9,1.4-1.3c1.4-1.1,5,1.4,6.9,0
							c1-0.7,2-1.5,2.8-2.2h0.1c0.7-0.6,1.2-1,1.6-1.3c1-0.4,5.2,0.9,5.8,2.5C510.2,243.2,512.9,245.6,512.1,246.4L512.1,246.4z
							 M813.4,198.8c6.9,0,4.6,0.5,10.1,0.3c5.5-0.3,7.6-3.5,12.8-5.1c5.3-1.6,9.4-2.7,11-1.9c1,0.5,2.4,0.5,2.9-0.1
							c0.5-0.2,0.8-0.7,0.3-1.5h-0.6c-0.9-1.1-2.6-2.5-3.4-3.6h0.7c-0.6-0.7-0.9-1.2-0.7-1.6c1.2-0.3,2.3-0.6,3.2-1.3
							c0.7-0.4,1.3-1,1.6-2c0.1-0.2,0-0.3,0.1-0.5h-0.4c0-1-0.6-2.3-1-3.6h0.5c-0.5-1.5-0.8-2.9,0.1-4c0.4-0.4,0.5-0.9,0.5-1.3h-0.4
							c-0.2-1.5-1.9-3-3.5-3.6h1c-0.4-0.2-0.9-0.4-1.3-0.5c-2.3-0.5-11.2,0.5-13.1-0.5c-1.8-1.1-4.8-2.4-5.7-1.6
							c0,0-0.1,0.1-0.1,0.1c-0.1,0-0.2,0.1-0.3,0.2c-0.9,0.8-3,5.1-3,5.1s-1.6,0.5-3-1.9c-0.2-0.3-0.5-0.6-0.9-0.9h0.8
							c-2.2-1.8-8.6-1.6-10.7-1.6c-2.3,0-4.8,0.5-7.3,0.8c-2.5,0.3-3.9,1.1-5.7-0.8c-1.8-1.9-4.4-2.7-5.3-3.5
							c-0.1-0.1-0.3-0.2-0.5-0.3h-1.9c-1.4-0.2-3.3-0.1-5.3,0h-2.2c-3.9,0.5-7.7,0.5-7.7,0.5s-0.4-0.2-1-0.5h-0.9
							c-0.8-0.4-1.8-1.1-3-1.9c-0.9-0.6-1.8-1.2-2.7-1.7h0.9c-1.9-1.1-3.6-1.9-4.2-1.9c-0.9,0-8,1.4-9.6,0c-1.6-1.4-3.2-2.2-4.4-2.2
							c-0.7,0-1.2-0.7-1.3-1.3h-0.4c0-0.3,0.2-0.6,0.7-0.6c1.4,0,7.8-2.2,7.8-2.2s-0.2-0.4-0.6-0.8h0.7c-0.7-0.9-2.1-2.4-3.7-2.4
							c-2.3,0-6.4-1.4-7.6-1.4c-0.4,0-0.5,0.1-0.6,0.3c-0.4,0.1-0.5,0.3-0.6,0.6c-0.3,0.1-0.6,0.1-1.3-0.1c-2.3-0.5-5.4,1.1-6-0.5
							c-0.4-1-1-1-1.6-0.5c-1.2,0.5-2.5,3.7,0,4.5c3.4,1.1,6.7,0,7.6,1.6c0.9,1.6,0,2.4,0,3.5c0,1.1-1.8,4.1-3,4.6
							c-1.1,0.5-2.5-0.8-4.8,0.5c-2.3,1.3-8,0.3-8.7,1.1c-0.7,0.8-2.1-2.2-3.2-1.6c-0.7,0.4-2.3,2-3.7,3c-0.6,0.4-1.2,0.6-1.6,0.5
							c-0.8-0.1-1.6-0.6-2.3-1.3h-0.7c-0.6-0.8-1.1-1.7-1.1-2.7c0-0.3,0-0.6,0-0.9h0.4c-0.1-2-0.7-4.3-1.4-4.8
							c-0.3-0.2-1.4-0.4-2.7-0.5h-5c-1.9,0.3-7,0.8-8.2,1.8c-0.3,0.1-0.5,0.3-0.6,0.4c-0.2,0.2-0.4,0.4-0.7,0.6
							c-1.2,0.6-2.8,1.1-3.9,1.1c-1.6,0-3-1.9-6.4-2.4c-3.4-0.5-11-0.8-11.9-0.5c-0.7,0.2-2.4-0.2-2.9-0.8h-0.5c0-0.2,0-0.4,0.2-0.6
							c0.6-0.6,1.8-1.8,2.5-3h0.3c0.8-1.3,1.3-2.6,0.2-3.5c-2-1.6-6.4-1.6-8.5-1.9h-2.4c-1.5-0.2-3.3-0.4-5.6,0c0,0,0,0-0.1,0h-0.7
							c-2.2,0.7-2.9,1.9-4.1,0.5c-0.1-0.1-0.2-0.2-0.2-0.3c0.7,0.1,1.4,0.5-1.6-1c-4.8-2.4-7.6,0-8.5-1.4c-0.1-0.2-0.3-0.4-0.4-0.6
							c-0.4,0.7-1.3,1.7-3.1,2.8c0,0,0,0,0,0h-0.1c-3.1,1.8-5.3,2.2-6.1,2.4c-0.9,0.3-7.3-1-7.3-1.9c0-0.2,0-0.3,0-0.5h-0.4
							c-0.4-4.9-2.9,0.2-5,1.8c0,0,0,0-0.1,0c-2.3,1.1-3.9,2.7-6.2,2.2c-2.3-0.5-6-0.5-8.3,0.5c-0.7,0.3-1.3,0.6-2,0.8h0.3
							c-1.7,0.6-3.1,0.9-5,2.5c-0.5,0.4-1.1,0.8-1.7,1.1H596c-2.1,1-4.4,1.6-4.4,1.6s-3.9-0.3-6-0.3c-1.4,0-3,0-3.4,0.5
							c-0.7,0.2-0.9,0.7,0,1.6c1.8,1.9,7.3,3.8,8,4.9c0.7,1.1,1.5,4.2,0.5,5.1c-1.1,0.5-2.6,0.1-2.8-2.1c-0.1-1.2-0.2-1.9-0.7-2.4
							h-0.7c-0.5-0.4-1.1-0.7-2.2-1.1c-2.7-1-2.6-0.3-4.6-2.5h0.7c-0.2-0.2-0.3-0.3-0.5-0.5c-1.9-2-4-2.2-5.3-1.2
							c-0.4,0.2-0.8,0.5-1.1,1c-1,1.4-0.6,4-1.4,4.8c0,0,0,0,0,0c-1.3,0.2-2.7,1.1-3.1-0.5h-0.5c0-0.1,0-0.2-0.1-0.3
							c-0.1-1-0.1-2.2-0.3-3.3h0.5c-0.2-1.5-0.5-2.7-1.2-1.8c-0.2,0-0.5,0.2-0.8,0.8c-1.6,2.7-2.3,2.7-2.3,4.1
							c0,1.3,1.4,2.7,0.9,5.1c-0.5,2.4-0.5,4.1,0.2,4.1c0.7,0,2.3-2.4,4.3-3c2.1-0.5,5.7-1.9,6,0.5c0.2,2.1,1.9,3,0.9,3.9
							c-0.1,0-0.1,0.1-0.2,0.1c-2.3,1.1-4.8,0.5-5.3-1.1c0-0.1-0.1-0.2-0.1-0.3h-0.5c-0.6-1.1-2-0.9-3.4,0.3c-1.6,1.3-5,6.2-5,6.2
							s-3.9,2.1-5.6,2.4h-0.6c0,0,0,0-0.1,0c-0.5-0.4,0.7-2.1,2.2-3.6h0.2c0.6-0.6,1.2-1.2,1.8-1.6c1.2-0.9,2.2-2.6,2.6-3.8h-0.4
							c0.1-0.5,0.1-0.9-0.1-1.1c-0.3-0.3-0.6-1.3-0.8-2.5h0.5c-0.4-1.8-0.7-4.2-0.4-5.1c0-0.1,0.1-0.2,0.1-0.3h-0.3
							c0.6-1.1,1.6-2.5,0.6-3.6h0.6c-0.2-0.3-0.4-0.5-0.8-0.8c-2.3-1.4-3.9-3-5.7-3.8c-0.6-0.2-1.1,0-1.7,0.4
							c-1.5,0.8-3,3.4-4.2,4.2c-1.6,1.1-1.4,2.4-3.4,2.7c-2.1,0.3-3.4,3.5,0,5.4c3.4,1.9,4.6,3.2,3.7,4.3c0,0,0,0,0,0h0
							c-0.4,0.1-1,0.1-1.6,0h-1.6c-0.9-0.3-1.6-0.6-1.6-0.6s-3-1.6-4.8-1.6c-1.6,0-3.4-0.9-5.1-1.4h1.4c-0.6-0.2-1.3-0.4-1.8-0.5
							c-1.6-0.2-4.7-0.3-6,0.5h0.2c-0.5,0.1-0.8,0.3-1,0.6c-0.6,0.7-1.7,2.2-2.9,3h-0.1c-0.5,0.2-1.1,0.3-1.6,0h-0.9
							c-1.4-1-1.6-1.8-4-0.8c-2.5,1.1-5-0.8-6.4,0.8c-0.3,0.4-0.5,0.7-0.7,0.9c-0.4,0.1-1-0.2-2.7-0.9h-1.2c0,0,0,0,0,0
							c-3.1-1.1-3.5-0.1-5,0.8c-0.5,0.3-1.2,0.6-2.1,0.8c-3.8,0.8-6.3-0.6-7.5,0.5c-0.3,0.1-0.5,0.3-0.7,0.5
							c-1.1,1.6-2.8,4.6-3.4,2.7c0,0,0,0,0,0h0.6c0-0.1-0.1-0.1-0.1-0.2c-0.5-1.4,1.1-3.7,1.4-5.1h-0.4c0-0.3,0-0.6-0.2-0.8
							c-1.1-1.1-6-0.5-6.7,0.3c-0.7,0.8-0.2,3.8,0.2,4.9c0.4,0.9,0.9,4.1,0.3,4.6h-0.4c0,0,0,0,0,0c-1.4-0.8-1.2-3.5-2.5-3.2
							c-1.4,0.3-3,1.1-3.7,1.6c-0.7,0.5-3.4,0.5-4.1,1.6c-0.6,0.9,0,3.3-0.6,4.1c-1.1,0.3-2,1.3-4.5-0.6c-1.8-1.4-2.3-1.2-2.7-0.8
							c-0.4,0.1-0.6,0.5-0.9,0.8c-0.1,0.1-0.2,0.2-0.4,0.3c-1.2,0.7-3.2,1.6-3.3-0.3c-0.1-1.7,0.1-2.6-0.4-3.5h-0.6
							c-0.2-0.3-0.6-0.7-1.1-1.1c-2.1-1.6-0.5-1.6,2.3-0.5c2.7,1.1,6.2,1.6,11.2-0.3c2.7-1,4.5-1.7,5.3-2.3c1.1-0.6,1.3-1.2,0.1-1.7
							c-1.1-0.6-2.1-1.8-3.3-3h-0.7c-0.9-0.9-2-1.6-3.4-1.8c-3.2-0.5-8,1.8-13-0.3c-1.3-0.5-2.3-1-3.2-1.4h1c-3-1.3-4.1-2-5.7-2.4
							c-0.9-0.2-3.8-1.6-7.2-3h-1.1c-4.4-1.7-9.4-3.3-12.5-2.8c-1.8,0.3-4.5,1.4-7.4,2.8H421c-3.6,1.7-7.5,3.8-10.4,5.4h0.1
							c-2.5,1.4-4.3,2.5-4.6,2.8c-0.9,0.8-2.3,4.1-5.3,6.8c-1.1,1-2.6,2-4.2,3h-0.1c-2.5,1.4-5.3,2.6-7.8,3.2
							c-0.7,0.2-1.4,0.5-2.1,1c-3.9,2.2-8.1,8.4-8.1,9.3c0,1.1,1.8,5.1,1.4,6c-0.5,0.8,0.9,4.9,3.4,6c2.5,1.1,6.9,0.8,7.1-0.8
							c0.1-0.4,0.3-0.9,0.7-1.4h0.3c0.4-0.7,1.1-1.5,1.8-2c0.6-0.3,1.1-0.2,1.2,0.7c0.2,2.4,2.5,6.2,2.1,7.8c-0.5,1.6,0,3.2,1.6,3
							c1.6-0.3,10.1-2.4,10.1-2.4s0.3-0.1,0.6-0.4c0.6-0.3,2.2-1.5,2.1-3.1h-0.4c-0.2-1.1,0.6-2.4,1.5-3.6h0.2
							c0.9-1.2,2-2.2,2.4-2.7c0.4-0.4,1.2-1.6,1.5-2.7h-0.4c0.1-0.9-0.1-1.7-1.4-2.2c-1.4-0.5-2.7-0.9-3.2-1.4h0.8
							c-1-0.6-1.1-1.5,0.8-3.5c0.3-0.3,0.6-0.6,0.9-0.8c2.5-1.4,4.5,0.3,8.1-3.8c0.3-0.3,0.5-0.6,0.7-0.9h0.2
							c2.3-3.1,0.8-4.6,1.1-5.4h-0.1c0.3-0.1,0.8-0.2,1.6-0.3c4.4-0.3,8.9-0.5,8,1.1c-0.6,1-2.8,2.7-5.1,4.3
							c-0.1,0.1-0.2,0.2-0.4,0.2c-1.3,0.9-2.7,1.7-3.7,2.3c-3,1.6-2.5,4.6-1.4,6.2c1.1,1.6,1.6,5.4,3.7,4.9c2.1-0.5,4.6-2.4,6.9-2.2
							c2.3,0.3,6.9-0.3,7.6-0.3c0.6,0,3.3,3.1,2.4,4.1c-1.8,0.5-4.1,0.3-8,0.5c-3.7,0.3-7.8,0.3-8.2,1c-0.3,0.1-0.5,0.2-0.5,0.4
							c0,0.8,5.3,2.7,3.4,4.1c-1.8,1.3-3.7-0.3-6-0.5c-2.3-0.3-3.7,3.5-4.4,5.7c-0.5,1.5,0.2,3.7-0.4,4.5c-0.3,0.1-0.8,0.1-1.5-0.2
							h-1.3c-3-1-5.2-1-6-0.5c-0.9,0.5-2.6-0.5-4.9,0.3c-0.2,0.1-0.4,0.1-0.6,0.2h-0.5c-1.1,0.3-1.8,0.3-4,0.3h-3l-1.8,0.3
							c0,0-0.3-0.2-0.6-0.5h-0.7c-0.5-0.6-1.1-1.5-1.2-2.7c0-0.3,0-0.6,0-0.9h0.4c0-2,0.8-4.1-0.2-4.5c-0.9-0.4-3.7,0-5.2,1
							c-0.6,0.3-1,0.7-1.2,1.1c-0.7,1.6-1.4,4.6-0.5,6c0.6,0.9,2.1,2.5,2.2,3.1c-0.2,0-0.3,0-0.6-0.1c-2.4-0.8-5.3-1-7.2,0.3
							c-0.3,0.2-0.6,0.3-0.8,0.6c-1.8,1.6-5,5.1-5,5.1h-1.5c-1.2,0.2-2.6,0.6-3.4,1.1c0,0,0,0-0.1,0c0,0,0,0,0,0
							c-0.5,0.3-0.8,0.6-0.8,1c0,1.6,0,3.8-2.1,4.1c-2.1,0.3-4.8,1.1-7.6,1.6c-1.3,0.2-1.9,0.7-2.5,1.1h0c-0.6,0.4-1.4,0.7-2.8,0.8
							c-1.2,0.1-2,0.4-2.4,0.8c-1.2,0.6-0.8,1.6,1.3,1.9c3,0.5,7.6,2.7,7.8,5.1c0.2,2.4-0.2,5.1-1.4,7.6c-0.8,1.7-5.5,0.5-8.3,0.5
							c-2.8,0-8.3-1.1-10.5,0c-2.3,1.1-1.8,6.5-1.2,8.9c0.7,2.4-0.2,3.8-1.1,4.6c-0.9,0.8-1.2,3.2,0,4.3c1.1,1.1,2.1,3.5,3,3.8
							c0.9,0.3,3.9-0.8,5,0.5c1.1,1.4,2.3,4.6,3,3.8c0.3-0.3,0.6-1,0.9-1.7h0.3c0.3-0.7,0.7-1.5,1.1-1.9c0.2,0,0.3,0,0.5,0.1
							c1.2,0.8,3.9-0.3,6-0.5c0.5-0.1,1-0.3,1.4-0.6c0.9-0.5,1.7-1.5,2.5-2.4h-0.2c0.5-0.5,1-1,1.5-1.3c1.7-1.1,1.2-1.3,0.6-2.2h0.6
							c-0.2-0.3-0.4-0.6-0.6-1c-0.6-1.3,1.1-2.8,2.7-4.3h-0.2c0.3-0.3,0.5-0.5,0.7-0.8c1.6-1.9,4.6-0.3,5.3-2.4
							c0-0.1,0.1-0.2,0.1-0.3h0.4c0.5-1.7,0.8-4.4,1.8-5.3c0.2,0,0.3-0.1,0.5-0.1c1.8,0.3,4.4,1.6,6,1.6c0.8,0,2-0.7,3.1-1.5
							c0.1-0.1,0.2-0.1,0.3-0.2h0c1.1-0.8,2.2-1.6,2.6-1.9c0.9-0.5,4.4-0.3,4.8,2.2c0.5,2.4,4.4,5.4,5.3,6c0.9,0.5,6.9,2.7,7.8,3.5
							c0.9,0.8,2.3,3.2,2.8,5.4c0.4,2,2.7,4.3,3.3,3.2c0.2,0,0.4-0.2,0.5-0.5h-0.4c0-0.8-0.3-2.2-0.6-3.6h0.5
							c-0.4-1.6-0.8-3.3-0.6-4c0,0,0,0,0,0c1.6,0.3,3.4-0.5,3.4-0.5s-0.1-0.1-0.1-0.1c0.3-0.1,0.5-0.2,0.5-0.2s-0.3-0.2-0.7-0.6
							h-0.8c-1.4-1.1-3.8-2.9-4.9-3.5c0,0-0.1,0-0.1-0.1h0.9c-0.1-0.1-0.3-0.2-0.4-0.2c-1.6-0.8-4.6-2.4-6-5.1c0,0,0,0,0,0h-0.6
							c-1-1.6-2.6-2.5-3.6-3.6h0.7c-0.7-0.6-1.1-1.4-1-2.4c0-0.5,0.2-0.8,0.4-1c1.1-0.4,3.1,0.9,4.4,2.4c1.8,2.2,6.4,5.1,8,7
							c1.6,1.9,4.1,2.7,4.8,5.1c0.7,2.4,2.8,5.1,3.4,6.2c0.7,1.1,1.1,9.7,1.8,11.1c0.4,0.8,2-0.4,3.5-1.7h0.1c1.2-1,2.3-2.1,2.8-2.6
							c0.9-0.9,2.4-1.4,3.1-2.7h-0.3c0.1-0.2,0.2-0.5,0.2-0.8c0.1-1.1-0.6-2-1.4-2.8h0.7c-0.9-0.9-2-1.6-2.6-2.1
							c-0.3-0.3-0.1-0.5,0.3-0.8c0.7-0.4,1.7-0.8,2.4-1.3c0.3-0.2,0.6-0.4,0.8-0.6c0.2-0.2,0.4-0.4,0.6-0.6h-0.1
							c1.1-0.9,2.5-1.8,3.2-0.5c0.9,1.6,0.5,8.1,0.9,9.2c0.5,1.1,5.1,2.7,6,4.1c0.9,1.3,4.8,1.9,5.5,1.1c0.7-0.8,4.4,0.5,5.3,0.8
							c0.9,0.3,3.7-0.5,5.5-1.1c1.8-0.5,3.7-2.2,3.4,1.4c-0.2,3.5-0.9,8.9-3.2,11.6c-1.6,1.8-1.6,3-2.2,3.6c-0.2,0.1-0.6,0.2-1,0.2
							c-1.1,0-2,0-2.8,0.5c-0.7-1.4-1.8-2.5-3.2-2.1c-2,0.6-4.3,0.8-6.3,2c-1,0.5-1.8,1.2-2.6,2.3c-1,1.4-1.8,2.3-2.3,2.7h-0.1
							c-0.2,0-0.3,0.1-0.4,0h-0.7c-0.1-0.1-0.1-0.1-0.1-0.2c-0.2-0.5,1.4-1.9,2.9-3.3h0.1c1.7-1.6,3.6-3.3,3.1-4
							c-0.9-1.4-6.4-0.8-9.4-0.8c-1,0-1.9-0.2-2.7-0.6H429c-1.6-0.7-3-1.5-4.3-1.9c-2.3-0.5-3.4,5-5.7,7.7c-1.5,1.8-3.6,0.5-5.4-0.5
							h0.9c-1.1-0.6-2.1-1.3-2.9-1.3c-2.1,0-6-3.5-6-3.5s-0.5-0.2-1.2-0.6h-1.1c-1.2-0.5-2.8-1.1-3.6-1.1c-1,0-2.7-1.5-4.1-2.5h0.8
							c-0.9-0.7-1.6-1.3-2-1.3c-0.9,0-3.2-2.2-1.8-3.4c1.9-0.8,5.3,1.1,3.7-4.3h0.5c0-0.2-0.1-0.3-0.1-0.5c-1.8-6-8-4.8-9.6-4
							c-1.6,0.8-13.1,0.5-14,0.5c-0.9,0-7.6,2.7-9.6,3.8c-0.1,0.1-0.3,0.1-0.4,0.2h0.1c0,0-0.1,0.1-0.2,0.1c-2.1,1.1-5.7,2.4-6.7,3
							c-0.9,0.5-5.7-1.1-7.8,0.3c-2.1,1.4-4.2,3.4-5.3,4.2c-0.1,0.1-0.2,0.1-0.3,0.1c-0.2,0-0.4,0.1-0.7,0.4
							c-0.9,0.4-2.6,2.3-3.8,5.9c-1.3,3.9,0.1,7.3-2.1,8.8c-1.9,1-5.2,2.4-7.5,3.9c-1,0.6-2,1.3-2.5,1.9c-1.8,2.2-3.3,10.6-5.6,14.1
							c-2.3,3.5,0,6.8,0.5,8.9c0.5,2.2,2.1,6.2-0.5,10c-2.1,3.1-2.3,4.9-2.9,5.6c0,0,0,0-0.1,0c-0.2,0-0.3,0.1-0.3,0.2
							c0,0-0.1,0.1-0.1,0.1c-1.1,0.3,1.2,1.4,1.6,4.1c0.5,2.7-2.1,5.4,2.3,7.8c4.4,2.4,8.3,2.5,9.5,5.8c1.2,3.3,5,10.7,5,10.7
							s4.1,4.3,6.2,6.2c1.2,1.1,2,1.2,2.5,0.6c0.4-0.1,0.6-0.5,0.8-1h-0.3c0.1-0.2,0.2-0.5,0.2-0.8c0.5-1.9,3.2-2.2,6.4-2.2
							c3.2,0,5.5,0.8,8.7,0.3c0.9-0.1,1.7-0.6,2.4-1.2c2-1.4,3.5-3.8,4.4-4.6c1.3-0.5,5.9-1.2,8.8,0.9c3,2.2,2.5,5.1,4.1,7
							c1.6,1.9,4.3,0.8,6.4-1.1c2.1-1.9,1.1-1.1,3.7,0.5c2.5,1.6,3.7,3.3,1.4,5.7c-2.3,2.4-0.9,6.2-2.3,10c-1.4,3.8,1.3,3.8,3.8,5.4
							c2.5,1.6,4.7,12.2,6,14.1c1.4,1.9-0.5,7.3,1.2,10.6c1.6,3.2,2.3,5.2,0.5,6.8c-1.8,1.6-4.2,4.8-4.4,10.2
							c-0.2,5.4,0.9,9.2,1.8,11.1c0.9,1.9,3.2,7,4.4,8.9c1.1,1.9,5.1,5.4,5.3,8.4c0.2,3-3,7.6-1.9,9.2c1.1,1.6,1.8,4.1,3.9,6.2
							c2.1,2.2,2.8,6.8,2.8,6.8s0.7,1.9,0.9,4.9c0.2,3,0.5,4.9,2.8,6.2c2.3,1.3,3.9,1.6,5,0.3c1.1-1.3,6-4,9-3.7
							c2.7,0.2,6.6,0.7,9.5-1.2c0.4-0.2,0.8-0.5,1.2-0.8c0.6-0.5,1.3-1.2,2-2h-0.2c1-1.1,2-2.3,2.9-3.6h0.2c1.7-2.2,3.2-4.3,4-5.3
							c0,0,0,0,0.1-0.1h-0.2c0.9-1,2.1-2.3,3-3.6h0.2c1.1-1.4,1.9-2.8,1.7-3.9c-0.1-0.4-0.3-0.9-0.5-1.4h-0.5
							c-0.5-1.2-1.2-2.5-1.3-3.6h0.5c-0.1-0.7,0-1.2,0.4-1.6c1.6-0.8,5.6-1.5,7.2-2.6c0.6-0.3,1.1-0.7,1.1-1.1c0,0,0,0,0-0.1h-0.4
							c0-0.8-0.2-2.1-0.5-3.6h0.5c-0.4-1.9-1-4.1-1.4-5.4h-0.5c-0.1-0.2-0.1-0.4-0.1-0.5c-0.3-0.7,0.1-1.8,0.8-3.1h0.3
							c0.6-1.1,1.4-2.4,2.3-3.7c0.4-0.6,0.9-1.1,1.4-1.7h-0.2c1.3-1.3,2.9-2.6,4.1-3.6h0.1c0.8-0.6,1.4-1.2,1.7-1.5
							c0.5-0.6,2-2.1,3.3-3.8h-0.2c0.8-1.1,1.4-2.3,1.7-3.6h0.4c0.1-0.2,0.1-0.5,0.2-0.7c0.2-1.5,0.1-3.1-0.1-4.7h-0.5
							c-0.1-1.3-0.2-2.6-0.2-3.6h0.4c0-0.6,0.1-1.1,0.3-1.5c0.6-1.3,0.5-2.5-0.4-3.8h-0.6c-0.3-0.5-0.8-1-1.3-1.6
							c-0.5-0.5-0.9-1.2-1.2-2h0.6c-0.8-1.8-1.1-4-1.4-5.4H470c-0.1-0.4-0.2-0.7-0.3-0.9c-0.2-0.4-0.3-1.4-0.2-2.7h0.4
							c0.1-1.8,0.6-4,1.1-5.4h-0.3c0.2-0.4,0.4-0.7,0.6-0.8c0.6-0.2,1.5-1.4,2.5-2.8h0.2c1.2-1.7,2.5-3.9,3.6-5.4h-0.2
							c0-0.1,0.1-0.2,0.2-0.2c0.6-0.7,1.5-2,2.5-3.4h0.2c1.3-1.8,3-3.8,4.4-5.4h-0.1c1-1,1.9-1.7,2.6-1.8c0.9-0.2,1.9-0.9,2.9-1.7
							h0.1c1.8-1.5,3.5-3.7,3.9-5.4h-0.4c0-0.1,0-0.2,0.1-0.2c0.1-0.7,0.6-1.9,1.4-3.3h0.3c0.9-1.6,2.1-3.6,3.2-5.4h-0.3
							c0.8-1.4,1.6-2.6,2-3.6h0.3c0.3-0.7,0.6-1.2,0.6-1.5c0.1-0.7,0.5-2.2,1-3.8h-0.4c0.3-1.2,0.7-2.5,0.8-3.6h0.4
							c0.3-1.4,0.3-2.6,0-3.2c-1.1-1.6-10.1,2.4-11.2,3c-0.1,0-0.2,0.1-0.4,0.2h0.1c-0.1,0-0.2,0.1-0.2,0.1c-1.2,0.5-4.4,2.7-8,2.4
							c-2-0.1-2.4-1.3-2.4-2.5h0.4c-0.1-1.1,0.3-2.4,0.1-3.2c-0.1-0.5-0.4-1.3-0.9-2.2h-0.6c-0.6-1.2-1.4-2.5-2.2-3.6h0.6
							c-0.9-1.3-1.6-2.2-2-2.3c-0.5-0.2-1.7-1.4-2.8-3h-0.6c-0.7-1.1-1.3-2.3-1.8-3.5c0,0,0-0.1,0-0.1h0.6c0-0.1-0.1-0.1-0.1-0.2
							c-0.7-2-2.9-3.7-4.9-5.2h-0.8c-1-0.8-2-1.6-2.6-2.4c-0.2-0.3-0.4-0.7-0.5-1.2h0.5c-0.4-1.3-0.4-3.3-0.4-5.4h-0.4
							c0-1.2,0-2.4,0-3.6h0.4c-0.1-1.5-0.3-2.9-0.8-4c-0.2-0.4-0.4-0.9-0.6-1.4h-0.6c-0.5-1.2-1-2.3-1.5-3.6h0.5
							c-0.7-1.8-1.4-3.7-2.1-5.4h-0.5c-0.2-0.5-0.5-1.1-0.7-1.6c-0.3-0.7-0.6-1.3-1-2h0.6c-0.1-0.2-0.2-0.4-0.3-0.7
							c2.1-0.6,4.8-1.5,5.1-0.1c0.5,1.9,3,6,3.4,8.9c0.5,3,3,1.9,3.2,4.6c0.2,2.7,2.5,9.2,3.4,10c0.9,0.8,5.1,5.1,5.7,6.8
							c0.7,1.6,1.6,3.8,2.3,7.8c0.7,4.1,1.4,9.5,3.2,10.3c1.8,0.8,8-1.3,9.2-2.2c1.1-0.8,8.7-5.1,11.5-5.4c2.7-0.3,3.2-2.4,6.6-3.2
							c1.4-0.3,2.7-1.1,3.9-1.9c1.8-1.3,3.4-2.9,4.8-4.3c0.1-0.1,0.2-0.2,0.3-0.3h-0.2c0.9-0.9,1.7-2.2,2.5-3.6h0.3
							c1.3-2,2.4-4.2,2.9-5.4h-0.3c0.6-1.3,1.9-2.3,2.2-3.6h0.3c0.3-0.6,0.3-1.3-0.1-2.1c-0.5-1-1.8-2.2-3.3-3.3h-0.8
							c-1.6-1.1-3.2-2-4.2-2.1c-0.7-0.1-1.1-0.7-1.4-1.4h0.6c-0.5-1.1-0.7-2.6-1.5-2.6c-0.3,0-0.5,0.1-0.7,0.3
							c-0.9,0.3-0.9,1.9-3,3.2c-1.3,0.8-2.6,1.9-3.8,2.7c-0.7,0.4-1.4,0.7-2,0.5c-0.4-0.1-0.6-0.3-0.6-0.6h-0.5
							c0-0.7,0.3-1.9-1.4-3.5c0,0-0.1-0.1-0.1-0.1h0.7c-0.1-0.1-0.1-0.1-0.2-0.2c-2.5-2.4-3.4-3-3.4-4.9c0-0.1-0.1-0.2-0.1-0.3h-0.5
							c-0.4-1-1.6-2.2-2.8-3.6h0.7c-1.3-1.4-2.6-2.9-2.8-4.3c-0.1-0.4,0-0.7,0-1.1h-0.3c0.7-2.4,3.5-4.7,4.5-2.7
							c1.1,2.4,2.1,6.2,5,7.8c3,1.6,5.7,4.3,7.1,4.9c1.4,0.5,4.8-3,6-2.4c1.1,0.5,3.4,5.4,5.5,6.2c2.1,0.8,8.9,1.1,10.1,1.1
							c1,0,5.1,0.2,6.5-1c0.4-0.2,0.6-0.4,0.8-0.7c0.3-0.6,0.6-0.9,0.9-1.2c0.4-0.2,0.9-0.2,1.4-0.2c1.1,0,3.2,4.9,4.8,5.4
							c1.6,0.5,4.6,0.3,4.4,3.8c-0.2,3.5,1.4,6.5,3,6.8c0.5,0.1,1.1-0.2,1.8-0.7c0.2-0.1,0.4-0.3,0.6-0.4h-0.1c1.5-1.2,3-2.9,3-2.9
							s0,6.8-0.2,9.2c-0.2,2.4,2.5,11.4,2.5,11.4s3.4,8.4,4.4,10.3c0.9,1.9,4.8,7.6,4.8,10c0,2.4,0.5,6.2,1.8,6.2
							c0.8,0,1.6-1.4,2.4-3.1h0.3c0.7-1.4,1.4-3,2.1-4.2c0.2-0.4,0.5-0.7,0.7-1.1h-0.3c0.7-1.2,1.5-2.4,2.1-3.6h0.3
							c0.5-1,1-2.1,1.3-3.1c0.1-0.6,0.2-1.4,0.2-2.2h-0.4c0-1.1-0.1-2.4-0.3-3.6h0.5c-0.2-2.1-0.6-4.1-0.6-5.1c0-0.1,0-0.2,0-0.3
							h-0.4c0.2-1.3,1.1-2.4,2.8-3.6h0c0.2-0.1,0.4-0.3,0.6-0.4c0.3-0.2,0.7-0.4,1.1-0.6c0.4-0.2,0.8-0.5,1.2-0.8
							c1.3-0.9,2.5-2.2,3.6-3.6h-0.2c1-1.3,2-2.5,3-3.6h0.1c0.3-0.4,0.7-0.7,1-1c1.5-1.3,2.1-3,3.2-4.4H598c0.9-1.1,2.2-1.9,4.6-1.9
							c5.5,0,5,0,6.4-1.6c0,0,0.1-0.1,0.1-0.1h0.2c0.1-0.1,0.1-0.1,0.2-0.2c0.4-0.5,0.8-0.9,1.2-1.2c0.8-0.4,1.4-0.1,1.8,1.7
							c0.7,3,4.6,7.3,5.3,8.4c0.7,1.1,2.1,4.1,1.8,7.3c-0.2,3.2-1.4,12.1-0.2,12.1c0.3,0,0.7-0.6,1.2-1.4h0.3
							c0.8-1.3,1.8-3.5,2.6-5.4h-0.3c0.7-1.6,1.2-2.9,1.2-2.9s0.4-0.3,0.9-0.6h0c0.1-0.1,0.2-0.1,0.3-0.2c1.5-0.9,3.8-1.8,3.6,1.1
							c-0.2,4.3,0.5,8.9,0.5,11.6s4.1,9.2,4.1,7.6c0-0.5,0.2-1.3,0.4-2.3h0.4c0.4-1.6,1.1-3.7,1.3-5.4h-0.4c0.1-0.4,0.1-0.7,0.1-1
							c0-2.4,1.1-1.4,4.1,1.1c3,2.4,5,7.3,5,7.3s2.9,9.1,3.3,10.5c0.3,0.7,1.4-1.3,2.5-3.5h0.3c0.9-1.9,1.8-4,2.1-4.8
							c0.1-0.2,0.2-0.4,0.3-0.6H653c0.5-1.1,1.1-1.7,2.6-2.1c1.2-0.4,2.7-0.5,3.7-1.4h0.1c0.6-0.5,1.2-1.2,1.5-2.3
							c0.2-1,0.6-2,0.9-3h-0.4c0.3-1.1,0.5-2.3,0.4-3.6h0.5c-0.1-1.3-0.4-2.6-1.4-4c-0.3-0.5-0.6-0.9-0.9-1.4h-0.6
							c-0.9-1.3-1.6-2.5-2.3-3.6h0.6c-1-1.5-1.9-2.7-3-3.7c-0.5-0.4-0.9-1-1.3-1.7h-0.6c-0.7-1.2-1.3-2.6-1.7-3.6h0.5
							c-0.4-0.9-0.6-1.5-0.6-1.5s1.9-2,3.6-3.8h-0.2c0.8-0.8,1.5-1.6,1.9-2.1c1.4-1.6,3.4-0.5,3.7,1.3c0.2,1.9-2.1,3.5-2.5,7.6
							c-0.5,4.1,2.7,5.4,3.7,4.1c0.2-0.1,0.3-0.1,0.4-0.3c0.3-0.4,0.7-1,1.1-1.7h-0.2c0.9-1.4,1.9-3,1.9-3.5c0,0,0-0.1,0-0.1h0.4
							c0-0.1,0-0.1,0-0.2c0-0.8-1.6-0.5-1.8-3.5c0-0.6,0.1-1.1,0.3-1.6h-0.3c0.8-1.9,2.9-3,3.8-2.4c1.1,0.8,8.5-1.1,11.9-3.2
							c0.1,0,0.1-0.1,0.2-0.1c0.1,0,0.2-0.1,0.2-0.1c1.2-0.8,2.3-1.8,3.2-3H682c1-1.2,1.8-2.5,2.6-3.6h0.2c0.6-0.8,1.2-1.6,1.7-2.1
							c0.7-0.7,2.1-1.9,3.5-3.3h-0.1c1.1-1.1,2.3-2.4,3.2-3.6h0.2c1.3-1.6,2.1-3.2,2-4.3c-0.1-0.4-0.1-0.7-0.1-1.1h-0.4
							c-0.1-1.1-0.1-2.3-0.1-3.6h0.4c-0.1-1.7-0.3-3.6-1-5.4h-0.5c-0.1-0.2-0.1-0.3-0.2-0.5c-0.6-1.1-1.2-2.1-1.7-3.1h0.6
							c-1.4-2.3-2.8-3.9-3.5-5.1c-0.1-0.1,0-0.2,0-0.3h-0.5c0.4-1.1,4-1.6,6-3.6h0.1c0.2-0.2,0.4-0.3,0.6-0.5c2.3-2.4,0-4.6-1.1-4.3
							c-1.2,0.3-4.1,1.1-5.3,0.8c-0.6-0.2-1.2-0.7-1.8-1.4h-0.7c-0.4-0.5-0.9-1-1.6-1.6c-0.7-0.6-0.8-1.3-0.6-2h0.4
							c0.1-0.7,0.5-1.3,1.1-1.7c0.3-0.1,0.5-0.2,0.8-0.1c0.4,0.1,1-0.2,1.7-0.7c1.1-0.6,2.4-1.9,3.4-2.9h-0.1
							c0.2-0.2,0.4-0.4,0.5-0.5c1.4-1.4,3.4-2.4,2.7-1.1c-0.7,1.4-2.3,6.2-0.5,6.5c0.7,0.1,1.9-0.5,3-1.3c1.1-0.7,2.2-1.6,3.1-2.2
							c0.4-0.2,0.7-0.4,0.8-0.3c0.7,0.3,1.8,3.8,1.1,5.4c-0.7,1.6-0.7,4.3,0.2,4.1c0.2-0.1,0.4-0.2,0.6-0.4c0.4-0.2,1-0.8,1.6-1.3
							h-0.1c0.5-0.4,0.9-0.6,1.1-0.3c0.5,0.8,2.8,2.4,1.6,5.4c-1.1,3-3.4,4.1-0.7,6c1.9,1.3,2.9,0.9,4,0.1c0.7-0.4,1.3-1,2.1-1.5
							c0.3-0.2,0.6-0.5,0.8-0.8h-0.3c0.6-0.9,1.1-2.2,1.4-3.6h0.4c0.5-1.9,0.5-3.9-0.1-4.8c-0.1-0.2-0.2-0.4-0.3-0.6h-0.6
							c-0.7-1.1-1.6-2.4-2.3-3.6h0.6c-0.7-1.2-1.3-2.3-1.3-2.9c0-0.2,0.1-0.4,0.3-0.6c0.9-0.5,2.3-0.8,3.2-1.5
							c0.2-0.1,0.4-0.3,0.5-0.4h-0.2c0.2-0.2,0.3-0.5,0.3-0.8c0-1.1,0.4-2,1-2.8h0.3c0.6-0.9,1.5-1.6,2.4-2.1c0.1,0,0.1-0.1,0.2-0.1
							c0,0,0,0,0,0c1.1-0.7,2.3-2.2,3.2-2.9c0.2-0.1,0.4-0.1,0.6,0.1c0.6,1,4.3,2.2,5.7,1.1c0.3-0.1,0.5-0.3,0.7-0.5
							c0.1-0.2,0.4-0.5,0.7-0.8h-0.2c0.8-0.9,2-2.2,3.4-3.6h0.2c1.8-1.8,3.8-3.7,5.6-5.4h-0.1c0.3-0.3,0.6-0.6,0.9-0.8
							c1-0.9,1.8-1.8,2.5-2.8h0.2c1.3-1.7,2.2-3.5,2.8-5.4h-0.3c0.3-0.9,0.5-1.8,0.8-2.7c0.1-0.3,0.2-0.6,0.2-0.9h0.4
							c0.5-2.1,1.2-3.7,1.5-5.4h-0.4c0.2-1,0.3-1.9,0.1-3c1.4,3.8,1.6,6.5,1.4,9.5c-0.2,3,0,9.2,0.5,10c0.5,0.8,2.3,2.7,3.4,2.2
							c0.1,0,0.1-0.1,0.2-0.2c0.1,0,0.2,0,0.3-0.1c0.2-0.1,0.3-0.3,0.3-0.5h-0.4c0.1-0.9-0.1-2.3-0.4-3.6h0.5
							c-0.2-1.3-0.5-2.5-0.5-2.9c0-0.8,0.8-1.8,1.6-2.4h0c0.2-0.1,0.3-0.2,0.5-0.3c0.5-0.2,0.4-1.7,0.1-3.3h0.5
							c-0.3-1.4-0.8-2.8-1.3-3.7c-0.4-0.6-0.8-1.2-1.2-1.6h-0.7c-0.6-0.7-1-1.2-0.4-1.3c0.7-0.2,1.4-1.4,1.6-2.2h0.4
							c0.1-0.4,0.1-0.8-0.1-1c-0.7-0.5-0.2-2.4-1.8-1.9c-0.9,0.3-2.9,0-3.8,0.8c-0.3,0.1-0.5,0.3-0.6,0.6c-0.7-1.9-2-3.2-3.6-3
							c-2.1,0.3-3.2,1.6-5.3,1.6c-1.2,0-1.2-1.3-1.1-2.4h-0.4c0-0.6,0-1.1-0.3-1.1c-0.5,0-1.3,1-2.2,1.7c-0.6,0.3-1.1,0.4-1.5-0.3
							c-0.1-0.1,0-0.2-0.1-0.3h-0.5c-0.2-1.8,3.7-3.9,6.8-5.1c0.4-0.2,0.9-0.4,1.4-0.8c1.1-0.7,2.3-1.8,3.6-3h-0.1
							c1.2-1.2,2.5-2.5,3.6-3.6h0.1c0.8-0.8,1.5-1.4,2.1-1.8c0.3-0.2,0.6-0.3,0.8-0.3c2.3-0.3,8,0.5,13.1,0.3c5-0.3,6.6-2.7,8.3-1.4
							c1.6,1.4,5,3,7.1,2.7c1.1-0.1,1.4-0.2,1.9-0.5c0.5-0.2,0.9-0.8,2.9-2.4c0.8-0.7,1.7-1.3,2.5-1.9h0c1.8-1.3,3.4-2.3,4.5-3.6
							h0.2c0.2-0.3,0.5-0.5,0.7-0.8c0.4-0.5,0.9-0.9,1.5-1.3c1.9-1.1,4.2-1.6,4.3,0c0.2,2.2-0.5,4.3,1.4,4.3c1.8,0,4.6-2.2,6.9-3.2
							c1.4-0.6,2.6-1.4,3.3-1.9c0.3-0.2,0.5-0.3,0.6-0.4c-1.2,1-8.9,7.2-11.3,8.9c-1.6,1.1-4.5,1.9-7,3.3h0
							c-1.3,0.7-2.6,1.6-3.4,2.8c-2.3,3.2-3.7,4.3-3.4,7.8c0.2,3.5,4.1,8.1,2.3,11.4c-1.8,3.2-2.5,7.8-2.5,7.8s0.8-1.3,2.2-3h0.2
							c1.2-1.5,2.8-3.4,4.7-4.8c0.2-0.2,0.4-0.4,0.6-0.5h-0.1c1.3-1.1,2.4-2.4,3.4-3.6h0.2c1.5-1.9,2.6-3.6,3.4-4.5
							c0.1-0.2,0.3-0.3,0.5-0.4c1.8-1,4.6-1.5,4.6-3.1c0-0.3,0.1-0.6,0.1-0.9h0.4c0.2-1.6,0.9-3.5,1.6-5.4h-0.3
							c0-0.1,0.1-0.2,0.1-0.3c0.6-1.8-0.8-1.7-0.4-3.3h0.4c0-0.3,0.2-0.7,0.4-1.3c0.8-1.6,1.1-2.9,2.5-3.8
							C809.4,199.1,810.9,198.8,813.4,198.8L813.4,198.8z"/>
						<path id="Fill-36" class="st0" d="M504,162c1.4,0.6,4.4,0.8,7,2.5c2.3,1.5,5.5,2.2,7.3,0.8c0.4-0.2,0.7-0.4,1-0.8
							c0.5-0.6,0.7-1.4,0.6-2.2h-0.5c-0.2-1.1-0.8-2.1-1.5-2.2c-0.5-0.1-1-0.7-1-1.4h0.5c-0.2-0.9,0.3-2.1,2.1-3.3
							c1-0.6,2-1.3,3-1.9c2-1.3,4.1-2.4,6.3-2.7c3.5-0.5,11.4-0.8,14.1,0c1.2,0.3,2.5-0.2,3.9-1.1h0c2-1.3,3.9-3.4,4.7-4.6
							c0.2-0.3,0.2-0.6,0.1-0.8h-0.6c-0.7-1.2-4-1.8-5.1,0c-0.1,0.1-0.2,0.2-0.3,0.3c-2.2,1.4-7.5,1-8.7,0.5
							c-1.4-0.6-12.5,2.2-14.8,2.2c-0.6,0-1.1,0.3-1.6,0.6c-1.5,0.9-2.7,3.3-5.3,4.6c-0.5,0.3-1.1,0.5-1.6,0.8h-0.1
							c-2.8,1.5-5.8,3.2-7.1,3.8c-0.1,0-0.1,0.1-0.2,0.2c-0.1,0-0.1,0.1-0.2,0.1C504.2,158.1,502.6,161.4,504,162"/>
						<path id="Fill-38" class="st0" d="M740.1,271.5c0,0-0.1,0-0.1,0c-0.7,0-3.6,1.2-5.6,2.5c-0.9,0.5-1.7,1.1-2.1,1.6
							c-1.4,1.6-8.3-1.3-9.2,0c-0.9,1.3-2.8,3-4,4c-0.8,0.4-2.1,0.5-2.9,1.1c-0.7,0.4-1.2,1-0.9,2.4c0.7,3.2,2.4,6.2,3.8,6.2
							c0.6,0,1.3-0.2,1.9-0.7c0.6-0.3,1.2-0.9,1.5-1.8H722c0.1-0.5,0.2-1,0.2-1.6c0-3,3.3,0,5-0.3c0.9-0.1,1.6-0.8,2.2-1.7h0.3
							c0.4-0.6,0.8-1.5,1.1-2.3c0.1,0.6,0.6,1.3,1.7,1.6c1.3,0.4,2.2,0.1,2.8-0.4c1-0.5,1.4-1.6,1.4-2.1c0-0.1,0.1-0.2,0.3-0.3
							c1.4-0.8,4.7-1.7,5.4-2.3c0.9-0.8,4.3-2,4.9-3h0.2c0.2-0.2,0.3-0.3,0.3-0.5c0.1-0.6,0.1-2.9,0.3-4.8h-0.4
							c0.1-1.3,0.4-2.5,0.9-2.7c0.6-0.3,1.2-0.4,1.6-0.9h0.2c0.6-0.5,0.8-1.3-0.4-3.7c-0.3-0.6-0.5-1.1-0.7-1.6h-0.6
							c-0.6-1.5-1-2.8-1.5-3.5h0.6c-0.5-0.9-1.1-1.2-2.1-0.5c0,0-0.1,0.1-0.1,0.1c-0.1,0.1-0.2,0.1-0.3,0.2
							c-1.7,1.2-0.7,5.9-2.1,9.1C741.9,268.3,740.9,270.7,740.1,271.5"/>
						<path id="Fill-40" class="st0" d="M674.7,418.5c0.3-0.1,0.6-0.3,0.6-0.6c0.2-1.8-2.5-4.4-3.7-4.4c-0.3,0-1-0.1-1.9-0.3h-1.6
							c-1.9-0.5-3.9-1.1-3.9-1.1c-0.8,0.5-1.9,0.8-2.5,1.4c0-0.1-0.1-0.2-0.2-0.3h-0.8c-0.1-0.1-0.1-0.2-0.3-0.2
							c-2.6-1.8-5.6,0-6.5-2.3c-0.2-0.6-0.5-1-0.7-1.3h0.6c-0.7-1-1.5-1.1-2.2-0.5c-0.4,0.1-0.7,0.4-1,0.9c-1.7,2.7,0.5,4.7,1.2,5.3
							c0.7,0.6,3.2,1.2,5.6,0.9c1.3-0.2,2.9-0.5,3.6-1.1c0.1-0.1,0.1-0.1,0.2-0.2c0.1,0.3,0.2,0.6,0.6,1c1.9,2,3,2.9,5.8,2.6
							C670.2,417.9,673.9,419.6,674.7,418.5"/>
						<path id="Fill-42" class="st0" d="M687.9,420.5c-0.4,2.1,2.2,3.3,3.3,2.1c0.4-0.2,0.7-0.5,0.8-1h-0.4c0-0.1,0.1-0.1,0.1-0.2
							C692,418.4,688.4,418.1,687.9,420.5"/>
						<path id="Fill-44" class="st0" d="M686.5,401.9c1.2,0.9,3-1.4,4.3-2.5h0.1c0.2-0.1,0.3-0.3,0.5-0.4c0.4-0.2,0.8-0.2,1,0.2
							c0.9,1.8-0.2,2.6,1.3,5c1.5,2.4,4.3,2.1,4.3,2.1s0-0.1,0-0.3c0.3,0,0.4,0,0.4,0s-0.1-1.5-0.4-3.2h-0.5
							c-0.3-1.2-0.7-2.5-1.3-3.4h0.6c-0.3-0.5-0.6-0.9-1.1-1.2c-1.5-1-2.7-2.1-2.6-2.6c0.2,0,0.6,0,1.1,0c1.6,0.3,2.8,0,3.4-0.6
							c0.3-0.2,0.6-0.4,0.7-0.8H698c0.1-0.3,0-0.6-0.1-1c-0.6-1.6-4.7-0.8-6.1-0.5c-1.3,0.3-3.2-1-3.2-1c-1.3,0.5-1.1,1.8-1.5,4.4
							C686.7,398.7,684.7,400.6,686.5,401.9"/>
						<path id="Fill-46" class="st0" d="M712.3,383.4c-1.7-1.1-4.9,9.5-2.7,10.3c0.7,0.2,1.3-0.4,1.8-1.5h0.2
							c0.7-1.4,1.2-3.7,1.4-5.7h-0.3C712.8,385,712.7,383.7,712.3,383.4"/>
						<path id="Fill-48" class="st0" d="M677.7,375.1c-4.4,0-4.6,3.9-5.5,4.7c-0.1,0.1-0.3,0.2-0.4,0.3c-0.7,0.4-1.5,0.6-2.8,1
							c-0.4,0.1-0.8,0.4-1.1,0.6c-1.3,0.8-1.7,2.4-2.1,3.6c-0.5,1.3-3.7-2.4-4.6-1.3c-0.9,1.1-0.2,6.1,1.4,10.3
							c1.6,4.2,5.8,6.8,6.9,6.8c1.2,0,3.5,0,5.1,0.5c1.6,0.5,6.9,1,6.7-1.3c0-0.1,0-0.2,0-0.4h0.5c-0.1-1.5-0.4-3.4,0-5.2h-0.4
							c0.3-1,0.7-2,1.5-2.8c0.2-0.2,0.4-0.4,0.6-0.6h0.2c1.8-1.8,3.4-3,3.4-5.2h-0.4c0-0.4-0.1-0.8-0.3-1.3
							c-0.3-0.8-0.6-1.5-0.9-2.2h0.6c-1.1-2.3-2.3-3.9-1-5.2c0,0,0,0,0,0h-0.1c1.5-1.3,3.1-1.9,3.1-3.1c0-0.9-1.9,1.2-3.2-0.4h0.7
							c-0.7-0.6-1.3-1.9-1.4-4.9c0-0.1-0.1-0.2-0.1-0.3h-0.7c-0.2-0.1-0.5-0.1-0.8,0h-0.2c-0.1,0.1-0.2,0.1-0.3,0.2
							c-1,0.5-2.2,1.7-2.4,2.7C679.3,373.6,682.1,375.1,677.7,375.1"/>
						<path id="Fill-50" class="st0" d="M688.3,342c1.4,3.3,6.4,5.7,5.2,7.1c-1.2,1.4-4.8,4.1-5.2,6.5c-0.2,0.8,0.4,0.7,1.3,0
							c1.2-0.7,3.4-2.9,5-4.7h-0.2c0.5-0.6,1-1.2,1.3-1.6c1.5-2.3,4.5-1.3,5.5-2.2c0.3-0.1,0.5-0.3,0.7-0.5l0.7-1.4
							c0,0-2.6-0.5-4.8-1.4c-2.1-0.8-4.6,2-3.6-1.9h-0.4c0.6-2,1.6-2.9,2.5-3.6h0.1c1.2-1,2.3-1.5,1.9-3.5c-0.2-0.8-0.4-1.4-0.8-1.9
							h-0.6c-1-1.4-2.4-1.9-2.9-1.9c-1.7,0,0.2,3-2.1,4.9C689.5,337.9,686.8,338.7,688.3,342"/>
						<path id="Fill-56" class="st0" d="M652.6,145.1h-0.4C652.6,145.2,652.9,145.2,652.6,145.1"/>
						<path id="Fill-72" class="st0" d="M783.1,483.2c-0.3-1.1-0.7-2.3-1.2-3.5h0.5c-0.6-1.7-1.4-3.6-2.1-5.3h-0.5
							c-0.6-1.3-1.1-2.4-1.7-3.5h0.6c-0.7-1.4-1.3-2.7-1.9-3.6c-0.3-0.6-0.6-1.1-0.9-1.7h-0.6c-0.6-1.2-1-2.4-1.4-3.5h0.5
							c-0.7-2-1-3.9-1.1-5.3h-0.4c0-0.3,0-0.6,0-0.9c0.1-1.5-2.9-2-5.8-2.7h1.7c-2.1-0.5-4.3-0.9-5.2-1.8c-0.8-0.7-1.3-2-1.7-3.6
							h-0.5c-0.3-1.1-0.5-2.4-0.8-3.5h0.5c-0.3-1.3-0.5-2.6-0.9-3.6c-0.2-0.6-0.5-1.1-0.8-1.7h-0.6c-0.7-1.3-1.6-2.4-2.5-3.5h0.7
							c-0.8-1-1.7-2-2.5-3.1c-0.5-0.6-0.9-1.4-1.3-2.2h-0.6c-0.5-1.2-0.9-2.4-1.3-3.5h0.5c-0.7-2-1.1-3.7-1.5-3.4
							c-0.1,0-0.1,0.2-0.2,0.3c-0.1-0.1-0.1-0.1-0.2-0.1c-0.7,0.5-2.7,8.3-1.1,10.7c1.6,2.4-0.7,7.2-1.8,10.5
							c-0.8,2.3-2.4,1.1-4.1-0.4h0.8c-0.8-0.7-1.6-1.5-2.4-2c-1.7-1.2-3.9-2.1-5.6-3.3H735c-0.4-0.3-0.8-0.6-1.2-1
							c-0.5-0.6-0.4-1.5-0.1-2.5h0.3c0.5-1.7,1.6-3.8,1.9-5.3h-0.4c0-0.4,0-0.7-0.2-1c-1.1-1.9-7.3-0.3-8-0.3
							c-0.5,0-1.4-1.5-2.4-2.3h0.7c-0.4-0.4-0.9-0.7-1.3-0.7c-0.2,0-0.3,0.1-0.4,0.3c-1,0-1.1,3-1.1,4.5c-0.1-0.2-0.3-0.3-0.4-0.5
							h-0.6c-0.6-0.8-1.4-1.8-2.4-2.9c-2.1-2.4,0.2,1.6-1.8,4c-2.1,2.4-1.4,1.6-2.3,4.3c-0.8,2.3-2.5,1.8-4.2-0.1h0.7
							c-0.4-0.4-0.7-0.8-1.1-1.2c-1.5-1.9-2.5-1.5-3.4-0.8c-0.5,0.3-1.1,0.8-1.6,1.1c-1.3,0.8-2.5,5.1-3.1,6.3c-1.5,0.4-7-2-8.1-0.7
							c0,0,0,0.1,0,0.1c-0.1,0.1-0.3,0.1-0.4,0.2c-1.1,1.3,0.2,10,0.2,11.1c0,0.1-0.1,0.1-0.1,0.2c-1.3,0.5-4.6,0.3-5.9,1.4
							c-0.1,0.1-0.2,0.1-0.2,0.2h0c-0.1,0-0.2,0.1-0.2,0.1c-1.6,1.3-4.1,0.5-5.7,0.5c-1.6,0-7.1,5.1-8.9,6.4c-1.8,1.3-5,6.2-4,7.5
							c0.9,1.3,5.9,4.6,4.7,5.1c-1.1,0.5-1.8,4.3,0.9,7.5c2.7,3.2,1.8,4,2.1,5.6c0.2,1.6,1.4,2.1,3.2,4.8c1.8,2.7-3.2,4.8-3.9,6.4
							c-0.7,1.6,1.6,4,3,5.4c1.4,1.3,4.8,0.5,6.9-0.3c0.8-0.3,1.7-0.9,2.5-1.4c0,0,0,0,0,0c1.2-0.8,2.4-1.6,3.2-1.8
							c1.4-0.3,9.2,2.3,9.2,2.3s0-0.1,0.1-0.4c0.2,0.1,0.4,0.1,0.4,0.1s0-0.1,0-0.2H701c0.1-0.7,0.3-2.1,0.7-3.5h0.4
							c0.4-2,1.1-4.2,1.8-5.2c0,0,0.1,0,0.1-0.1h-0.1c1.9-1.5,6.2,0.1,6.2,0.1s2.1-1.6,7.5-3c5.5-1.3,3.2,1.3,5.3,2.2
							c2.1,0.8,4.8,1.3,6.4,2.7c1.6,1.3,0,4.6-0.2,5.9c-0.2,1.3,3.9,0.8,4.1-0.5c0.1-0.7,0.5-1.3,1-2h0.2c0.6-0.7,1.4-1.5,2.6-2.4
							c1.9-1.2,0.3,2.6,1.2,4.9c0.9,2.4,2.3-3.3,2.3-0.5c0,0.8,0.7,1.6,0.9,2.4c0.2,0.8,3.2,1.1,3.2,3.8c0,2.7,0,4.3,0.7,4.8
							c0.7,0.5,4.3,0,6,3.2c0.8,1.7,1.5,1.7,2.2,1.1c0.8-0.3,1.4-1.6,1.9-2.4c0-0.1,0.1-0.1,0.1-0.1c1.3-0.4,3.7,1.1,4.5,2
							c0.4,0.5,1.1,0.1,2-0.5c0.5-0.3,1.1-0.7,1.8-1.2c0.9-0.6,1.9-1.2,3.1-1.5c3.4-1.1,3-0.8,3.9-2.4c0.3-0.5,0.6-1.3,0.9-2.3h0.3
							c0.5-1.5,1.1-3.5,1.9-5.3h-0.3c0.3-0.5,0.5-1,0.8-1.5c0.4-0.6,1-1.3,1.7-2h0.2c1.5-1.6,3.6-3.4,5.2-5.3h-0.2
							c1-1.2,1.8-2.4,2.2-3.5h0.3c0.2-0.6,0.4-1.2,0.4-1.8c0-0.9-0.3-2.1-0.6-3.5H783.1z"/>
						<path id="Fill-74" class="st0" d="M750,245.5c-0.3,0.1-0.5,0.3-0.8,0.4c-1.5,0.8-2,3.3-2,4c0,0.3-1,0.8-2.1,1.4h-0.1
							c-0.3,0.2-0.7,0.4-0.9,0.6c-1.3,0.8-2.3,1.7-1.2,2.8c2.1,2.2,4.2,0.6,7.5,0.3c3.3-0.3,6.3-1.4,6.3-1.4s2.8,0.1,3.9-1
							c0.4-0.3,0.8-0.7,0.8-1.3h-0.4c0-0.1,0-0.2,0-0.3c-0.7-2.8-5.8-3.1-6.8-2.8c-0.3,0.1-0.7-0.2-1.1-0.6h0.7
							C752.6,246.8,751.4,245,750,245.5"/>
						<path id="Fill-76" class="st0" d="M765,519.2L765,519.2c-0.6-0.1-1.7,0.6-2.7,1.4c0,0-0.1,0.1-0.1,0.1
							c-1.1,0.8-2.2,1.6-2.7,1.5c-1.1-0.3-3.5-1.5-3.5-1.5c-0.1,0.1-0.2,0.3-0.2,0.4c-0.1,0-0.2-0.1-0.2-0.1
							c-2.4,3.2,2.4,3.2,1.7,6.4c-0.6,3.2,3.3,2,4.3,1.5c0.5-0.3,1.4-2,2.1-4h0.3c0.8-2.1,1.5-4.5,1.2-5.4
							C765.3,519.4,765.2,519.3,765,519.2"/>
						<path id="Fill-78" class="st0" d="M703.4,350.2h-0.8c-0.2-0.1-0.4-0.2-0.7-0.3c-0.7-0.1-3.1,6.6,0.2,6.3
							c0.6-0.1,1-0.3,1.4-0.7C705.2,354.5,704.8,351.4,703.4,350.2"/>
						<path id="Fill-82" class="st0" d="M757.3,405.6c-0.5-0.5-0.9-1.2-1.4-2h-0.6c-0.9-1.4-2-3-3.9-3.6h1.2
							c-0.4-0.2-0.8-0.3-1.2-0.5c-3.4-0.8-4.3-2.2-7.9-4.4c-0.4-0.2-0.8-0.4-1.2-0.6H741c-4-1.3-9.8-1.1-10,0.1c0,0,0,0,0,0.1
							c0,0-0.1-0.1-0.1-0.1h-0.8c-0.4-0.3-0.9-0.7-1.8-1c-2.7-1.1-4.8,0-5.4-1.9c-0.1-0.2-0.2-0.5-0.3-0.7h0.6
							c-0.6-1.2-1.6-1.7-2.9-0.7c-0.5,0.3-1,0.7-1.6,1.4c-1.7,2.1-2.5,2.2,1.4,3c3.8,0.8,5,0.8,3.4,3c-1.6,2.2-2.7,5-1.4,5.2
							c1.4,0.3,5.4-1.1,5.9,0c0.5,1.1-0.9,1.4,3.6,2.2c4.5,0.8,5.4,2.8,6.3,3.9c0.7,0.9,2.7,3.5,2.3,4.4c0,0-0.1,0-0.1,0
							c-0.6,0-1.1,0.3-1.6,0.6c-1.3,0.8-2.3,2.5-1.3,2.7c1.4,0.3,5.4-0.8,5.7,0c0.2,0.8,2.5,6.1,4.8,5.8c0.4,0,0.7-0.3,1.1-0.5
							c0.1,0,0.1,0,0.2-0.1h-0.1c0.9-0.8,1.7-2.3,2.3-3.6h0.3c0.5-1.1,1-2.1,1.4-2.7c0.1-0.1,0.2-0.2,0.4-0.3c1.7-1,4.9-1.2,5.3,0.9
							c0.5,2.5,1.8,5,4.5,6.6c2.5,1.6,5.5,3.1,6,2.1c0.3,0,0.5-0.2,0.5-0.5c0.1-0.5-0.1-1.5-0.4-2.5h-0.5c-0.4-1.3-1-2.7-1.7-3.6
							h0.6c-0.4-0.6-0.8-1.1-1.3-1.3c-1.1-0.5-2.6-2.4-3.7-4.2h-0.6c-0.6-1.1-1.1-2.3-1.1-3c0-0.2,0-0.5-0.1-0.7h0.5
							C761,407.5,758.6,406.9,757.3,405.6"/>
						<path id="Fill-84" class="st0" d="M845.9,509.6c-0.3-0.3-0.5-0.5-0.8-0.5c-0.4,0-0.7,0.3-1.1,0.5h-1.3
							c-0.3-0.1-0.5-0.2-0.9-0.5c-1.9-1.3-1.6-0.9-2.7-3.1h0.5c-0.1-0.2-0.2-0.4-0.3-0.7c-0.8-1.7-1.2-3.8-2-4.7h-0.7
							c-0.4-0.3-0.8-0.3-1.5,0.1c-0.9,0.5,0,3.6,0.9,4.6c0.9,1.1,1.3,4.9,1.1,6c-0.2,1.1-4,2.5-2.2,3.8c1.8,1.4,5.1,0,4.6,1.6
							c-0.4,1.6-2.2,3.8-0.2,4.4c0.8,0.2,1.3,0,1.8-0.5c0.6-0.4,1.1-1.2,1.5-2h-0.3c0.2-0.4,0.4-0.9,0.6-1.3
							c0.4-0.8,0.7-1.6,1.1-2.3h0.3c0.5-1,1.1-1.9,2.1-2.6c1-0.7,0.7-2,0.1-2.8H845.9z"/>
						<path id="Fill-86" class="st0" d="M852.1,441.1c-0.5-0.2-1.1,0-1.8,0.5c-2.1,1.2-4.9,5.5-4.9,5.5c1.7,0.7,4-0.8,5.5-2.6h0.2
							C852.4,443,853.1,441.4,852.1,441.1"/>
						<path id="Fill-89" class="st0" d="M695.8,354.3c-0.1,0-0.2,0.1-0.2,0.3c0,0-0.1,0-0.1,0c-0.7,0.4-2.4,5.5-0.2,5.5
							c2.2,0,5.9,0.9,5.1-0.6c-0.4-0.7-1-2.1-1.8-3.3h0.6C698.1,354.8,697,353.6,695.8,354.3"/>
						<path id="Fill-91" class="st0" d="M815.6,461c0.1-1-0.2-2.3-1.7-3.4h-0.9c-0.5-0.3-1.1-0.5-1.8-0.8c-3.6-1.1-1.2,0.8,0,3.4
							c1,2,2.7,3.2,3.5,2.2C815.2,462.2,815.5,461.8,815.6,461"/>
						<path id="Fill-93" class="st0" d="M834.6,519.8h-0.7c-0.5-0.5-0.9-0.8-1-0.5c-0.1,0.5-0.5,0.9-1,1.2c-0.4,0.3-0.9,0.6-1.4,0.9
							c-0.4,0.3-0.8,0.6-1.2,1c-1.4,1.4,0,2-3.8,4.8c-3.8,2.8-8.6,5.9-9.5,8.4c-0.9,2.5,0.9,3.9,4.5,4.2c2.4,0.2,2.8,0.6,3.5-0.1
							c0.4-0.2,0.7-0.5,1.3-1.4h-0.2c0.2-0.2,0.3-0.5,0.5-0.7c0.8-1.1,1.6-2.1,2.4-3h0.2c1.7-1.9,3.4-3.5,5.5-5.5c0,0,0-0.1,0.1-0.1
							h-0.2c1.1-1.2,1.7-2.5,2.1-3.7h0.3c0.6-1.8,0.6-3.2,0.6-3.2S835.5,520.7,834.6,519.8"/>
						<path id="Fill-95" class="st0" d="M717.2,427.9h1.1C717.4,426.9,717.2,427.1,717.2,427.9"/>
						<path id="Fill-97" class="st0" d="M685.8,373.1h1.2C686.8,372.7,686.4,372.9,685.8,373.1"/>
						<path id="Fill-99" class="st0" d="M500,430.5h-0.6c-0.3-0.5-0.7-0.9-1.1-1c-2.8-0.9-3.1,3.4-5.3,6.3c-1.5,2-3.1,3.7-4.3,4.5
							c-0.4,0.2-0.7,0.3-0.9,0.2c-0.4-0.1-1.5,0.2-2.5,0.9c-1.5,0.9-3.2,2.7-2.2,5.2c1.5,4,1.3,7.9-0.2,9.8c-1.6,1.8,1.3,7.1,0.9,10
							c-0.4,2.9,0.7,4.7,3.8,4.7c1.6,0,2.6-0.3,3.5-1.1c1-0.7,1.8-2,2.5-3.9c0.1-0.3,0.2-0.6,0.3-0.9h-0.3c0.4-1.2,0.7-2.3,1-3.5
							h0.4c0.4-1.8,0.8-3.6,1.6-5.2h-0.3c0.4-0.9,0.8-2.2,1.2-3.5h0.3c0.5-1.8,1-3.7,1.4-5.2h-0.3c0.2-0.8,0.4-1.4,0.5-1.8
							c0.2-0.4,0.4-1,0.6-1.7h0.3c0.4-1.4,0.9-3.4,1.1-5.2h-0.4c0.1-0.9,0.2-1.8,0.1-2.6c0-0.3-0.1-0.6-0.1-0.9h0.4
							C501.2,433.8,500.7,431.8,500,430.5"/>
						<path id="Fill-108" class="st0" d="M708.8,364.6c-0.7-1.7-3.6-4.2-3.6-4.2c-0.1,0.1-0.2,0.2-0.3,0.4c-0.1-0.1-0.1-0.1-0.1-0.1
							c-1.2,1.6-1.9,2.5-2.4,3c-0.7,0.3-1.2-0.2-2.4-0.7c-1-0.4-2.2-0.1-3.2,0.6c-1.6,0.8-2.9,2.4-2.4,3.2c0.7,1.2,5.7-0.3,6.8,2
							c1.1,2.2,1.1,2.5,3.4,2c0.4-0.1,0.8-0.3,1.2-0.5c0.8-0.4,1.6-1.2,2.2-2h-0.3c0.7-1.1,1.1-2.4,0.8-3.2c0,0,0-0.1,0-0.1h0.5
							C708.8,364.7,708.8,364.6,708.8,364.6"/>
						<path id="Fill-112" class="st0" d="M702.5,415.1c-0.3,0.1-0.6,0.3-0.8,0.7c-1.3,2.2-3.6,4.4-3.4,6.3c0.2,1.6,1.5,1,2.7,0.1
							c0.4-0.3,0.9-0.6,1.2-1h-0.1c0.5-0.4,0.8-0.8,0.8-0.8s3.4-0.5,3.4-2.5c0-0.1-0.1-0.3-0.1-0.4h0.4
							C706.6,415.8,703.9,413.8,702.5,415.1"/>
						<path id="Fill-114" class="st0" d="M651.9,409.4c0.1-0.3,0.2-0.7,0.2-1.2c0-1.3,0.1-2.8,0.3-4.1H652c0.2-1.4,0.6-2.7,1.2-3.6
							h0.3c0.1-0.2,0.2-0.3,0.3-0.4c1.2-1.6,0.7-4-1.2-3.8c-0.7,0.1-1.4-0.4-2.1-1.1h-0.7c-0.9-1-1.9-2.3-3.1-3.6h0.7
							c-0.4-0.4-0.9-0.9-1.3-1.2c-1.8-1.5-3.4-2.6-4.9-4.1h-0.7c-0.9-0.9-1.9-1.9-2.9-3.2c-0.1-0.1-0.2-0.2-0.3-0.4h0.7
							c-1.8-2.2-3.9-3.9-5.6-5.3h-0.8c-0.8-0.7-1.5-1.3-2.1-1.8c-0.8-0.8-1.7-1.3-2.5-1.7h1c-1.5-0.8-3-1.2-3.8-1
							c-0.3,0.1-0.4,0.2-0.5,0.3c-2.5,0.8,4.3,6.4,5,7.2c0.7,0.8,7,7,7,10c0,3,2,12.2,3.2,13.2c1.2,1.1,9.1,2.9,10,5.1
							c0.8,1.9,2.5,2.5,2.9,0.7H651.9z"/>
						<path id="Fill-116" class="st0" d="M704.6,385.6h-0.5c0-0.1-0.1-0.2-0.2-0.2c-0.2,0-0.8,0.1-1.6,0.2h-1.1
							c-2.2,0.4-4.7,0.9-5.1,1c-0.7,0.2-5-0.5-5-0.5c-0.1,0.1-0.1,0.2-0.2,0.3c-0.1,0-0.2,0-0.2,0c-1.6,1.7-0.5,3.4,2.1,3.2
							c2.6-0.2,8-1,9.2-1c0.2,0,0.4-0.1,0.7-0.3C703.6,388,704.6,386.4,704.6,385.6"/>
						<path id="Fill-118" class="st0" d="M695,310.2c-0.4,0.1-0.8,0.2-1.1,0.4c-3.4,1.3-5.4,8.1-2.5,7.9c0.4,0,0.7-0.2,1.1-0.4
							c1.3-0.5,2.6-2.3,3.3-4h-0.4c0.5-1.3,0.7-2.6,0.2-3.2h0.6C696.1,310.4,695.7,310.1,695,310.2"/>
						<path id="Fill-120" class="st0" d="M638.8,364.2c-0.8-1.5-3.1-3.9-4.4-5.2h-0.7c-0.5-0.5-0.8-0.8-0.8-0.8
							c-1.9,0.3-1.9,4.3-1,5.7c1,1.4,2.9,0.5,4.1,5.4c1.2,4.9,3.6,9.8,4.5,11.7c1,1.9,5,4.6,6.4,6c0.7,0.7,1.6,0.5,2.2,0
							c0.5-0.2,0.8-0.6,1-1.1h-0.4c0-0.3,0-0.7-0.2-1c-0.4-0.7-1-1.6-1.6-2.5h0.6c-0.8-1.2-1.5-2.6-1.7-3.7
							c-0.1-0.5-0.2-1.1-0.4-1.7H646c-0.3-1.1-0.8-2.3-1.5-3.6h0.6c-0.4-0.9-0.9-1.9-1.5-2.9c-0.6-1-1.2-1.8-1.7-2.5h-0.7
							c-1.1-1.3-2-2.1-2.8-3.5c0,0,0-0.1-0.1-0.1h0.6C638.9,364.3,638.8,364.3,638.8,364.2"/>
					</g>
					<g id="Group_1_" transform="translate(538.484952, 0.000000)">
						<path id="Fill-1" class="st0" d="M323,260.3c-2.8-0.3-5.5,0-6,1.1c-0.5,1.1,2.5,1.9,4.4,1.9c1.8,0,5.5-1.4,4.8-1.6
							C325.5,261.4,323,260.3,323,260.3"/>
						<path id="Fill-4" class="st0" d="M632.6,530.4c0-0.1,0-0.1,0.1-0.2c0.1-0.2,0.1-0.1,0.2,0.2H632.6z M560.5,275.9
							c-0.8,0.2-3.2-0.6-5.2-0.6c-2.1,0-1.6-1.6-2.5-1.3c-0.9,0.3-3,0.8-4.4,1.6c-1.4,0.8-3.7,0.6-3.7-0.8c0-0.8,0.1-1.2,0.5-1.5
							c0.6-0.3,1.5-0.5,3-1.1c3-1.3,6.2-5.1,7.6-3.5c1.4,1.6,3.9,3.5,5.5,3.8C562.7,272.7,561.3,275.1,560.5,275.9L560.5,275.9z
							 M452.3,270.3c-0.4-0.2-0.8-0.8-1.3-1.4h0.6c-0.7-0.9-1.4-2.1-1.4-2.7c0.1,0,0.1,0,0.2,0c0.7,0.3,2.1,1.9,2.7,1.9
							s4.1,3.2,5,4.3c0.8,0.9,0.9,3.2,0.2,4c-1.1,0.2-1.7-2.6-2-4H456C455.8,271.1,453.5,271.1,452.3,270.3L452.3,270.3z
							 M568.1,295.9c-0.1-0.1-0.1-0.2-0.1-0.3h0.5c-0.2-0.6-0.3-0.8-0.2-0.9c0,0,0.1-0.1,0.1-0.1c0.2-0.1,0.4-0.1,0.5-0.5
							c0.1-0.2,0.3-0.5,0.8-0.7c1.3-0.8,3.2-1.7,3.2-1.7s0,0,0.1-0.1c0.2-0.1,0.3-0.2,0.3-0.2s0.3-0.4,0.8-1.1H574
							c0.8-1.1,2-2.6,3-3.6h0.2c0.4-0.4,0.7-0.8,1-1c0.1,0,0.2-0.1,0.3,0c0.7,0.5,5.5-0.8,6.4,0.5c0.9,1.4-0.9,1.6-3.2,2.7
							c-2.3,1.1-3,0.8-3.9,2.2c-0.2,0.3-0.5,0.5-0.8,0.7c-0.9,0.5-2.1,1-3,1.6c-0.5,0.3-1.1,0.7-1.4,1.1c-0.3,0.4-0.7,0.7-1.1,1
							c0,0,0,0-0.1,0h0C570.1,296.5,568.5,296.8,568.1,295.9L568.1,295.9z M554.3,290.2h-0.4c0-0.3,0.1-0.6,0.1-0.8
							c0.1-0.6,0-1.6-0.1-2.8h0.4c-0.1-1.8-0.3-3.9,0.3-5.3c0,0,0,0,0,0h-0.3c1-1.9,3.6-2.7,5.3-3c1.8-0.3,5.7,1.3,6.4,1.1
							c0.7-0.3,3.9-0.3,5.5,0c1.4,0.2,3.4,4.1,3,5.1c-1.1,0.1-2.8-1.2-2.8-3c0-0.1,0-0.2,0-0.3h-0.2c-0.1,0.1-0.1,0.3-0.2,0.6
							c0,0,0,0,0,0c0-1.9-1.6,3.5-0.7,5.1c0.7,1.2-0.8,2.6-1.9,3.2h-0.4c0,0,0,0,0,0c0,0,0,0,0,0h-0.9c-0.5-0.6-0.9-2-0.9-3.6h0.4
							c0-0.4,0-0.8,0-1.3c0.2-1.8-0.7-3.4-2.1-4.1H562c-0.2,0.1-0.4,0.2-0.6,0.4c-1.7,0.8-2.6,2.5-3.3,3.1c-0.9,0.8-0.9,5.4-0.7,6.5
							c0.2,0.8,0.2,3.1-0.7,4.1c-0.1,0-0.1,0.1-0.2,0.1h0c-0.3,0.3-0.7,0.4-1.2,0.3c-0.3,0-0.5-0.2-0.7-0.3h1
							C554.1,295.1,554.1,292.1,554.3,290.2L554.3,290.2z M695.8,450.1c-0.1-1.1-0.6-2.3-1.2-3.3h0.6c-0.9-1.7-2.3-3.2-3.3-3.7
							c-1.1-0.5-3-0.9-4.5-1.7h-0.9c-0.5-0.3-1-0.8-1.3-1.3c-0.5-0.8-1.4-1.6-2.3-2.3h0.8c-1.7-1.3-3.7-2.2-4.7-1.8
							c-1.4,0.5-3.7,1.1-5.5-0.3c-1.4-1.1-3.6-2.3-5-3.3h-0.8c-0.2-0.2-0.4-0.3-0.6-0.5c-1.1-1.1-4.1-1.9-5.5-1.9
							c-1.4,0-1.1-1.1-3.2,2.2c-1.2,1.9-1,3-1.4,3.6c-0.4,0.1-0.9,0.1-1.9-0.1c-1.7-0.2-1.7-0.4-1.1-0.9c0.2-0.1,0.4-0.3,0.7-0.4
							c0.7-0.4,1.6-1.1,2.4-2h-0.2c0.1-0.2,0.2-0.3,0.3-0.5c0.8-1.3,0.9-2.3,0.7-3.1h0.5c-0.3-1.4-1.8-2-3.3-1.5
							c-0.4,0.1-0.6,0.3-0.9,0.5c-1.6,0.9-0.5,2.3-3.9,3c-3.1,0.7-3.5-1.1-2.3-2h0.1c0.1-0.1,0.2-0.1,0.3-0.2
							c0.2-0.1,0.3-0.2,0.6-0.2c1.2-0.3,3-1.1,4.4-2c1.4-0.8,2.4-1.7,2.4-2.3c0-0.2,0-0.4,0-0.6h-0.5c-0.2-1.3-0.8-3.2-2.2-3.2
							c-0.4,0-0.7-0.1-0.9-0.4h0.9c-1.2-0.4-1.2-2.6-3.1-5.3h-0.6c-0.1-0.2-0.2-0.3-0.3-0.5c-0.8-1-1.7-2.1-2.7-3.1h0.7
							c-2.4-2.5-5-4.5-7-4.1c-2.7,0.5-4.3,3.2-5.7,0.2c-0.3-0.5-0.5-1-0.8-1.4h-0.6c-1.1-1.6-2.2-2.2-2.9-3.5c0,0-0.1-0.1-0.1-0.1
							h0.6c0-0.1-0.1-0.1-0.1-0.2c-0.9-1.6-3.2,0-3.9-0.8l-0.7-0.8c0,0-3,0.8-1.4-1.6c0.4-0.6,0.7-1.2,0.9-1.9H625
							c0.5-1.3,0.7-2.7,0.8-3.6h0.4c0.1-0.8,0-1.4-0.2-1.3c-0.1,0-0.2,0.2-0.3,0.3c0,0-0.1-0.1-0.1-0.1c-0.7,0.3-1.8,4-3,3.8
							c-1.1-0.3-0.2-0.8-2.5-2.4c-0.2-0.2-0.5-0.3-0.7-0.4h1c-1.6-1-3.6-0.7-4.8,0h0.1c-0.9,0.3-1.5,0.9-1.5,1.4
							c0,0.9-0.5,1.7-0.9,2.1h-0.5c-0.3-0.4-0.7-1-1.1-2.1c-0.7-1.6-3.9-1.9-5.5-0.3c-0.7,0.7-1.3-0.1-1.9-1.2h0.6
							c-0.7-1.3-1.3-3.2-1.9-3.2c-0.5,0-1.3,0.3-2.1,0.9c-1,0.6-2.2,1.6-2.9,3.2c-0.9,1.9-0.8,4.5-1.2,5.4c-0.4-0.2-0.7-1.4-0.9-2.7
							h-0.5c-0.1-1.3-0.1-2.7,0-3.5c0,0,0-0.1,0-0.1h0.4c0-0.1,0-0.1,0-0.2c0.2-1.6,2.7-4.3,0.9-4.8c-0.8-0.2-1.7,0.2-2.6,0.8
							c-1,0.6-1.9,1.4-2.7,1.9c-0.2,0.1-0.3,0.2-0.4,0.2c-0.4,0.1-0.8,0.3-1.3,0.7c-1.2,0.7-2.8,2.2-3.9,3.9c-1.3,2-2,3.3-3.2,4.1
							c-1.4,0.7-3.3-0.1-2.8-0.9c0.2-0.4-0.9-1.5-2.1-2.2h-0.9c-0.9-0.4-1.7-0.6-2-0.2c-0.1,0.2-0.4,0.4-0.7,0.7
							c-1,0.7-2.3,1.3-3.7,2c-2.1,1.1-3.9-1.3-4.3-2.4c0,0,0,0,0,0h-0.6c-0.4-0.8-1.1-1.3-1.3-3.6h0.5c-0.1-0.4-0.1-0.8-0.1-1.3
							c-0.1-1.4,0-2.7,0.1-4.1h-0.4c0.1-1.3,0.3-2.5,0.6-3.6h0.4c0.1-0.7,0.3-1.3,0.5-1.8c0.3-1-0.4-2.3-1.3-3.5h-0.6
							c-1.2-1.4-2.7-2.5-3.5-2.4c-1.6,0.3-3.2,2.2-4.8,1.9c-1.6-0.3-0.9-0.8-3.4-0.8c-2.2,0-0.9-0.4-0.2-2.2h0.3
							c0.1-0.3,0.2-0.6,0.3-1c0.2-1.3,0-2.9,0.1-4.3H552c0.1-1.2,0.5-2.3,1.5-3.2c0.1-0.1,0.2-0.2,0.3-0.4h0.2
							c1.4-1.3,1.7-3.6,1.3-5.3h-0.5c-0.3-1-0.8-1.8-1.3-1.9c-1.6-0.3-4.6,0.8-6.6,0.5c-2.1-0.3-3.7,1.9-3,4.3
							c0.7,2.4-1.1,4-1.8,3.8c-0.7-0.3-1.6-1.6-4.1,0.5c-2.5,2.2-3.4,1.4-5.9-1.1c-0.3-0.3-0.6-0.6-0.9-0.9h0.7
							c-1.7-1.6-3.3-3.3-4.3-5.3h-0.5c-0.3-0.7-0.6-1.5-0.7-2.4c0-0.4-0.1-0.8-0.1-1.2h0.5c-0.2-1.9-0.3-3.7-0.3-5.3h-0.4
							c0.1-1.3,0.2-2.4,0.6-3.2c0-0.1,0.1-0.2,0.1-0.4h0.3c0.6-1.6,0.8-3.9,0.3-5.3h-0.5c-0.2-0.4-0.4-0.7-0.7-0.8
							c-0.9-0.4,0.2-1.8,1.5-2.8h0.1c0.3-0.2,0.6-0.4,0.9-0.6c0.3-0.2,0.5-0.3,0.8-0.4c0.4-0.1,0.9-0.4,1.4-0.8
							c1.5-0.9,3.2-2.7,3.6-3.5c0,0,0,0,0,0H534c0.7-0.7,2.8-0.5,5-0.5c2.5,0,3,0,5.5,1.6c1.2,0.8,1.9,0.6,2.3,0.2
							c0.5-0.2,0.8-0.8,1-1.3h-0.4c0-0.2,0.1-0.4,0.1-0.5c0-0.8,1.4-1.4,4.2-1.1c2.7,0.3,6.1-2.1,6.8-1.3c0.7,0.8,2.1,4,3.4,3
							c1.4-1.1,1.8-3,2.3,0.3c0.5,3.2,1.6,8.1,3.7,8.9c2.1,0.8,0.9,4,3,4.3c0.3,0,0.6-0.1,0.9-0.3c1.1-0.3,1.8-2.4,2-4.3h-0.4
							c0.1-0.9,0-1.8-0.2-2.4c-0.1-0.3-0.2-0.7-0.4-1.2h0.5c-0.4-1.4-1-3.6-1.7-5.3h-0.5c-0.4-1.1-0.8-2-1.2-2.4
							c-0.3-0.3-0.3-0.7-0.3-1.2h0.4c-0.1-1.3,1-3.2,2.5-4.4c0.1-0.1,0.3-0.2,0.4-0.3c0.1-0.1,0.2-0.2,0.4-0.2c0,0,0,0,0.1,0
							c0.2-0.1,0.4-0.3,0.7-0.4h-0.1c1-0.9,2.2-2.2,3.2-3.6h0.2c1.4-1.7,2.6-3.4,3.4-4.2c0.1-0.1,0.4-0.3,0.6-0.4
							c2.1-1.1,5.6-1.7,4.5-3.6c-0.1-0.2-0.3-0.5-0.4-0.7h0.6c-1.2-1.9-2.3-3.9-2.4-5.3h-0.5c0-1.6,1.4-1.1,2.1,0
							c0.7,1.1,3.4-1.6,2.7-3c-0.1-0.2-0.2-0.4-0.2-0.6h0.5c-0.3-0.8-0.3-1.8,0.1-2.3c0.2-0.1,0.4-0.1,0.7-0.1
							c0.6,0.1,1-0.1,1.3-0.4c0.9-0.3,1-1.5,0.5-2.3c-0.1-0.1-0.1-0.2-0.1-0.3h-0.4c0.2-0.9,2-1.8,3.3-1.3c1.6,0.5,6.9,1,7.6-0.1
							c0.3-0.5-0.2-1.2-0.8-2.1h0.6c-0.8-1.1-1.9-2.4-1.9-3.7c0-0.6,0.2-1.1,0.5-1.6h-0.2c0.9-1.3,2.5-2.2,3.6-2.4
							c1.6-0.3,3.7,0,3.9-0.8c0-0.1,0.1-0.2,0.2-0.3h0.3c0.1-0.4,0.6-0.9,1.1-1.3c0.6-0.3,1.1-0.3,1.2,0.6c0.2,1.9,0,5.1,1.8,5.1
							c1.8,0,4.1-2.4,4.8-2.7c0.7-0.3,5-1.4,6-1.6c0.7-0.2,4.1-0.6,5.3-1.6c0.6-0.4,1-0.8,0.8-1.4c-0.3-0.8-0.6-1.7-0.9-2.4h-0.5
							c-0.3-0.8-0.7-1.5-1-1.9c-0.7-0.8-1.4,0.3-2.3,1.6c-0.1,0.2-0.3,0.3-0.5,0.5c-0.7,0.4-1.4,0.3-1.8-0.2h-0.7
							c-0.5-1.1,0.2-4.3-1.4-3.2c-1.6,1.1-1.8,2.2-2.7,1.6c-0.6-0.4-1.2-1.4-1.6-2h0.6c-0.3-0.4-0.4-0.8-0.4-0.8s2.3-1.3,0.7-3.8
							c-0.2-0.3-0.4-0.6-0.7-0.8h-0.8c-1.2-0.9-2.6-0.7-4.1,0h-0.1c-0.2,0.1-0.3,0.2-0.5,0.3c-2.3,1.3-2.1,1.1-4.8,1.9
							c-2.7,0.8-4.1,1.6-4.1,1.6s0.4-2,1.1-3.8h-0.3c0.3-0.7,0.7-1.3,1.1-1.8c1.5-1.5,5.9-1,7.6-2.3c0.3-0.1,0.6-0.3,0.8-0.5
							c0.1-0.1,0.2-0.1,0.2-0.2c1.6-0.6,4.4,1.2,4.4,1.2s0.1-0.2,0.3-0.3c0.1,0,0.1,0.1,0.1,0.1s0.4-0.5,0.9-0.9
							c0.3-0.1,0.5-0.1,0.5,0.4c0,1.3-0.5,4.9,0.9,4.9c1.4,0,5.3-2.2,3.7-2.7c-0.9-0.3-0.4-0.8,0.5-1.4h0c0.6-0.5,1.5-1,2.3-1.6
							c1.7-1.1,4.5,0.3,5.4-0.2c0.1-0.1,0.2-0.1,0.3-0.2c0,0,0.1,0,0.1,0c0.7-0.4,1.2-1.8,2.1-2.5c0.2-0.1,0.4-0.2,0.7-0.2
							c1.6,0,2.3,2.4,0,4c-2.3,1.6-2.5,5.7-3.7,6.7c-1.1,1.1-0.5,2.4,1.4,2.2c1.8-0.3,3.4,0.3,5-0.3c1.6-0.5,2.5,0.5,3,1.3
							c0.3,0.5,0.9,0.1,1.4-0.3h0.1c0.2-0.2,0.4-0.4,0.6-0.5c0.7-0.2,2.9-0.5,3.7,0.6c0.5,0.7,0.9,0.5,1.1-0.1h0.3
							c0.3-0.5,0.4-1.6,0-2.4c-0.5-0.9-1.1-1.9-1.6-3h-0.6c-0.2-0.4-0.4-0.7-0.5-1.1c-0.7-1.6-1.6-2.2-3.4-1.6
							c-1.5,0.4-2.1-0.2-2.9-0.9h0.8c-0.3-0.2-0.6-0.5-0.9-0.8c-1.1-0.8-2.1,1.1-1.1-0.8c0.9-1.8,1.3-2.4,1.9-3.8h-0.3
							c0.4-1,1.6-2.4,1.9-3.6h0.3c0.3-0.9,0.2-1.7-1.1-2.1c-3-0.8-3.9-1.4-4.3-3c0-0.1-0.1-0.2-0.1-0.3h-0.6
							c-0.7-1.2-2.3-2.8-3.5-3.6h0.8c-0.6-0.5-1.2-0.8-1.4-0.8c-0.9,0-5.3,1-5.5-0.4c-0.1-0.8-0.6-2.6-1.2-4.2h-0.5
							c-0.4-0.9-0.8-1.7-1.2-2.2c-0.2-0.3-0.6-0.8-1.1-1.4h0.6c-1.2-1.5-2.9-3.8-4.1-5.3H616c-0.4-0.5-0.8-1-0.9-1.1
							c-0.7-0.5-1.6-0.3-3.7,3c-0.8,1.2-1.5,2-2.2,2.5c-1,0.6-2,0.6-2.9,0.2c-1.6-0.8-3.4,0-5-2.1c-0.8-1.1,0-1.8,0.8-2.4h0
							c0.8-0.5,1.5-1,1.2-1.6c-0.5-1.1-2.9-1.6-5-1.9h2c-1.1-0.2-2.2-0.4-3.1-0.5c-2.3-0.3-3.9-3.2-7.3-3.5
							c-3.4-0.3-7.6,0.5-8.7,0.5c-0.3,0-0.5,0.1-0.6,0.3c-0.9,0.2-1,2-1.4,4.8c-0.4,2.4,0.8,3.3,0.3,3.9c-0.1,0-0.2,0.1-0.3,0.1
							c-1.1,0.3-1.8,0.5-2,0.8c-0.7,0.3-0.7,0.7,0.7,1.4c2.1,1.1,4.8,5.4,4.8,5.4s0,2.4-1.6,3.8c-1.6,1.3-3.2,2.7-4.1,1.1
							c-0.1-0.1-0.2-0.2-0.3-0.3h0.6c-0.7-1.1-2.1-1.3-2.6-0.7c-0.5,0.2-0.8,0.6-0.5,1.3c0.7,1.6,2.1,2.4,2.1,4c0,1.6,2.1,5.7,0.7,7
							c-1.4,1.4-3,0.3-4.1,0.5c-1.1,0.3-2.3-2.2-1.4-2.7c0.2-0.1,0.2-0.3,0.3-0.6h0.4c0.4-1.1-0.5-4.3-0.5-4.3s-0.1,0.2-0.4,0.6
							c0-0.2-0.1-0.3-0.1-0.3s-1.1,1.9-1.9,2.6c-0.2,0-0.3-0.2-0.2-0.7c0.2-1.7-0.5-2.4-0.9-3.2h-0.5c-0.1-0.3-0.2-0.6-0.2-1.1
							c0-0.8-0.4-1.7-0.9-2.5h0.6c-0.8-1.2-2-2.1-3.3-1.8c-2.1,0.5-3.9,1-7.8,0.2c-3.9-0.8-5.5-1.3-8.7-3.2c-0.4-0.2-0.7-0.4-1-0.5
							H545c-0.9-0.3-1.7-0.2-2.3,0h-0.4c-0.3,0.1-0.6,0.2-0.9,0.3c-0.3,0-0.5-0.1-0.7-0.3H540c-0.5-1-0.6-2.9-1.7-3.6h0.8
							c-0.2-0.2-0.4-0.4-0.8-0.5c-2.1-0.5-0.7-1.1-1.2-4.6c0-0.1,0-0.1,0-0.2h-0.5c-0.3-2-0.8-2.4,0.4-3.6h0.1
							c0.5-0.6,1.5-1.3,3.3-2.7c1.4-1.1,2.4-1.9,3.1-2.7h-0.2c1.7-1.7,2.2-2.6,4.9-3c3.9-0.5,5.3,2.4,5.3,1.1c0-0.3,0.1-0.9,0.2-1.7
							h0.4c0.2-1.3,0.5-3.1,0.8-4.2c0.1,2.6,4.5,2.9,2.5,4.8c-2.1,1.9-0.9,2.2,0.7,2.2c1.6,0,4.6-1.9,4.6-1.9s3.7-1.9,4.6-0.3
							c0.9,1.6,0.9,3.2,2.5,3.2c1.5,0,4.7-2,2.3-3.8h0.7c-0.2-0.2-0.3-0.3-0.6-0.5c-3-1.9-4.8-1.6-6.6-3.8c-0.4-0.5-0.7-0.8-1-1.1
							h-0.8c-0.2-0.1-0.4-0.1-0.6,0h-0.3c-0.2,0.1-0.5,0.2-0.8,0.3c-1.1,0.3-1.6,0-1.9-0.3h-0.7c-0.2-0.2-0.3-0.3-0.5-0.3
							c-0.7,0-1.8,0.5-2.3-0.5c-0.5-1.1,0.2-1.3,2.5-1.3c2.3,0,5,0.8,5,0.8s2.7-1.1,3.4-1.4c0.4-0.2,2-0.4,3-1.2
							c0.8-0.5,1.4-1.2,1.1-2.3c-0.5-1.8-1.8-2.2-2.8-2.7h-1c-0.1-0.1-0.2-0.2-0.3-0.3c-0.7-0.8,1.4-1.9,2.5-2.4
							c1.1-0.5,4.3,0,4.3,0s2.1,0.3,2.1-0.8v0h0.4c0-0.1,0.1-0.1,0.1-0.2c0-0.6-0.1-1.2,0-1.6c0.1,0,0.3,0.1,0.5,0.2
							c1.4,0.8,0,3.2,2.1,2.7c2.1-0.5,2.5,0,3.7,0.8c1.1,0.7,0,3.5-1.1,4.4c-0.3,0.2-0.7,0.4-1,0.6c-1,0.6-1.7,1.3,0.3,1.5
							c2.5,0.3,4.3,0.3,4.3,0.3s0.1-0.1,0.2-0.3c0.1,0,0.2,0,0.2,0s1.6-1.9,2.3-3.5c0.1-0.2,0.2-0.4,0.3-0.5c0.6-0.2,1.4,0.4,2,0.8
							c0.7,0.4,3.1,1.1,2.3,1.8c-0.2,0.1-0.4,0.2-0.7,0.3c-1,0.3-1.8,0.7-2.4,1.1c0,0,0,0,0,0c0,0,0,0,0,0c-1.5,0.9-2,1.9-2.6,2.9
							c-0.2,0.5-0.4,0.9-0.7,1.2c-0.5,0.3-1.3,0.3-2.7-0.1h-1.8c-1.1-0.2-1.9-0.2-2.6,0h-0.3c-0.1,0-0.1,0.1-0.1,0.2
							c-0.4,0.2-0.8,0.5-1,0.9c-0.7,1.3-0.2,5.7,0.9,5.1c1.1-0.5,2.3-0.5,3.7-1.1c1.4-0.5,6.9,0.5,8.2,0.3c1.4-0.3,3.7,2.7,4.3,2.2
							c0.7-0.5,2.1,1.1,3.4,2.2c0.5,0.4,0.7,0.2,0.9-0.1c0.3,0,0.5-0.4,0.8-0.7h-0.1c0.4-0.3,0.9-0.3,1.9,0.5
							c2.5,2.2,1.1,2.2,2.5,2.2c1.4,0,4.4,0.3,4.4,0.3s0-0.1,0.1-0.3c0.2,0,0.4,0,0.4,0s0.1-1.2,0.8-1.8c0.3-0.1,0.7-0.2,1.3-0.1
							c2.1,0.5,3.9,2.9,4.1,1.8c0.3,0.1,0.5,0,0.4-0.7c-0.1-0.7-0.1-1.3-0.1-1.9h-0.4c-0.1-1.2-0.3-2.2-1.5-3.2
							c-0.1-0.1-0.3-0.2-0.4-0.3h0.8c-1.8-1.6-4.8-2.7-5.2-3.5c-0.3-0.6-0.7-1.3-0.5-1.9h-0.3c0.1-0.1,0.1-0.2,0.2-0.3
							c0.7-0.5,3.9,0.3,5.7,1.6c1.8,1.3,3.4,2.7,4.8,1.6c0.1-0.1,0.2-0.1,0.3-0.2c0,0,0.1,0,0.1-0.1c0.3-0.2,0.5-0.4,0.8-0.5
							c0.7-0.4,1.4-0.8,1.9-1.1c0.4-0.3,0.8-0.5,1-0.8c0.1-0.1,0.1-0.2,0.2-0.3h-0.2c0.8-1,1.9-2.7,1.9-2.7s-2.1-0.3-4.2-0.9h1.6
							c-2-0.4-4.3-1.1-4.8-1.8c-0.9-1.3-4.1-3.2-5-3.2c-0.8,0-3,1.5-4.1-0.3h-0.6c0-0.1-0.1-0.2-0.1-0.3c-0.4-1.1-0.6-2.3-0.8-3.3
							h0.5c-0.3-1.7-0.5-3-1.1-3.2c-0.7-0.2-7.1-1.3-10.2-2.1h-1.4c-0.3-0.1-0.6-0.2-0.7-0.3c-1.1-0.7-5-2.1-7.5-3.3h1
							c-0.8-0.4-1.5-0.7-2-1c-2.1-1.3-5-3.2-6.9-3.2c-1.8,0-9.4,1.1-10.8,0.8c-1.4-0.3-5.5,0.5-7.1,0.8c-0.2,0-0.3,0.1-0.4,0.3
							c0,0,0,0-0.1,0c-1.6,0.3,2.1,3.8-1.4,4.6c-3.3,0.8-3,1.2-2.4-2.2h0.4c0-0.3,0.1-0.5,0.1-0.8c0.7-4-2.3-5.1-5.3-3.5
							c-1.8,1-4.3,1.8-5.7,2.7c-1.2,0.6-1.9,1.3-1.4,2.2c1.1,1.9-0.2,3.2,2.1,5.1c2.3,1.9,3.2,2.4,6.2,2.2c3-0.3,6,0.5,6,0.5
							s0,3.2-1.1,3.8c-0.2,0.1-0.5,0.2-0.8,0.3h-0.4c-0.5,0.2-0.9,0.4-1.2,0.7c-0.5,0.3-0.9,0.6-1,1.2c-0.2,0.6-0.6,1-1,1.4
							c-0.7,0.4-1.3,0.4-1.3,0c0-0.5,0.5-1.9,0.4-3.2h-0.5c-0.1-0.5-0.3-1-0.8-1.4c-1.6-1.3-2.1-1.6-3.9-0.3c-1.8,1.3-2.1,1.9-3-0.3
							c-0.2-0.6-0.6-1.1-1.1-1.7h0.6c-1.2-1.5-2.8-2.7-2.8-2.7s-1-1.4-2-2.7h-0.7c-0.3-0.4-0.7-0.8-1-1.1c-1.4-1.3-3.9-1.1-4.1,0.3
							c-0.2,1.3,0.5,2.7,1.4,5.1c0.8,2,1.2,4.5,0.3,5.4c-0.1,0-0.1,0.1-0.2,0.1c-0.4,0.1-0.7,0.2-0.9,0.4c-0.9,0.4-1,1.4-1.8,2
							c-0.1,0-0.2,0.1-0.3,0.1c-1.6,0.5-2.3-0.8-2.3-3c0-0.2,0-0.3,0-0.5h-0.4c-0.1-1.5-0.4-2.8-0.3-3.6h0.4c0-0.3,0-0.6,0.2-0.8
							c0.5-0.8-1.8,0.5-4.1,0c-1.1-0.3-2.1,0-2.6,0.4c-0.9,0.4-1.2,1.2,0.3,1.8c2,0.7,2.6,3.2,1.4,4.4c-0.1,0-0.1,0.1-0.2,0.1
							c-2.1,0.8-9.8,0-12.4,0c-2.5,0-6.2,0.8-6.9-0.8c-0.3-0.6,0-1.2,0.5-1.6h0c0.8-0.5,2-0.8,2.8-0.8c1.6,0,6.4,0.3,8.2-2.7
							c0,0,0,0,0,0h0.2c0.1-0.1,0.1-0.1,0.2-0.2c1.8-3-2.3-3.5-4.1-3.5c-1.3,0-2.4-0.4-3.7-1.6h-0.7c-0.4-0.4-0.8-0.8-1.3-1.4
							c-0.7-0.8-0.7-1.6-0.5-2.2h0.4c0.3-1.4,1.8-2.4,1.5-3.2c-0.5-1.1-2.7-0.3-4.8-0.3c-1.1,0-2.6-0.5-3.7-0.7
							c0.9,0,1.6-0.1,1.9-0.4c0.2-0.1,0.4-0.2,0.5-0.3c0.1-0.2,0.2-0.3,0.3-0.4h-0.2c0.6-0.5,1.3-0.8,1.5-1.6
							c0.1-0.4,0.2-1.2,0.4-1.9h0.4c0.3-1.3,0.6-2.8,0.6-2.8s-0.9-2-2.4-1.1c-1.5,0.9-2,1.4-3.4,1.1c-1-0.3-1.3-1.9-2.3-2.5h-2.2
							c-0.4,0.1-0.7,0.3-1,0.5c-1.4,0.7-1.8,1.9-2.4,2.4c-0.1,0.1-0.2,0.2-0.4,0.3c-0.8,0.4-1.8,0.6-2.3,0.4
							c-0.6-0.4-4.1-2.7-4.1-2.7s-4.7-0.2-6.7-0.9h-1.1c-0.1-0.1-0.2-0.2-0.3-0.3c-0.3-1.1-1.5-2.9-4.9-2.5
							c-3.4,0.4-9.2,2.7-10.1,2.7c-0.7,0,0.3,1.3,0.2,1.9c-0.9,0-2-0.1-2.6,0.5c-0.4,0.2-0.8,0.6-1,1.2c-0.3,1.1,1.4,1.1,3.4,1.1
							c2,0,5.2,0,6.1-0.5c0.9-0.5,5.5-1.8,5.3-0.2c-0.2,1.6,1.8,4.1,2.9,3.8c1.1-0.4,3.2-2.7,4.3-1.8c1.1,0.9,1.2,3.1,2.3,3.6
							c1.1,0.5,4,0.5,5.3,0c1.4-0.5,5.2-0.5,6.9-0.2c0.9,0.2,2.9,0.6,4.5,0.8c-0.4,0-0.6,0.1-0.8,0.3c-0.4,0.1-0.6,0.4-0.6,1
							c0,1.6,1.4,5.5,1.4,6.8c0,0-0.1,0-0.1-0.1c-0.1-0.1-0.2-0.2-0.2-0.3h-0.7c-0.9-1.1-1-2.3-1.6-3.6h0.5c-0.1-0.4-0.3-0.7-0.6-1
							c-1.1-1.6-3-1.3-5.3-1.1c-2.3,0.3-6.2,1.1-7.3,0.8c-1.1-0.3-0.2-0.3-2.7-1.6c-2.5-1.3-3.7-1.1-5.5-2.4h-0.8
							c-1.3-1.2-0.1-1.6-3.1-1.9c-3.2-0.3-3,1.9-6.2,1.4c-3.2-0.5-4.1,0.3-7.3,0c-3.2-0.3-4.8-0.5-5.3,1.3c-0.5,1.9-1.4,5.1-2.7,5.1
							s-3,1.9,1.4,2.2c4.3,0.3,1.8,2.7,5.7,2.4c3.2-0.2,6.1-0.3,7.5-1.5c0.1,0,0.1-0.1,0.2-0.1h-0.1c0.2-0.2,0.5-0.5,0.6-0.8
							c0.9-2.2,1.6-2.2,2.1-1.3c0.5,0.8,3.9,5.7,3.9,5.7s2.3,2.2,3.2,2.7c0.9,0.5-0.9,3-2.7,1.6c-1.8-1.3-5.3-1.1-6.6-2.4
							c0,0,0,0-0.1,0h0.8c-0.1-0.1-0.2-0.1-0.3-0.2c-1.4-1.3-5.1-1.9-6.7-1.6c-1.6,0.3-6.8-0.2-7.7-0.2c-0.3,0-0.8,0.3-1.3,0.6
							c-1.2,0.7-3,2.3-3,2.3s-0.2-0.4-0.5-0.9h0.6c-0.4-0.7-1.1-1.9-1.5-2.7c-0.3-0.5-0.7-0.3-1.1,0.1c-0.5,0.2-1,0.8-1.5,1.2
							c0,0-0.1,0-0.1,0.1c-0.9,0.3-3.7-2.2-6.4-1.1c-0.8,0.3-1.2,0.6-1.6,0.9c-0.4,0.2-0.7,0.4-0.9,0.6c-0.6,0.3-1.3,0.5-3.2,0.4
							c-3.9-0.3-4.8-1.1-6.2-0.8l-1.4,0.3c0,0,0,0.1,0,0.2c-0.4,0.1-0.4,0.1-0.4,0.1s0.2,1.1-1.4,2.2c-1.6,1.1-2.7,2.4-3.9,0.8
							c-1.1-1.6-1.8-1.6-2.5-1.9c-0.2-0.1-0.4-0.2-0.6-0.3h0.9c-0.7-0.3-2.1-1.6-5-0.8c-3,0.8-6.2-4-7.1-4c-0.9,0-10.5,2.4-12.4,1.8
							c-1.4-0.4-4.7-1.8-7-2.4h-3.5c-1.8,0.3-4,0.6-4,0.6s-1.5-0.3-2.7-0.6h-2.1c0,0-0.1,0-0.1,0c0,0,0,0-0.1,0h-0.7
							c-0.9,0.3-2,0.5-2.8,0h-0.8c0,0,0,0,0,0c-1.1-1.3-3.2-2.2-3.2-2.2s-0.6,2.1-1.8,3c-0.1,0.1-0.2,0.1-0.3,0.2
							c-1.6,0.5-5,1.6-5.7,1.1c-0.7-0.5-6.6,2.2-6.6,2.2s-3.4,0.9-4.3,0.6c-0.3-0.1-1,0.1-1.8,0.4h0.2c-1.5,0.5-3.7,1.9-3.3,2.7
							c0.5,1.1,0,3.2,3.7,3.2c3.7,0,3.9,1.6,5.3,1.9c1.4,0.3,1.8,0,3.4,1.6c1.4,1.4,1.6,2.8,0.3,3H353c-0.1,0-0.2,0-0.3,0
							c-2.1-0.3-4.3-0.8-5.7-2.2l-1.4-1.4l-2.5,1.4c-3.2,0.3-7.3,2.2-7.3,2.2s1.1,2.4,3.2,4c2.1,1.6,7.1,1.6,7.1,1.6s3,0.2,4.5-0.9
							c0.3-0.1,0.5-0.3,0.7-0.5c0.1-0.1,0.3-0.2,0.4-0.3c1.1-0.6,2.3-0.4,3.1-0.2c0.9,0.3-0.7,3.8-3.2,3.5c-2.5-0.3-5.5,0.3-7.6,2.2
							c-2.1,1.9-3.9,2.2-3,4.3c0.9,2.2,4.3,4.9,4.6,6.2c0.2,0.9,1.8,0.3,3.1-0.6c0.7-0.4,1.4-1,1.7-1.5h-0.3
							c0.5-1.3,2.7-1.3,2.1,1.6c-0.7,3,2.3,3.5,2.3,3.5s0.1-0.1,0.2-0.3c0.1,0,0.2,0.1,0.2,0.1s0.7-1.3,1.3-1.9c0.1,0,0.2,0,0.3,0.1
							c0.7,0.5,3,3,3,3s0.4-0.3,0.9-0.6h0c0,0,0.1-0.1,0.1-0.1c1-0.6,2.3-1.1,2.9-0.1c0.9,1.6-1.4,3-2.7,3.8h-0.1
							c-1.8,0.9-6,2.8-7,3.5c-0.1,0.1-0.2,0.1-0.3,0.2c0,0-0.1,0-0.1,0.1c-0.1,0-0.1,0.1-0.2,0.1c-0.7,0.4-1.6,0.9-2.5,1.4h0.1
							c-1.6,0.8-3.3,1.7-4,1.7c-1.1,0-1.6,3.2,0.5,3c2.1-0.3,7.8-2.7,9.4-3.5c1.6-0.8,2.2,2.7,6.3,0.2c0.7-0.4,1.3-0.9,1.9-1.4h0.1
							c2.2-1.7,3.3-3.7,4.1-4.5c0.1-0.1,0.2-0.1,0.4-0.1c1.1,0.3,1.4,2.2,3.2,2.7c0.8,0.2,1.6-0.1,2.4-0.6c1-0.6,1.9-1.6,2.6-2.1
							c0.2-0.2,0.5-0.5,0.7-0.8h-0.3c0.6-1.2,0.9-2.9,0.1-2.7c-1.1,0.3-4.1,0-4.1,0s0.5-0.4,1.1-0.9h0.1c0.9-0.7,2.4-2,2.4-2.9
							c0-0.7,0.1-1.6,0.5-2.4h-0.3c0.4-0.7,0.8-1.3,1.6-1.6c1.8-0.8,1.8-0.3,0.7,3c-1,2.9,1.6,2.1,3.1,1c0.3-0.2,0.6-0.4,0.8-0.6
							c1.3-0.7,2.9,2.3,5.2,0.6c0,0,0.1-0.1,0.1-0.1c0.1-0.1,0.2-0.1,0.3-0.2c0.8-0.6,1.2-1.3,1.5-2h-0.3c0.6-1.6,0.6-3.2,1.5-3.2
							c1.4,0,3.9,3,5.3,1.9c1.4-1.1,4.9,2.2,7.2,2.2c2.3,0,10,2.6,11.4,2.6c1.4,0,5.5,1.9,5.7,5.4c0.2,3.5,1.6,3.2,3,3.2
							c1.4,0,4.6,1.3,4.6,2.7c0,1.3-0.9,6.7,1.4,8.1c2.3,1.3,4.3,3.5,5.3,3c0.5-0.3,0.5-1.5,0.2-2.8h0.5c-0.2-1.3-0.8-2.6-1.4-2.9
							c-0.8-0.4-0.7-1.5-0.7-2.4h-0.4c0-0.3-0.1-0.6-0.2-0.8c-0.5-1.1,1.4-1.1,2.1,0.8c0.7,1.9,2.5,5.4,3.7,5.4c1.1,0,3.7,3.2,3,5.1
							c-0.7,1.9,0.2,5.7,2.3,5.7c2.1,0,5,2.6,5.9,2.9c0.9,0.3,1.4,2.6,1.4,3.4s1.8,4.4,1.8,6.3c0,1.9-0.7,9.4-0.9,12.4
							c-0.2,3,1.8,8.1,4.1,10.8c2.3,2.7,1.9,8.7,3.2,9.8c1.4,1.1,4.8,3.1,6.8,2.9c2.1-0.3,3.4,1.6,5.3,5.4c1.8,3.8,3.7,10,5,10.5
							c1.4,0.5,3.7,2.4,2.5,3.8c-1.1,1.3-3,4.3-0.9,4.3c2.1,0,2.7-1.3,4.3,1.1c1.6,2.4,3.7,3.8,3.4,5.4c-0.2,1.6,1.8,2.2,2.7,2.4
							c0.9,0.3,2.8,4.8,4.8,3.1c0.2-0.1,0.4-0.2,0.6-0.5c0.7-0.7,0.6-1.6,0.1-2.4h-0.6c-0.9-1.3-2.5-2.7-3.6-3.6h0.7
							c-0.3-0.3-0.6-0.5-0.8-0.7c-1-0.9-0.6-2.6-1.4-4.6h-0.5c-0.3-0.8-0.9-1.6-1.7-2.4c-0.4-0.4-0.8-0.8-1.1-1.2h0.7
							c-1.8-2.1-2.1-3.7-3.3-5.3h-0.6c-0.2-0.3-0.4-0.5-0.7-0.8c-1-1-1.9-1.9-2.5-2.8h0.6c-0.8-1.2-0.9-2.3,0.4-3.4
							c1.9-1.1,2.2,2.3,3,4.5c0.9,2.4,5.7,7.3,7.8,9.4c2.1,2.2,5.7,9.7,6.9,9.7c1.1,0,4.3,4.3,4.3,4.3s1.8,3.5,1.1,4.6
							c-0.7,1.1,0.9,5.1,2.5,6.2c1.6,1.1,8.6,1.1,8.9,5.1c0.1,1,1.2,6.2,3.8,6.2c2.5,0,5.9-1.3,6.5-0.5c0.6,0.8,2.5,3.6,3.9,2.4
							c0.2-0.1,0.5-0.2,0.7-0.5c0,0,0,0,0,0h-0.2c1.2-1.7,1.5-2.4,3.4-2.4c2.1,0,3,1.9,4.1,3.2c1.1,1.4,4.3,4.9,6,4.6
							c1.6-0.3,3.7,2.2,4.8,1.4c1.1-0.8,3,0.5,3.9,1.1c0.9,0.5,2.8,2.5,2.6,5.8c-0.2,3.2,3.1,3.9,4.5,4.7c1.4,0.8,3.2,2.7,4.4,4
							c1.1,1.3,3.7,1.6,4.3,2.4c0.7,0.8,1.1,2.4,3.2,1.1c1.2-0.8,1.6-2,1.6-2.8h0.4c0.1-0.5,0.1-0.8,0-1.1c0.7-0.1,2.2-0.2,3,0.6
							c1.2,1.1,1.8,4.6,2.5,5.1c0.7,0.5,2.1,4.6,1.1,7.6c-0.9,3-0.7,5.9-1.6,5.9c-0.9,0-3.4,2.8-4.8,3.6c-1.4,0.8-3.7,5.3-3.4,6.6
							c0.2,1.4,1,5.6,0.6,7.5c-0.5,1.9-2.2,3.8-1.5,6.8c0.7,3,5.5,3.8,5.7,6.5c0.2,2.7,3.7,8.6,4.1,11.3c0.5,2.7,2.9,5.8,2.9,9.6
							c0,3.8,6.9,6,8.1,6.3c1.1,0.3,3.2,2.7,4.8,3.5c1.6,0.8,3,2.4,4.1,4.6c1.1,2.2,0.9,5.4,0.9,6.2c0,0.8-0.7,9.2-1.4,14
							c-0.7,4.9,1.7,9.4,0.3,10.8c-1.4,1.3-3.9,1.9-2.6,3.5c1.4,1.6-1.6,2.7-1.6,3.5c0,0.8,1.8,5.1,0.9,7c-0.9,1.9-1.6,4.6-2.3,6.2
							c-0.7,1.6-2.3,3.2-1.8,5.7c0.5,2.4-1.8,1.6-1.8,4c0,2.4,2.1,1.3,1.6,4.3c-0.5,3-1.6,3.8-1.6,5.9c0,2.2,1.1,5.1,1.1,5.9
							s-1.1,3.5-2.7,5.7c-1.6,2.2-2.7,3.5-2.5,4.8c0.2,1.3,1.8,3,1.6,3.8c-0.2,0.8-2.3,3.5-2.1,5.4c0.2,1.9,2.3,1.1,2.7,2.4
							c0.5,1.4-2.7,2.4-1.4,3.8c1.4,1.4,3.2,1.1,2.7,4.3c-0.5,3.2,2.5,4,3.2,4.9s2.1,2.7,3.2,2.7c1.1,0,2-0.8,2.5-3.7h0.4
							c0-0.1,0.1-0.3,0.1-0.4c0.1-0.5,0.2-0.8,0.4-1c1-0.3,2.1,1.4,0.5,2.9c-2.3,2.2-3.4,3.2-2.7,3.2c0.7,0,4.1,2.2,6,2.2
							c1.8,0,5.5-1.1,6.2-1.3c0.7-0.3,5.5-1.1,6.1-1.8c0.1,0,0.2-0.1,0.3-0.1h-0.2c0-0.7-4-0.5-5.9-1.3c-0.9-0.3-2-1.3-3.1-2.3h0.7
							c-1.6-1.5-3.1-3.4-3.4-4.4c-0.1-0.3-0.1-0.6-0.2-0.9h-0.5c-0.1-1.1,0-2.5,0.4-3.6h0.3c0.2-0.6,0.5-1.2,1-1.5
							c1-0.7,3-2.4,4.5-3.9h-0.1c0.7-0.7,1.4-1.3,1.6-1.5c0.4-0.3,0.8-1.1,1.2-2h0.3c0.6-1.4,1-3,0.5-3.4c-0.7-0.5-4.1,0-4.6-0.8
							c-0.2-0.3-0.3-0.7-0.2-1.2h-0.4c0.2-0.6,0.8-1.4,2-2.3c0.5-0.4,0.9-0.8,1.2-1.2h0.2c1.6-1.7,2.6-3.8,3.4-4.4
							c0.3-0.2,0.6-0.5,1-0.9h-0.2c0.8-0.8,1.8-1.9,2.2-3.2c0.1-0.2,0.1-0.3,0.1-0.4h0.3c0.5-1.7-0.8-0.7-2.1-0.7
							c-1.4,0-2.1-3-2.1-4.3c0-0.1,0-0.1,0.1-0.2c1-0.1,3.5,1.1,5.4,1.5c0.9,0.2,1.3,0.1,1.5-0.2c0.6-0.1,0.6-0.7,0.4-1.5h-0.5
							c-0.1-0.4-0.2-0.8-0.3-1.3c-0.1-0.7,0-1.6,0.2-2.3h0.3c0.1-0.5,0.3-1,0.6-1.3c0.2-0.1,0.4-0.1,0.7,0.1
							c1.4,0.8,8.5-0.3,9.4-0.5c0.1,0,0.2-0.1,0.4-0.3c0,0,0.1,0,0.1,0c0.5-0.1,1.5-1.7,2.5-3.3h-0.3c0.7-1.2,1.3-2.3,1.7-2.9
							c0.2-0.2,0.3-0.5,0.4-0.7h0.3c0.7-1.2,0.8-2.4-0.2-3.1c-0.5-0.4-1.5-1.3-2.5-2.2h-0.7c-0.9-0.9-1.8-1.9-2-2.3
							c-0.1-0.2-0.1-0.7,0-1.3h0.4c0.2-1.4,0.9-3.8,1.4-5.2c0.2,1.8,0.5,7.7,3,8.5c3.2,1.1,5,1.6,8-1.6c0.6-0.6,1.1-1.2,1.6-1.8h0.2
							c2-2.1,3.5-3.8,4-5.3h-0.4c0-0.2,0.1-0.3,0.1-0.5c0.1-1.1,0.4-2.2,0.7-3.1h0.3c0.3-1,0.8-1.8,1.4-2.2c0.5-0.2,0.9-0.4,1.4-0.8
							c0.6-0.3,1.1-0.8,1.8-2.3h-0.3c0.1-0.1,0.1-0.3,0.2-0.4c1.2-3.2,2.3-1.3,3.5-3.1h0.2c0.2-0.2,0.4-0.5,0.6-1
							c0.6-1.4,0.2-2.9-0.2-4.4h-0.5c-0.3-1.3-0.5-2.6,0.1-3.6h0.2c0.2-0.3,0.4-0.7,0.8-1c0.7-0.6,1.6-1.2,2.6-1.8
							c0.2-0.1,0.4-0.3,0.6-0.4c0,0,0,0,0,0c2.1-1.3,3.9-2.4,3.9-2.4s1.4-0.8,4.1-1.6c2.6-0.8,5.5-0.3,6.5-1.7h0.2
							c0.1-0.1,0.3-0.3,0.4-0.4c0.6-1.1,1.3-3.1,2.1-4.9h-0.3c0.3-0.7,0.6-1.3,1-1.8c0.4-0.5,0.8-1.1,1.1-1.7h0.3
							c1-1.7,1.9-3.7,1.3-4.7c-0.1-0.1-0.1-0.4-0.1-0.6h-0.4c0-0.9,0.4-2.2,0.8-3.6h0.4c0.5-1.9,1.1-3.9,1-4.7
							c0-0.2-0.1-0.4-0.1-0.6h-0.5c-0.3-0.9-0.6-2.2-0.6-3.6h0.4c0-1.4,0.4-3,1.9-4.5c0.3-0.3,0.6-0.6,0.9-0.9h-0.1
							c1.1-1.1,2.2-2.4,3.1-3.6h0.2c1.8-2.2,3.1-4.2,3.3-5c0-0.1,0.1-0.2,0.1-0.3h-0.4c0.3-0.8,0.8-2.1,1.3-3.6h0.3
							c0.7-1.8,1.3-3.9,1.4-5.3h-0.4C695.8,450.3,695.8,450.2,695.8,450.1L695.8,450.1z"/>
						<path id="Fill-6" class="st0" d="M485.7,180.6c1.3,0,4.5-1.3,5.5-0.4c1,0.9,3.4,0.2,3.2-0.7c0-0.3,0-0.8,0.1-1.3h0.4
							c0.2-1.4,0.5-3.6-1-3.8c-1.9-0.2-4.7,2-7.6,3.1c-0.3,0.1-0.5,0.2-0.6,0.4C484.1,178.6,484.5,180.6,485.7,180.6"/>
						<path id="Fill-8" class="st0" d="M508.7,179.8c1.9,0,5.9-1.2,6.2-0.2c0.3,1-0.2,1.8,2,2.2c2.2,0.4,3.1,0.8,4.4,0.8
							c0.8,0,0.9-1.2,0.5-2.5h0.5c-0.2-0.8-0.5-1.6-0.9-2.3c-1.1-1.8-0.8-1.6-3.6-2.6c-2.8-1-5.6-1-7.5-0.8
							c-1.3,0.1-2.7-0.1-3.5,0.7c-0.6,0.3-1.1,0.9-1.2,2C505.4,178.6,506.8,179.8,508.7,179.8"/>
						<path id="Fill-10" class="st0" d="M536,197.2c1.8-0.4,4.5-0.8,5.8-1c0.2,0,0.4-0.2,0.6-0.4c1.1-0.5,1.3-3.2-0.1-3.4
							c-0.9-0.1-1.7-0.9-2.5-1.3h-1.6c-0.8,0.4-2.2,1.3-3.4,2.2c-1.2,0.9-2.3,2-2.1,2.7C533,196.6,534.1,197.6,536,197.2"/>
						<path id="Fill-12" class="st0" d="M527.5,180.3c1.7,0.9,4.4,2.6,6.3,3.6c2,0.9,5.7,1.1,6.9,3c1.2,1.9,5.3,3.4,5.3,3.4l4.8,0.6
							c0,0,3.3-0.9,6.8-0.6c3.5,0.4,8.6,0.9,11.4,0.8c2.9-0.2,3.3-1.3,3.6-2.1c0.1-0.3-0.7-0.7-1.7-1.1h1.1
							c-1.6-0.7-4.6-1.4-5.6-1.3c-1.4,0.2-9,0.2-11.3,0c-2.3-0.2-5.1-0.2-6.9,0c-1.8,0.2-3.2-1.5-4.5-2.4c-0.5-0.4-1.4-1.1-2.3-1.9
							h-0.8c-1.2-1-2.5-2-3.5-2.2c-1.8-0.4-1.5-0.4-5.3-1.5c0,0-0.1,0-0.1,0h1.4c-0.3-0.1-0.5-0.2-0.8-0.2c-1.9-0.6-5.1-1.3-5.1-1.9
							c0-0.2-0.1,0.1-0.2,0.6c-0.1-0.1-0.2-0.2-0.2-0.3C526.8,176.2,525.9,179.4,527.5,180.3"/>
						<path id="Fill-14" class="st0" d="M746.2,222.5c0.1,0,0.1,0,0.1,0s3.2-2.9,2.1-4.1c-0.1-0.1-0.3-0.2-0.4-0.3h-0.8
							c-1.4-0.9-3.4-1.5-4.5-1.6c-1.3-0.2-2.6,1.2-5.6,1.2c-1.3,0-2.3,0.2-3.3,0.4h-2.2c-0.2-0.1-0.4-0.2-0.6-0.4
							c-1.2-1.4-6-2-6.5-1.2c-0.6,1.1-1.8,1.2-0.6,3.6c1.2,2.4,2.1,3.7,3.1,3.5c1-0.2,4.6-0.3,5,1c0.4,1.4,1.6,2.5,4.1,1.7
							c2.5-0.8,4.6-1.3,5.1-2.4c0.6-1,4.6-1.2,4.6-1.2S746,222.6,746.2,222.5"/>
						<path id="Fill-16" class="st0" d="M586.7,364.1c0.3-0.1,0.5-0.3,0.6-0.5c0.1-0.5-0.4-1.4-1.2-2.2h-0.7
							c-0.9-0.8-1.9-1.5-2.7-1.3c-1.2,0.2-3.3-0.9-5.1-2.3h0.8c-0.8-0.6-1.6-1.2-2.2-1.8c-1.9-1.9-5.3-1.9-6.7-1.9
							c-1.4,0-6.9,1.9-6.9,1.9c0,0.1,0,0.1,0,0.1c-0.3,0.1-0.4,0.1-0.4,0.1c-0.2,2.7,2.1,1.9,4.8,1.9c2.8,0,7.6-0.5,8.5,0.8
							c0.9,1.4,5.1,3.5,6.2,4.6C582.8,364.6,586,364.9,586.7,364.1"/>
						<path id="Fill-18" class="st0" d="M613.5,370.3c0.7-0.4,1.1-1,1.1-1.6H614c-0.1-1.1-1.1-2.2-2.3-2c-2.2,0.4-1.7,4.9,1,4
							C613,370.6,613.3,370.5,613.5,370.3"/>
						<path id="Fill-52" class="st0" d="M532,187.4c-0.6,0.2-1,0.7-1.2,1.3c-0.8,2.3,7,3.4,6.2,0.9c-0.2-0.5-0.5-0.9-0.8-1.2h0.8
							C535.8,186.9,533.3,186.4,532,187.4"/>
						<path id="Fill-54" class="st0" d="M340.5,254c-1.1,0.3-0.9,2.3-2,3.3c-0.1,0.1-0.2,0.1-0.4,0.2c-1,0.2-2.1,0.6-2.9,0.9h0.1
							c-1.4,0.5-2.3,1.2-1,1.5c1.9,0.5,6.2-0.2,6.7-1c0.1-0.1,0.1-0.3,0.2-0.5h0.4c0.4-1.1,0.8-4.3,0.1-4.5
							C341.2,253.7,340.8,253.8,340.5,254"/>
						<path id="Fill-58" class="st0" d="M622.1,277c-0.3-0.3-0.7-0.3-1.3,0H622.1z"/>
						<path id="Fill-60" class="st0" d="M574.3,228.8c-0.4,0.1-0.7,0.2-0.9,0.3c-2,0.7,0.3,2,2,1.5c0.2-0.1,0.3-0.1,0.4-0.2
							c0,0,0,0,0.1,0C577.7,229.9,576.8,228.2,574.3,228.8"/>
						<path id="Fill-62" class="st0" d="M339.7,237c-0.2,0.1-0.6,0.2-1.2,0.4c-0.1,0-0.2,0.1-0.2,0.1c-0.1,0-0.1,0-0.2,0.1
							c-0.8,0.2,1.4,1.5,2.3,1.5c0.2,0,0.3-0.1,0.5-0.2c0.7-0.2,1.6-1.4,1.1-1.9H339.7z"/>
						<path id="Fill-64" class="st0" d="M508.8,183.5C508.7,183.5,508.7,183.5,508.8,183.5c-0.2,0.1-0.4,0.2-0.4,0.3
							c-1.2,1.3,0,5.1-0.5,5.5c-0.5,0.4,0.2,2.1,1.4,1.7c1.1-0.3,1.7-3,2.5-3.7h0.2c0.1-0.1,0.1-0.2,0.2-0.2c1,0,5.9-1.3,6.7,0.8
							c0.8,2.1,0.8,1.1,3,1.3c1.3,0.1,2.5-0.9,3.2-1.9h0.2c0.6-0.8,1.1-1.6,1.2-2c0.2-1-1.1-2.8-4.2-2.5
							C519.3,183.1,510,182.2,508.8,183.5"/>
						<path id="Fill-66" class="st0" d="M527.1,193.6c-1.2-0.8-5.2-0.3-6.2,0.2c-1.1,0.5-4.3-0.8-5.9,0.3c0,0,0,0.1-0.1,0.1
							c-0.1,0.1-0.3,0.1-0.4,0.2c-1.1,0.7-0.5,3.1,1.2,3.2c1.7,0.2,4.6-1.1,4.9-0.2c0.3,1,1.4,5.3,4.1,3.9c0.1-0.1,0.3-0.2,0.4-0.2
							c0,0,0,0,0,0c0.7-0.4,1.3-0.8,1.6-1.1h-0.2c0.8-0.8,0.9-1.4,1.4-1.5c0.3-0.1,0.3-0.8,0.1-1.7h0.5
							C528.4,195.5,527.8,194.1,527.1,193.6"/>
						<path id="Fill-68" class="st0" d="M346.3,214.5h1.2c-0.4-0.4-0.4-0.4-0.4-0.4L346.3,214.5z"/>
						<path id="Fill-70" class="st0" d="M565.2,227c-0.3,0.1-0.6,0.3-0.9,0.6c-0.6,0.7,2.7,1.6,3.5,0.8c0.2-0.1,0.4-0.1,0.5-0.3
							C568.9,227.2,566.8,225.9,565.2,227"/>
						<path id="Fill-80" class="st0" d="M608.2,392h2.1C609.7,391.6,608.9,391.6,608.2,392"/>
						<path id="Fill-101" class="st0" d="M580.9,347.8c-0.5,0-0.8,0.1-1,0.3c-1.8,0.4-1.1,2.1,1.6,1.7c2.3-0.3,1.8-1.3,0.4-1.7h1
							C582.4,347.9,581.7,347.8,580.9,347.8"/>
						<path id="Fill-103" class="st0" d="M718.9,200.3h-0.6c-0.4-0.9-0.7-2.1-1.1-3c-0.1-0.2-0.2-0.4-0.2-0.6h0.5
							c-0.5-1.2-1.2-3.7,0-4.8c0.2-0.1,0.4-0.2,0.7-0.2c2.6-0.3,7.3,2.9,8.2,1.6c0.4-0.1,0.6-0.4,0.6-1c0-0.3,0-0.6,0-1h-0.4
							c0-1.3,0-2.5,0.2-3.6h0.4c0.1-1.2,0.4-2.3,0.7-3c0.5-1,1.3-1.7,1.7-2.3h-0.3c0.1-0.3,0.1-0.5-0.2-0.6c-1-0.5-2.2,0.7-3.2-2
							c-0.1-0.3-0.2-0.6-0.2-0.9h0.5c-0.5-2.4,1.1-4.1,2.1-5.1c0.1,0,0.2-0.2,0.2-0.2h-0.2c0.7-0.8,1.9-2.1,3.3-3.6h0.2
							c1.6-1.6,3.4-3.4,5-4.5c0.4-0.3,0.8-0.5,1.2-0.6c1.9-0.6,3.4-2.3,3.9-3.8h0.3c0.5-1.1,0.4-2.2-0.6-2.6c-2-0.8-5.9-2.2-8.8-0.3
							c-0.5,0.2-0.9,0.5-1.3,0.9c-2.9,2.9-4.6,5.6-8,4.7c-1.4-0.4-2.3-1.4-3-2.7h0.6c-1-1.7-1.7-3.8-2.7-5.3h-0.6c0,0,0,0,0,0
							c-0.8-1-1.2-2.2-1.5-3.5h0.5c-0.5-1.9-0.5-4-0.9-5.3h-0.5c-0.3-0.9-0.8-1.4-1.6-1.2l-2.9,0.5c0,0-3.4-0.7-5.6-0.2
							c-0.8,0.2-1.5,0.5-2.2,0.8h-0.1c-1.4,0.7-2.5,1.4-3.5,1.1c-3.1-0.8-5.9,1.1-6.7,1.3c-5.1,1.3-9.4,0.3-11.7-0.4
							c1.9,0.1,4.7,0.2,7.1-0.2c3.3-0.6,8.9-1.9,11.7-2.5c2.7-0.5,0.5-1.8-0.4-1.9c-1.5-0.2-3.3-0.6-5.3-1.1h1.7
							c-3-0.7-6.3-1.5-9.1-1.7c-3.3-0.2-5.5,1-8.8,1.1c-2.7,0.1-5.8,0-8.5,0.6h1.3c-2.2,0.2-4.3,0.8-5.9,2c-1,0.7-2.1,1.2-3.2,1.6
							h-0.4c-1.6,0.5-2.8,0.7-3,0.9c0,0,0,0.1-0.1,0.1c-0.2,0.1-0.3,0.1-0.4,0.2c-1.7,2.2-3.2,7.6-4.7,6.1c-0.5-0.5-0.9-1.2-1.2-1.9
							h0.6c-0.7-1.5-1.3-3-2.7-2c0,0-0.1,0.1-0.1,0.1c-0.1,0.1-0.2,0.1-0.3,0.2c-2,1.4-0.1,5-1.8,7.6c-0.2,0.3-0.4,0.5-0.7,0.8
							c-2.1,1.3-5.5,1-6.7,0.2c-1.4-0.9-2.8-1.6-8.4-1.3c-3.6,0.2-7.4,1.2-9.3,2.5c-1.4,0.8-2.1,1.6-1.6,2.5c0.5,0.8,0.2,1.5-0.3,2
							c-0.9,0.6-2.3,0.7-2.8,0.1c-0.1-0.1-0.2-0.1-0.3-0.2h-1.2c-0.6,0.2-1.3,0.5-1.9,0.9c-1.2,0.7-2.3,1.9-2.2,3
							c0.3,2.2-0.7,4.7-3.1,4.1c-2.4-0.5-4.1,1.3-4.2,3.1c0,0.4-0.4,0.8-0.8,1.2c-1.6,1-4.3,1.6-4.6,1.6c-0.3,0-3.1-0.1-4.5,0.4h0.9
							c-1.6,0.2-2.9,0.7-1.6,1.8c1.7,1.4,2.7,0.5,4.8,1.1c2.1,0.5,3.8,4.5,4.9,5c0.9,0.4,2,0.2,2.8-0.5c0.4-0.2,0.8-0.5,1-0.9
							c0.4-0.6,0.8-1.9,1.2-3h-0.3c0.3-0.9,0.4-1.5,0.4-1.5s0,3.6,1.7,4.3c1.7,0.7,5.9-0.5,7-0.4c1.1,0.2,7.7,1.3,9.5,2.3
							c1.8,1.1,6.3,1.8,7.5,4.1c1.3,2.3,1.4,10.4,2.1,11.4c0.2,0.2,0.5,0.1,0.9-0.2c0.6-0.2,1.4-1.3,2.1-2.2h-0.2
							c0.4-0.6,0.7-1.1,0.9-1.4c0.6-0.9,3.5-0.4,4.5,0.9c1,1.3,3.2,4.3,3.1,5.6c-0.1,1.3-0.6,3.2-1.4,2.5c-0.8-0.7-2.2-0.5-1.7-2
							c0-0.1,0.1-0.2,0.1-0.3h0.3c0.6-1.5,0.8-4.5-0.3-4.5h-2.1c0,0-1.2-0.4-2.4,0.6c-0.5,0.3-1.1,0.8-1.5,1.7
							c-1.4,2.7-0.3,5.4,0.7,5.4c1,0,3.2,0,3.2,0.7c0,0.7-2.4,2.9-2.2,4.1c0.1,1.3,2,5.6,2.5,6.5c0.6,0.9,3.5,1.8,4.3,2
							c0.1,0,0.1,0,0.1,0c-0.2,0.1-0.5,0.2-0.7,0.4c-0.5,0.2-1,0.6-0.6,1.2c0.7,1.3,1.8,4.3,3.4,5c1.5,0.7,5.9,4,6.4,5.4
							c0.6,1.4,3.9-1.1,4.6-1.3c0.7-0.2,0.6,3.8,2.5,4c1.4,0.1,2.1-0.1,3-0.8c0.1,0,0.2-0.1,0.2-0.1h0c0.3-0.3,0.7-0.6,1.1-1
							c0.8-0.8,1.1-1.7,1.3-2.6h0.4c0.2-1.1,0.1-2.2,0.2-3.1c0.1-0.9,0.1-1.7,0.4-2.2c0.2-0.1,0.5,0,1,0.1c1.8,0.5,2.8-0.4,2.7-2.2
							c0-0.5-0.2-1.1-0.3-1.6h0.5c-0.3-1-0.5-2,0.2-2.7c0.2-0.1,0.5-0.2,0.9-0.3c1.5-0.3,2.6-1,3.6-1.7c0.3-0.2,0.6-0.4,0.8-0.5
							c0.6-0.4,1.2-0.7,1.9-0.7c1.8,0,6.8,0.9,7.4,0c0.3-0.4,0.9-1.8,1.7-3.1h0.3c0.7-1.2,1.5-2.5,2.2-3.2c0.1-0.1,0.2-0.2,0.4-0.2
							c1.5-0.2,5.6,0.7,9.2,0c3.6-0.7,7.6-3.4,8.8-3.2c1.3,0.2,4.3,0.2,3.4-0.9c-0.3-0.4-0.7-0.9-1.1-1.4h0.7
							c-0.9-1.1-2-2.5-3.6-2.5c-1.1,0-1.7-1.4-2-2.9h-0.5c-0.2-1.3-0.2-2.4,0.1-2.4c0.6,0,5.7,2.1,5.5,3.9c-0.1,1.8,0.8,4.1,3.6,3.4
							c0.5-0.1,0.9-0.3,1.2-0.6c1.9-1,1.6-3.2,1.1-3.9C719.1,200.7,719,200.5,718.9,200.3"/>
						<path id="Fill-106" class="st0" d="M580,371.2c-1.8,0.7-1.2,4.4,1.3,3.7c0.4-0.1,0.6-0.3,0.8-0.4c2.1-1,0.7-4-1.3-3.6
							C580.4,370.9,580.2,371,580,371.2"/>
						<path id="Fill-110" class="st0" d="M599.7,364.8c-1.7-0.6-3.7,0-5,0.3c-0.2,0.1-0.6,0.3-0.9,0.6c-1.6,1-4.4,4.4-4.4,4.4
							s2.4,0.6,3.9,0.6c1.5,0,2.4,1.2,3.7,2c1.3,0.9,3.7-1.2,4.5-1.2c0.7,0,1.6,2.3,2,1.1c0.3,0.1,0.5-0.2,0.6-1.4h-0.4
							c0.1-1.6-0.4-2.9-1.1-3.8h0.6C602.2,365.9,600.8,365.1,599.7,364.8"/>
					</g>
				</g>
			</g>
		</g>
	</g>
</g>
</svg>
